<?xml version="1.0" encoding="utf-8"?>
<!-- Generator: Adobe Illustrator 24.1.2, SVG Export Plug-In . SVG Version: 6.00 Build 0)  -->
<svg version="1.1" id="Isolation_Mode" xmlns="http://www.w3.org/2000/svg" xmlns:xlink="http://www.w3.org/1999/xlink" x="0px"
	 y="0px" viewBox="0 0 120 85" style="enable-background:new 0 0 120 85;" xml:space="preserve">
<style type="text/css">
	.st0{opacity:0.62;}
	.st1{fill:#BCBEC0;}
</style>
<g class="st0">
	<g>
		<g>
			<path class="st1" d="M29.68,50.25l-10.92-0.33l-0.01-0.01L8.82,39.47l0.09,0.02l20.78,10.71L29.68,50.25z M18.78,49.87
				l10.79,0.33L9.02,39.61L18.78,49.87z"/>
		</g>
		<g>
			<path class="st1" d="M38.54,28.62l-0.01,0.04l-8.84,21.62l-0.03-0.03L14.51,29.6l0.04-0.02L38.54,28.62z M29.67,50.18l8.79-21.5
				L14.6,29.63L29.67,50.18z"/>
		</g>
		<g>
			<path class="st1" d="M38.52,28.64l-0.04,0.03L27.83,13.1l0.77-0.62l0.01,0.02L38.52,28.64z M27.89,13.11l10.07,14.7l-9.38-15.26
				L27.89,13.11z"/>
		</g>
		<g>
			<path class="st1" d="M34.1,6.79l-6.25,6.36l-0.54-2.31l0.02-0.01l6.74-4.08L34.1,6.79z M27.87,13.06l6.05-6.16l-6.56,3.97
				L27.87,13.06z"/>
		</g>
		<g>
			<polygon class="st1" points="38.09,0 34.08,6.73 29.54,0.68 30.64,0 30.55,0 29.47,0.67 34.08,6.82 38.15,0 			"/>
		</g>
		<g>
			<path class="st1" d="M42.61,55.86L18.69,49.9l0.08-0.03l23.1-3.21l0,0.03L42.61,55.86z M18.9,49.91l23.65,5.89l-0.73-9.08
				L18.9,49.91z"/>
		</g>
		<g>
			<path class="st1" d="M41.88,46.71l-0.02,0.01l-12.21,3.55l0.01-0.04l8.22-28.51l0.05,0L41.88,46.71z M29.71,50.19l12.11-3.52
				l-3.93-24.84L29.71,50.19z"/>
		</g>
		<g>
			<path class="st1" d="M41.86,46.71l-12.18,3.54h0l-10.91-0.33l0-0.05l23.08-3.21L41.86,46.71z M29.67,50.2l11.84-3.45l-22.45,3.12
				L29.67,50.2z"/>
		</g>
		<g>
			<path class="st1" d="M52.4,20.13l-13.92,8.56l0-0.04l-0.61-6.95l0.02,0l14.49-1.61L52.4,20.13z M38.52,28.61l13.76-8.46
				l-14.36,1.6L38.52,28.61z"/>
		</g>
		<g>
			<path class="st1" d="M38.53,28.66L29.7,50.24l-0.05-0.02l8.22-28.51l0.05,0L38.53,28.66L38.53,28.66z M29.83,49.8l8.65-21.16
				l-0.59-6.79L29.83,49.8z"/>
		</g>
		<g>
			<path class="st1" d="M52.41,20.14l-0.02-0.01l-24.54-7l-0.02-0.04h0.03l26.27,0.01l-0.01,0.03L52.41,20.14z M28.04,13.13
				l24.33,6.94l1.7-6.93L28.04,13.13z"/>
		</g>
		<g>
			<path class="st1" d="M52.45,20.1l-0.05,0.03l-13.9,8.55l-0.01-0.02L27.8,13.07l0.06,0.02L52.45,20.1z M38.51,28.62l13.82-8.5
				l-24.41-6.97L38.51,28.62z"/>
		</g>
		<g>
			<path class="st1" d="M54.13,13.16l-0.04-0.01L34.07,6.8l0-0.05l19.27-1.97L54.13,13.16z M34.2,6.79l19.87,6.3l-0.76-8.26
				L34.2,6.79z"/>
		</g>
		<g>
			<path class="st1" d="M54.1,13.15l-26.3-0.01l6.27-6.39L54.1,13.1L54.1,13.15z M27.92,13.08l26.02,0.01L34.09,6.8L27.92,13.08z"/>
		</g>
		<g>
			<polygon class="st1" points="52.23,0 53.28,4.72 49.1,0 49.03,0 53.37,4.89 52.28,0 			"/>
		</g>
		<g>
			<polygon class="st1" points="49.03,0 53.28,4.78 34.12,6.75 38.15,0 38.09,0 34.06,6.76 34.03,6.81 53.33,4.83 53.38,4.82 
				49.1,0 			"/>
		</g>
		<g>
			<path class="st1" d="M53.82,56.7l-0.05-0.04l-11.98-9.98l0.07,0l0.01,0l11.23,6.76l0,0.01L53.82,56.7z M42.11,46.87l11.63,9.69
				l-0.7-3.11L42.11,46.87z"/>
		</g>
		<g>
			<path class="st1" d="M53.8,56.62l-0.04,0.02L37.88,21.73l0.04-0.02l0,0l0,0l0,0l9.58,19.64L53.8,56.62z M38.68,23.38l14.55,31.98
				l-5.78-13.98L38.68,23.38z"/>
		</g>
		<g>
			<path class="st1" d="M53.8,56.62l-0.04,0.03L41.83,46.7l-3.95-24.97l0.05-0.01L53.8,56.62z M41.87,46.67l11.84,9.87L37.95,21.9
				L41.87,46.67z"/>
		</g>
		<g>
			<path class="st1" d="M58.51,27.87l-0.01,0.02l-11.01,13.5l-0.04-0.02l4.93-21.31l0.03,0.04L58.51,27.87z M47.52,41.27l10.93-13.4
				l-6.05-7.71L47.52,41.27z"/>
		</g>
		<g>
			<path class="st1" d="M47.48,41.44l-0.03-0.06L37.86,21.7l14.52-1.62l0.04-0.02l-0.01,0.05L47.48,41.44z M37.94,21.74l9.53,19.55
				l4.89-21.16L37.94,21.74z"/>
		</g>
		<g>
			<path class="st1" d="M58.5,27.86l-0.05,0.02l-3.23-7.55l-1.16-7.23l0.04-0.02l0.01,0.03L58.5,27.86z M54.18,13.49l1.09,6.84
				l3.07,7.16L54.18,13.49z"/>
		</g>
		<g>
			<path class="st1" d="M58.5,27.86l-0.04,0.02l-6.1-7.77l1.71-7.01l0.04-0.01l0.01,0.03L58.5,27.86z M52.41,20.1l6.01,7.65
				L54.1,13.22L52.41,20.1z"/>
		</g>
		<g>
			<polygon class="st1" points="61.98,0 55.26,20.22 53.35,4.81 57.9,0 57.83,0 53.31,4.79 53.3,4.8 55.22,20.33 55.27,20.33 
				62.03,0 			"/>
		</g>
		<g>
			<path class="st1" d="M55.27,20.32l-0.05,0.01l-1.15-7.2L53.3,4.81l0,0v0l0.05-0.01l-0.01,0l0.01,0l-0.04,0.01l0.04,0L55.27,20.32
				z M53.5,6.37l0.62,6.75l0.93,5.85L53.5,6.37z"/>
		</g>
		<g>
			<polygon class="st1" points="57.83,0 53.34,4.75 52.28,0 52.23,0 53.3,4.81 53.31,4.85 57.9,0 			"/>
		</g>
		<g>
			<path class="st1" d="M60,67.18l-0.05,0.02l-6.91-13.74l-0.02-0.01l0.02-0.02l3.73-4.76l0.01,0.05L60,67.18z M53.1,53.45
				l6.83,13.58l-3.17-18.25L53.1,53.45z"/>
		</g>
		<g>
			<path class="st1" d="M60.95,46.94l-0.05,0.07l-7.1,9.64l-0.06,0.04l0.02-0.06l2.99-7.92L60.95,46.94z M53.87,56.47l6.94-9.42
				l-4.02,1.69L53.87,56.47z"/>
		</g>
		<g>
			<path class="st1" d="M56.79,48.73l-2.98,7.9l0,0.01l-0.01,0l-0.03,0.07l-0.01-0.05l-0.03,0.02l0.02-0.06l-0.72-3.19l3.71-4.73
				L56.79,48.73z M53.79,56.55l2.9-7.68l-3.59,4.59L53.79,56.55z"/>
		</g>
		<g>
			<path class="st1" d="M65.15,35.43l-4.26,11.59l-0.02-0.01l-13.41-5.63l-0.02-0.03l0.03-0.01L65.15,35.43z M60.86,46.96
				l4.21-11.45l-17.53,5.86L60.86,46.96z"/>
		</g>
		<g>
			<path class="st1" d="M60.91,46.99l-0.02,0.03l-7.12,9.67l-0.02-0.04l-6.31-15.26l0.02-0.01l0.01-0.02L60.91,46.99z M53.79,56.58
				l7.05-9.58l-13.32-5.59L53.79,56.58z"/>
		</g>
		<g>
			<path class="st1" d="M65.13,35.53l-6.67-7.64l0.02-0.02l-0.02-0.01l8.96-12.35l-0.01,0.09L65.13,35.53z M58.51,27.87l6.58,7.55
				l2.26-19.73L58.51,27.87z"/>
		</g>
		<g>
			<path class="st1" d="M65.15,35.49l-0.04,0.01L47.4,41.42l11.08-13.58l0.02,0.02L65.15,35.49z M47.55,41.32l17.52-5.85l-6.59-7.55
				L47.55,41.32z"/>
		</g>
		<g>
			<polygon class="st1" points="76.7,0 67.37,15.58 55.35,20.26 76.44,0 76.37,0 55.23,20.31 55.26,20.35 67.4,15.62 67.4,15.62 
				76.75,0 			"/>
		</g>
		<g>
			<path class="st1" d="M67.46,15.55l-0.05,0.07l-8.93,12.31l-3.26-7.61l0.02-0.01L67.46,15.55z M58.49,27.82l8.83-12.17
				l-12.04,4.69L58.49,27.82z"/>
		</g>
		<g>
			<polygon class="st1" points="76.37,0 55.3,20.24 62.03,0 61.98,0 55.23,20.32 55.27,20.34 76.44,0 			"/>
		</g>
		<g>
			<path class="st1" d="M68.47,72.8l-0.05,0.01l-11.68-24.1l0.02-0.01l10.68-8.16l0,0.05L68.47,72.8z M56.8,48.73l11.62,23.96
				l-1.02-32.04L56.8,48.73z"/>
		</g>
		<g>
			<path class="st1" d="M78.48,39.56l-17.6,7.46l-0.03-0.04l6.54-6.41l0.01,0l11.06-1.06L78.48,39.56z M60.98,46.92l17.33-7.34
				l-10.89,1.04L60.98,46.92z"/>
		</g>
		<g>
			<path class="st1" d="M67.43,40.61l-6.54,6.41h-0.01l-4.1,1.73l-0.02-0.04l10.65-8.13L67.43,40.61z M60.86,46.98l6.25-6.12
				l-10.18,7.77L60.86,46.98z"/>
		</g>
		<g>
			<path class="st1" d="M78.51,39.58l-0.05-0.01l-13.39-4.07l0.01-0.02l5.7-16.88l0.02,0.06L78.51,39.58z M65.14,35.46l13.29,4.04
				l-7.65-20.77L65.14,35.46z"/>
		</g>
		<g>
			<path class="st1" d="M78.55,39.54l-0.06,0.03l-17.65,7.48l0.02-0.05l4.24-11.54l0.02,0.01L78.55,39.54z M60.92,46.95l17.48-7.41
				L65.13,35.5L60.92,46.95z"/>
		</g>
		<g>
			<path class="st1" d="M76.12,15.66l-0.08,0.05l-5.26,2.98l-3.46-3.12L76.12,15.66z M70.79,18.63l5.15-2.92l-8.49-0.09L70.79,18.63
				z"/>
		</g>
		<g>
			<path class="st1" d="M70.81,18.65l0,0.02l-5.67,16.81l-0.05-0.01l2.28-19.89l0.03-0.01l0.01,0.01L70.81,18.65z M65.16,35.25
				l5.6-16.58l-3.35-3.02L65.16,35.25z"/>
		</g>
		<g>
			<polygon class="st1" points="77.22,0 77.55,2.97 76.12,14.76 77.13,0 77.09,0 76.01,15.68 76.06,15.69 77.6,2.97 77.27,0 			"/>
		</g>
		<g>
			<polygon class="st1" points="77.09,0 76.01,15.66 67.43,15.58 76.75,0 76.7,0 67.34,15.62 76.03,15.71 76.05,15.71 77.13,0 			
				"/>
		</g>
		<g>
			<polygon class="st1" points="83.51,0 89.14,6.35 77.59,2.95 76.35,0 76.3,0 77.55,2.98 77.56,2.99 89.21,6.42 89.29,6.45 
				83.57,0 			"/>
		</g>
		<g>
			<polygon class="st1" points="77.22,0 77.53,2.8 76.35,0 76.3,0 77.55,2.98 77.6,2.97 77.27,0 			"/>
		</g>
		<g>
			<polygon class="st1" points="91.6,0 89.22,6.33 86.69,0 86.64,0 89.2,6.41 89.22,6.47 91.66,0 			"/>
		</g>
		<g>
			<polygon class="st1" points="86.64,0 89.14,6.28 83.57,0 83.51,0 89.2,6.42 89.24,6.39 86.69,0 			"/>
		</g>
		<g>
			<path class="st1" d="M90.68,48.18L68.46,72.82l-0.02-0.01l-0.02,0.01l0.02-0.01l-0.02-0.01l6.44-11.35l0,0l15.78-13.29
				L90.68,48.18z M68.57,72.62l21.83-24.2L74.9,61.47L68.57,72.62z"/>
		</g>
		<g>
			<path class="st1" d="M90.68,48.2l-0.03-0.01l-23.25-7.57l0.01-0.05L90.7,40.9v0.02L90.68,48.2z M67.58,40.62l23.06,7.51
				l0.01-7.19L67.58,40.62z"/>
		</g>
		<g>
			<path class="st1" d="M90.7,48.16l-0.03,0.03L68.42,72.86l0-0.06l-1.03-32.24l0.03,0.01L90.7,48.16z M68.46,72.74l22.15-24.56
				l-23.18-7.55L68.46,72.74z"/>
		</g>
		<g>
			<path class="st1" d="M90.67,40.94l-12.23-1.38l0.01-0.02l-0.21-0.97l0.04,0.01l12.4,2.32L90.67,40.94z M78.49,39.52l11.5,1.3
				L78.3,38.63L78.49,39.52z"/>
		</g>
		<g>
			<path class="st1" d="M90.67,40.94l-23.26-0.32l0-0.05l11.1-1.06l0,0.01l12.17,1.38L90.67,40.94z M67.86,40.58l22.31,0.31
				l-11.7-1.32L67.86,40.58z"/>
		</g>
		<g>
			<path class="st1" d="M91.44,30.85l-0.04,0.02l-13.14,7.77l-0.01-0.03l-7.49-19.95l0.01-0.04l0.03,0.02L91.44,30.85z M78.29,38.57
				l13.06-7.72L70.83,18.72L78.29,38.57z"/>
		</g>
		<g>
			<path class="st1" d="M78.5,39.53l-0.05,0.01l-7.68-20.87l0,0l-0.01-0.02l0.02-0.08l0.03,0.08l7.48,19.93L78.5,39.53z
				 M73.46,25.85l4.92,13.36l-0.13-0.6L73.46,25.85z"/>
		</g>
		<g>
			<path class="st1" d="M99.23,5.4l-0.02,0.05L91.4,30.9l-0.03-0.03L75.99,15.68l0.03-0.01L99.23,5.4z M91.38,30.81l7.77-25.32
				L76.08,15.69L91.38,30.81z"/>
		</g>
		<g>
			<path class="st1" d="M91.41,30.83l-0.03,0.04L70.74,18.66l0.04-0.02l5.26-2.98l0.01,0.01L91.41,30.83z M70.83,18.66l20.4,12.07
				L76.03,15.72L70.83,18.66z"/>
		</g>
		<g>
			<polygon class="st1" points="97.19,0 99.16,5.41 77.66,2.95 83.66,0 83.55,0 77.56,2.95 77.49,2.98 99.19,5.47 99.23,5.47 
				97.24,0 			"/>
		</g>
		<g>
			<path class="st1" d="M99.29,5.43l-0.08,0.04L76,15.73l0-0.04l1.54-12.74l0.02,0L99.29,5.43z M76.06,15.65L99.1,5.46L77.59,3
				L76.06,15.65z"/>
		</g>
		<g>
			<polygon class="st1" points="92.33,0 89.98,4.8 92.17,0 92.12,0 89.2,6.38 89.22,6.39 89.2,6.39 89.2,6.39 89.19,6.39 89.19,6.4 
				89.24,6.41 89.24,6.41 92.39,0 			"/>
		</g>
		<g>
			<polygon class="st1" points="92.39,0 92.33,0 89.21,6.37 77.64,2.96 83.66,0 83.55,0 77.56,2.95 77.51,2.97 89.21,6.42 
				89.25,6.43 89.24,6.4 			"/>
		</g>
		<g>
			<polygon class="st1" points="92.12,0 89.49,5.74 91.66,0 91.6,0 89.2,6.39 89.24,6.41 92.17,0 			"/>
		</g>
		<g>
			<path class="st1" d="M93.34,76.98l-0.05,0l-2.66-28.81l0.03-0.01l0.01-0.01l6.82,5.48l0,0.01L93.34,76.98z M90.69,48.22
				l2.64,28.58l4.11-23.15L90.69,48.22z"/>
		</g>
		<g>
			<path class="st1" d="M97.52,53.69l-0.07-0.03l-9.12-4.59l2.34-8.21L97.52,53.69z M88.39,49.04l9.02,4.54l-6.73-12.6L88.39,49.04z
				"/>
		</g>
		<g>
			<path class="st1" d="M97.49,53.62l-0.04,0.03l-6.82-5.48l0-0.01l0.02-7.25l0.04-0.01L97.49,53.62z M90.68,48.16l6.7,5.39
				L90.7,41.02L90.68,48.16z"/>
		</g>
		<g>
			<path class="st1" d="M88.38,49.11L78.24,38.6l0.02-0.02l14.12-13.83l-0.01,0.07L88.38,49.11z M78.31,38.6L88.34,49l3.96-24.11
				L78.31,38.6z"/>
		</g>
		<g>
			<path class="st1" d="M90.71,40.9l-2.33,8.2l-0.03-0.03L78.2,38.57l0.08,0.01L90.71,40.9z M88.35,49.01l2.29-8.07l-12.3-2.3
				L88.35,49.01z"/>
		</g>
		<g>
			<path class="st1" d="M100.08,29.35l-0.07,0.01l-8.65,1.52l0-0.03l0.96-6.06l0.03,0.02L100.08,29.35z M91.42,30.82l8.52-1.5
				l-7.58-4.45L91.42,30.82z"/>
		</g>
		<g>
			<path class="st1" d="M91.41,30.88l-0.02,0l-13.11,7.75l-0.03-0.04l14.12-13.83L91.41,30.88z M78.43,38.48l12.94-7.64l0.94-5.94
				L78.43,38.48z"/>
		</g>
		<g>
			<path class="st1" d="M100.04,29.33l-0.05,0L99.1,6.41l0.07-0.97l0.05,0L100.04,29.33L100.04,29.33L100.04,29.33z M99.19,5.91
				l-0.04,0.5l0.45,11.8L99.19,5.91z"/>
		</g>
		<g>
			<path class="st1" d="M100.04,29.35l-0.02,0l-8.66,1.52l0.01-0.04l7.8-25.41l0.03,0l0.01,0l-0.01,0l0.01,0L100.04,29.35z
				 M91.43,30.82l8.56-1.51L99.18,5.59L91.43,30.82z"/>
		</g>
		<g>
			<polygon class="st1" points="102.12,0 99.13,6.34 97.05,0 97,0 99.11,6.42 99.12,6.47 102.17,0 			"/>
		</g>
		<g>
			<polygon class="st1" points="97.19,0 99.17,5.44 99.11,6.28 97.05,0 97,0 99.11,6.42 99.15,6.41 99.22,5.44 99.22,5.44 97.24,0 
							"/>
		</g>
		<g>
			<polygon class="st1" points="113.87,0 114.86,1.09 113.58,0 113.51,0 115.12,1.37 115.15,1.34 113.94,0 			"/>
		</g>
		<g>
			<polygon class="st1" points="115.17,0 115.11,1.28 114.23,0 114.17,0 115.11,1.37 115.15,1.43 115.22,0 			"/>
		</g>
		<g>
			<polygon class="st1" points="114.17,0 114.9,1.07 113.94,0 113.87,0 115.12,1.37 115.15,1.34 114.23,0 			"/>
		</g>
		<g>
			<path class="st1" d="M104.33,65.9L93.31,77.03l-0.02-0.05l0.01-0.01l9.77-9.99l1.22-1.1L104.33,65.9z M98.63,71.58l5.03-5.08
				l-0.56,0.5L98.63,71.58z"/>
		</g>
		<g>
			<path class="st1" d="M107.32,58.99l-0.01,0.02l-3,6.93L97.4,53.57l0.07,0.04L107.32,58.99z M104.31,65.83l2.95-6.82l-9.73-5.31
				L104.31,65.83z"/>
		</g>
		<g>
			<path class="st1" d="M104.34,65.89l-0.01,0.01L93.28,77.05l4.17-23.49l0.03,0.06L104.34,65.89z M93.36,76.91l10.92-11.03
				l-6.8-12.17L93.36,76.91z"/>
		</g>
		<g>
			<path class="st1" d="M116.42,34.01l-0.02,0.06l-9.1,24.96l-0.02-0.01l-18.97-9.96l0.04-0.02L116.42,34.01z M107.28,58.96
				l9.06-24.85L88.41,49.06L107.28,58.96z"/>
		</g>
		<g>
			<path class="st1" d="M107.3,58.97l-0.02,0.04l-18.94-9.95l-0.02-0.07l0.06,0.03l9.1,4.58L107.3,58.97z M90.87,50.34l13.7,7.19
				l-7.11-3.88L90.87,50.34z"/>
		</g>
		<g>
			<path class="st1" d="M116.39,34.04l-0.02,0.04l-24.03-9.23l-0.01,0l-0.01-0.06l0.04,0.02l11.69,2.35l0,0L116.39,34.04z
				 M92.63,24.91l23.44,9l-12.04-6.71L92.63,24.91z"/>
		</g>
		<g>
			<path class="st1" d="M116.44,34.06l-0.05,0.03L88.33,49.1l0.01-0.05l3.98-24.22l-0.01-0.04l0.04,0.02L116.44,34.06z M88.39,49.01
				l27.93-14.95l-23.96-9.2L88.39,49.01z"/>
		</g>
		<g>
			<path class="st1" d="M117.05,10.67L104.04,27.2l0,0l-4.03,2.16l-0.03-0.03l0.02-0.02l17.02-18.68L117.05,10.67z M104.01,27.16
				l12.58-15.99l-16.47,18.07L104.01,27.16z"/>
		</g>
		<g>
			<path class="st1" d="M104.1,27.17l-4.09,2.2l-0.01-0.01l-7.66-4.5l0.02-0.05L104.1,27.17z M100.01,29.31l3.95-2.12l-11.47-2.31
				L100.01,29.31z"/>
		</g>
		<g>
			<polygon class="st1" points="113.13,0 116.99,10.62 99.18,6.39 106.07,0 106,0 99.11,6.39 99.08,6.42 117.03,10.68 117.07,10.69 
				113.18,0 			"/>
		</g>
		<g>
			<path class="st1" d="M117.08,10.64l-0.03,0.03L99.99,29.4l0-0.06L99.1,6.41L99.1,6.37l0.04,0.01L117.08,10.64z M100.03,29.27
				l16.95-18.6L99.15,6.44L100.03,29.27z"/>
		</g>
		<g>
			<polygon class="st1" points="115.31,0 117.03,2.14 114.3,0 114.23,0 117.17,2.31 117.21,2.28 115.37,0 			"/>
		</g>
		<g>
			<polygon class="st1" points="106,0 99.2,6.3 102.17,0 102.12,0 99.11,6.4 99.14,6.43 106.07,0 			"/>
		</g>
		<g>
			<polygon class="st1" points="117.27,0 117.17,2.26 115.16,1.34 115.5,0 115.45,0 115.11,1.35 115.11,1.36 115.12,1.38 
				117.21,2.33 117.32,0 			"/>
		</g>
		<g>
			<polygon class="st1" points="114.23,0 117.01,2.19 115.15,1.34 113.58,0 113.51,0 115.12,1.37 117.18,2.32 117.2,2.27 114.3,0 
							"/>
		</g>
		<g>
			<polygon class="st1" points="115.45,0 115.17,1.12 115.22,0 115.17,0 115.11,1.35 115.16,1.36 115.5,0 			"/>
		</g>
		<g>
			<path class="st1" d="M104.93,74.23l-0.05,0.01l-1.16-6.85l0.57-1.5l-0.01-0.08l0.06,0.08l0,0.01L104.93,74.23z M103.77,67.39
				l1.08,6.34L104.29,66L103.77,67.39z"/>
		</g>
		<g>
			<path class="st1" d="M107.31,59L107.31,59l-3.55,8.39l-0.04-0.02l4.93-13.57l0.05,0.01L107.31,59z M104.09,66.5l3.18-7.52
				l1.24-4.64L104.09,66.5z"/>
		</g>
		<g>
			<path class="st1" d="M107.31,59.01L107.31,59.01l-3.54,8.39l-0.04-0.02l0.57-1.5l2.98-6.89l0,0h0L107.31,59.01z M104.21,66.21
				l0.75-1.78l-0.63,1.46L104.21,66.21z"/>
		</g>
		<g>
			<polygon class="st1" points="120,41.45 108.75,53.7 116.39,34.09 120,34.74 120,34.69 116.38,34.04 116.36,34.03 108.65,53.8 
				108.69,53.83 120,41.53 			"/>
		</g>
		<g>
			<path class="st1" d="M116.4,34.07L107.31,59l-0.05-0.01l1.39-5.18l7.7-19.75L116.4,34.07z M107.46,58.47l8.15-22.37l-6.91,17.72
				L107.46,58.47z"/>
		</g>
		<g>
			<polygon class="st1" points="120,33.53 104.72,27.43 120,32.38 120,32.33 104.04,27.16 104.03,27.15 103.96,27.18 120,33.58 			
				"/>
		</g>
		<g>
			<polygon class="st1" points="120,34.69 116.39,34.04 104.38,27.34 120,33.58 120,33.53 104.04,27.16 104.03,27.15 103.96,27.18 
				104.02,27.2 116.37,34.08 116.37,34.08 120,34.74 			"/>
		</g>
		<g>
			<polygon class="st1" points="120,17.07 117.14,10.82 120,14.36 120,14.29 117.05,10.64 117.01,10.67 120,17.19 			"/>
		</g>
		<g>
			<polygon class="st1" points="120,32.33 104.07,27.17 117.03,10.7 120,17.19 120,17.07 117.05,10.65 117.04,10.61 104.01,27.16 
				103.99,27.19 120,32.38 			"/>
		</g>
		<g>
			<polygon class="st1" points="120,12.88 113.77,0 113.72,0 120,12.99 			"/>
		</g>
		<g>
			<polygon class="st1" points="120,12.88 113.77,0 113.72,0 120,12.99 			"/>
			<polygon class="st1" points="120,14.29 117.05,10.64 113.18,0 113.13,0 117.01,10.66 117.01,10.67 120,14.36 			"/>
		</g>
		<g>
			<polygon class="st1" points="120,3.59 117.4,2.37 120,2.96 120,2.91 117.19,2.27 117.19,2.27 117.19,2.27 117.19,2.27 
				117.18,2.31 117.18,2.32 120,3.64 			"/>
		</g>
		<g>
			<polygon class="st1" points="120,2.91 117.2,2.27 115.37,0 115.31,0 117.17,2.31 117.17,2.31 120,2.96 			"/>
		</g>
		<g>
			<polygon class="st1" points="120,3.59 117.21,2.28 117.32,0 117.27,0 117.16,2.29 117.16,2.31 120,3.64 			"/>
		</g>
	</g>
	<path class="st1" d="M9.02,39.09c0.23,0.06,0.37,0.31,0.31,0.54c-0.06,0.24-0.3,0.38-0.54,0.31c-0.23-0.06-0.37-0.31-0.31-0.54
		C8.54,39.17,8.78,39.03,9.02,39.09z"/>
	<path class="st1" d="M29.76,49.94c0.16,0.04,0.25,0.21,0.21,0.37c-0.04,0.16-0.21,0.25-0.36,0.21c-0.16-0.04-0.25-0.21-0.21-0.37
		C29.44,49.99,29.6,49.9,29.76,49.94z"/>
	<path class="st1" d="M18.9,49.42c0.26,0.07,0.41,0.34,0.34,0.61c-0.07,0.26-0.34,0.42-0.6,0.35c-0.26-0.07-0.41-0.34-0.34-0.61
		C18.37,49.5,18.64,49.35,18.9,49.42z"/>
	<path class="st1" d="M9,39.16c0.2,0.05,0.31,0.26,0.26,0.46C9.2,39.82,9,39.94,8.8,39.88c-0.2-0.05-0.31-0.26-0.26-0.46
		C8.6,39.22,8.8,39.1,9,39.16z"/>
	<path class="st1" d="M14.59,29.45c0.09,0.02,0.14,0.12,0.11,0.2c-0.02,0.09-0.11,0.14-0.2,0.12c-0.09-0.02-0.14-0.12-0.11-0.2
		C14.42,29.48,14.51,29.42,14.59,29.45z"/>
	<path class="st1" d="M38.58,28.37c0.15,0.04,0.24,0.2,0.2,0.36c-0.04,0.16-0.2,0.25-0.35,0.2c-0.15-0.04-0.24-0.2-0.2-0.36
		C38.27,28.42,38.43,28.33,38.58,28.37z"/>
	<path class="st1" d="M29.72,50.06c0.09,0.03,0.14,0.12,0.12,0.21c-0.02,0.09-0.12,0.15-0.21,0.12c-0.09-0.03-0.14-0.12-0.12-0.21
		C29.54,50.09,29.63,50.04,29.72,50.06z"/>
	<path class="st1" d="M14.6,29.44c0.09,0.03,0.15,0.12,0.12,0.22c-0.03,0.09-0.12,0.15-0.21,0.12c-0.09-0.03-0.15-0.12-0.12-0.22
		C14.41,29.47,14.5,29.41,14.6,29.44z"/>
	<path class="st1" d="M28.7,12.1c0.23,0.06,0.36,0.3,0.3,0.53c-0.06,0.23-0.3,0.37-0.53,0.3c-0.23-0.06-0.36-0.3-0.3-0.53
		C28.24,12.18,28.47,12.04,28.7,12.1z"/>
	<path class="st1" d="M27.94,12.83c0.15,0.04,0.24,0.2,0.2,0.36c-0.04,0.16-0.2,0.25-0.35,0.21c-0.15-0.04-0.24-0.2-0.2-0.36
		C27.62,12.88,27.78,12.78,27.94,12.83z"/>
	<path class="st1" d="M38.55,28.46c0.1,0.03,0.16,0.14,0.14,0.24c-0.03,0.11-0.13,0.17-0.24,0.14c-0.1-0.03-0.16-0.14-0.14-0.24
		C38.35,28.49,38.45,28.43,38.55,28.46z"/>
	<path class="st1" d="M28.64,12.34c0.1,0.03,0.16,0.13,0.13,0.24c-0.03,0.1-0.13,0.16-0.23,0.13c-0.1-0.03-0.16-0.13-0.13-0.24
		C28.43,12.37,28.54,12.31,28.64,12.34z"/>
	<path class="st1" d="M27.41,10.57c0.16,0.04,0.25,0.21,0.2,0.36c-0.04,0.16-0.2,0.25-0.36,0.21c-0.15-0.04-0.25-0.21-0.2-0.36
		C27.1,10.62,27.26,10.53,27.41,10.57z"/>
	<path class="st1" d="M34.16,6.47c0.16,0.05,0.26,0.22,0.22,0.38C34.33,7.02,34.16,7.12,34,7.08c-0.16-0.05-0.26-0.22-0.22-0.38
		C33.83,6.53,34,6.43,34.16,6.47z"/>
	<path class="st1" d="M27.94,12.81c0.16,0.04,0.25,0.21,0.21,0.37c-0.04,0.16-0.21,0.26-0.37,0.21c-0.16-0.04-0.25-0.21-0.21-0.37
		C27.61,12.87,27.78,12.77,27.94,12.81z"/>
	<path class="st1" d="M27.38,10.7c0.09,0.02,0.14,0.11,0.11,0.2c-0.02,0.09-0.11,0.14-0.2,0.11c-0.09-0.02-0.14-0.11-0.11-0.2
		C27.2,10.73,27.29,10.68,27.38,10.7z"/>
	<path class="st1" d="M29.54,0.54c0.07,0.02,0.11,0.09,0.09,0.16c-0.02,0.07-0.09,0.11-0.16,0.09c-0.07-0.02-0.11-0.09-0.09-0.16
		C29.4,0.57,29.47,0.52,29.54,0.54z"/>
	<path class="st1" d="M34.2,6.32c0.25,0.07,0.39,0.33,0.32,0.58c-0.07,0.25-0.32,0.4-0.57,0.33c-0.25-0.07-0.39-0.33-0.32-0.58
		C33.7,6.4,33.95,6.26,34.2,6.32z"/>
	<path class="st1" d="M29.56,0.48c0.1,0.03,0.16,0.14,0.14,0.24c-0.03,0.1-0.13,0.17-0.24,0.14c-0.1-0.03-0.16-0.14-0.14-0.24
		C29.35,0.52,29.46,0.45,29.56,0.48z"/>
	<path class="st1" d="M18.82,49.73c0.09,0.03,0.15,0.12,0.12,0.21c-0.02,0.09-0.12,0.15-0.21,0.12c-0.09-0.03-0.15-0.12-0.12-0.21
		C18.63,49.76,18.72,49.7,18.82,49.73z"/>
	<path class="st1" d="M41.89,46.55c0.07,0.02,0.12,0.1,0.1,0.17c-0.02,0.08-0.1,0.12-0.17,0.1c-0.07-0.02-0.12-0.1-0.1-0.17
		C41.74,46.58,41.81,46.53,41.89,46.55z"/>
	<path class="st1" d="M42.63,55.67c0.09,0.02,0.14,0.12,0.12,0.21c-0.02,0.09-0.11,0.14-0.2,0.12c-0.09-0.03-0.14-0.12-0.12-0.21
		C42.45,55.69,42.54,55.64,42.63,55.67z"/>
	<path class="st1" d="M18.85,49.62c0.15,0.04,0.24,0.2,0.2,0.36c-0.04,0.15-0.2,0.25-0.35,0.2c-0.15-0.04-0.24-0.2-0.2-0.36
		S18.69,49.58,18.85,49.62z"/>
	<path class="st1" d="M29.72,50.09c0.08,0.02,0.12,0.1,0.1,0.18c-0.02,0.08-0.1,0.13-0.18,0.1c-0.08-0.02-0.12-0.1-0.1-0.18
		C29.56,50.11,29.64,50.06,29.72,50.09z"/>
	<path class="st1" d="M38.04,21.21c0.28,0.08,0.44,0.37,0.37,0.66c-0.08,0.28-0.37,0.45-0.65,0.37c-0.28-0.08-0.44-0.37-0.37-0.66
		C37.47,21.3,37.76,21.13,38.04,21.21z"/>
	<path class="st1" d="M41.91,46.48c0.12,0.03,0.18,0.15,0.15,0.27c-0.03,0.12-0.15,0.19-0.27,0.15c-0.11-0.03-0.18-0.15-0.15-0.27
		C41.67,46.51,41.79,46.44,41.91,46.48z"/>
	<path class="st1" d="M29.71,50.12c0.06,0.02,0.09,0.08,0.08,0.14c-0.02,0.06-0.08,0.1-0.14,0.08c-0.06-0.02-0.09-0.08-0.08-0.14
		C29.59,50.14,29.65,50.1,29.71,50.12z"/>
	<path class="st1" d="M29.72,50.08c0.08,0.02,0.13,0.11,0.11,0.2c-0.02,0.08-0.11,0.14-0.19,0.11c-0.08-0.02-0.13-0.11-0.11-0.2
		C29.55,50.1,29.64,50.05,29.72,50.08z"/>
	<path class="st1" d="M18.8,49.8c0.05,0.01,0.08,0.07,0.07,0.12c-0.01,0.05-0.07,0.08-0.12,0.07c-0.05-0.01-0.08-0.07-0.07-0.12
		C18.69,49.82,18.74,49.79,18.8,49.8z"/>
	<path class="st1" d="M41.91,46.48c0.11,0.03,0.18,0.15,0.15,0.27c-0.03,0.12-0.15,0.19-0.26,0.15c-0.12-0.03-0.18-0.15-0.15-0.27
		C41.67,46.51,41.79,46.44,41.91,46.48z"/>
	<path class="st1" d="M29.72,50.07c0.09,0.02,0.14,0.11,0.11,0.2c-0.02,0.09-0.11,0.14-0.2,0.12c-0.09-0.02-0.14-0.12-0.11-0.2
		C29.54,50.1,29.63,50.05,29.72,50.07z"/>
	<path class="st1" d="M38.58,28.37c0.15,0.04,0.24,0.2,0.2,0.36c-0.04,0.16-0.2,0.25-0.35,0.2c-0.15-0.04-0.24-0.2-0.2-0.36
		C38.27,28.42,38.43,28.33,38.58,28.37z"/>
	<path class="st1" d="M52.44,19.92c0.1,0.03,0.17,0.14,0.14,0.24c-0.03,0.11-0.14,0.17-0.24,0.14c-0.1-0.03-0.17-0.14-0.14-0.24
		C52.23,19.95,52.34,19.89,52.44,19.92z"/>
	<path class="st1" d="M37.99,21.39c0.18,0.05,0.29,0.24,0.24,0.42c-0.05,0.18-0.24,0.29-0.42,0.24c-0.18-0.05-0.29-0.24-0.24-0.42
		C37.62,21.45,37.81,21.34,37.99,21.39z"/>
	<path class="st1" d="M38.54,28.5c0.08,0.02,0.13,0.11,0.11,0.19c-0.02,0.08-0.11,0.13-0.19,0.11c-0.08-0.02-0.13-0.11-0.11-0.19
		C38.38,28.53,38.46,28.48,38.54,28.5z"/>
	<path class="st1" d="M38.54,28.5c0.08,0.02,0.13,0.11,0.11,0.19c-0.02,0.08-0.1,0.13-0.19,0.11c-0.08-0.02-0.13-0.11-0.11-0.19
		C38.38,28.53,38.46,28.48,38.54,28.5z"/>
	<path class="st1" d="M29.73,50.05c0.1,0.03,0.16,0.13,0.13,0.23c-0.03,0.1-0.13,0.16-0.23,0.13c-0.1-0.03-0.16-0.13-0.13-0.23
		C29.53,50.08,29.63,50.02,29.73,50.05z"/>
	<path class="st1" d="M37.95,21.53c0.1,0.03,0.16,0.14,0.14,0.24c-0.03,0.1-0.13,0.17-0.24,0.14c-0.1-0.03-0.16-0.14-0.14-0.24
		C37.74,21.57,37.85,21.5,37.95,21.53z"/>
	<path class="st1" d="M38.56,28.42c0.12,0.03,0.2,0.16,0.16,0.29c-0.03,0.13-0.16,0.2-0.28,0.16c-0.12-0.03-0.2-0.16-0.16-0.29
		C38.31,28.46,38.44,28.39,38.56,28.42z"/>
	<path class="st1" d="M27.89,12.99c0.07,0.02,0.1,0.09,0.09,0.15c-0.02,0.07-0.09,0.11-0.15,0.09c-0.06-0.02-0.1-0.09-0.09-0.15
		C27.76,13.01,27.83,12.97,27.89,12.99z"/>
	<path class="st1" d="M54.22,12.68c0.24,0.07,0.39,0.32,0.32,0.57c-0.07,0.25-0.32,0.39-0.56,0.33c-0.24-0.07-0.39-0.32-0.32-0.57
		C53.72,12.75,53.97,12.61,54.22,12.68z"/>
	<path class="st1" d="M52.52,19.62c0.27,0.07,0.42,0.35,0.35,0.62c-0.07,0.27-0.35,0.43-0.61,0.36c-0.27-0.07-0.42-0.35-0.35-0.62
		C51.98,19.7,52.25,19.54,52.52,19.62z"/>
	<path class="st1" d="M27.95,12.79c0.17,0.05,0.28,0.23,0.23,0.41c-0.05,0.18-0.23,0.28-0.4,0.23s-0.28-0.23-0.23-0.41
		C27.59,12.84,27.77,12.74,27.95,12.79z"/>
	<path class="st1" d="M27.88,13.04c0.04,0.01,0.06,0.05,0.05,0.09c-0.01,0.04-0.05,0.06-0.09,0.05c-0.04-0.01-0.06-0.05-0.05-0.09
		C27.8,13.05,27.84,13.03,27.88,13.04z"/>
	<path class="st1" d="M38.55,28.48c0.09,0.03,0.14,0.12,0.12,0.21c-0.02,0.09-0.12,0.15-0.21,0.12c-0.09-0.03-0.14-0.12-0.12-0.21
		C38.36,28.51,38.46,28.46,38.55,28.48z"/>
	<path class="st1" d="M52.42,19.99c0.07,0.02,0.11,0.09,0.09,0.16c-0.02,0.07-0.09,0.11-0.15,0.09c-0.07-0.02-0.11-0.09-0.09-0.16
		C52.29,20.01,52.35,19.97,52.42,19.99z"/>
	<path class="st1" d="M27.92,12.88c0.13,0.03,0.2,0.17,0.16,0.29c-0.03,0.13-0.16,0.2-0.29,0.17c-0.13-0.03-0.2-0.17-0.16-0.29
		C27.67,12.92,27.8,12.84,27.92,12.88z"/>
	<path class="st1" d="M34.11,6.64c0.07,0.02,0.11,0.1,0.09,0.17c-0.02,0.07-0.09,0.12-0.17,0.1c-0.07-0.02-0.11-0.1-0.09-0.17
		C33.97,6.67,34.04,6.62,34.11,6.64z"/>
	<path class="st1" d="M53.38,4.63c0.1,0.03,0.15,0.13,0.13,0.22c-0.03,0.1-0.12,0.15-0.22,0.13c-0.1-0.03-0.15-0.13-0.13-0.22
		C53.18,4.66,53.28,4.6,53.38,4.63z"/>
	<path class="st1" d="M54.12,13.03c0.05,0.01,0.08,0.06,0.06,0.11c-0.01,0.05-0.06,0.08-0.11,0.06c-0.05-0.01-0.08-0.06-0.06-0.11
		C54.02,13.05,54.07,13.02,54.12,13.03z"/>
	<path class="st1" d="M34.14,6.53c0.13,0.04,0.21,0.17,0.17,0.31c-0.04,0.13-0.17,0.21-0.3,0.18c-0.13-0.04-0.21-0.17-0.17-0.31
		C33.88,6.58,34.01,6.5,34.14,6.53z"/>
	<path class="st1" d="M34.16,6.48c0.16,0.04,0.25,0.21,0.21,0.38C34.33,7.02,34.16,7.12,34,7.07c-0.16-0.04-0.25-0.21-0.21-0.38
		C33.83,6.53,34,6.44,34.16,6.48z"/>
	<path class="st1" d="M27.93,12.86c0.14,0.04,0.22,0.18,0.18,0.32c-0.04,0.14-0.18,0.22-0.32,0.18c-0.14-0.04-0.22-0.18-0.18-0.32
		C27.65,12.9,27.79,12.82,27.93,12.86z"/>
	<path class="st1" d="M54.16,12.91c0.12,0.03,0.19,0.16,0.15,0.28c-0.03,0.12-0.15,0.19-0.27,0.16c-0.12-0.03-0.19-0.16-0.15-0.28
		C53.92,12.94,54.04,12.87,54.16,12.91z"/>
	<path class="st1" d="M34.13,6.58c0.11,0.03,0.17,0.14,0.14,0.25C34.24,6.94,34.13,7,34.03,6.97c-0.11-0.03-0.17-0.14-0.14-0.25
		C33.91,6.61,34.02,6.55,34.13,6.58z"/>
	<path class="st1" d="M53.36,4.67c0.07,0.02,0.11,0.1,0.09,0.17c-0.02,0.07-0.09,0.12-0.17,0.1s-0.11-0.1-0.09-0.17
		C53.22,4.7,53.29,4.65,53.36,4.67z"/>
	<path class="st1" d="M34.17,6.44c0.19,0.05,0.29,0.25,0.24,0.43c-0.05,0.19-0.24,0.3-0.43,0.25c-0.18-0.05-0.29-0.25-0.24-0.43
		C33.79,6.49,33.99,6.38,34.17,6.44z"/>
	<path class="st1" d="M53.37,4.65c0.08,0.02,0.13,0.11,0.11,0.19c-0.02,0.08-0.11,0.13-0.19,0.11c-0.08-0.02-0.13-0.11-0.11-0.19
		C53.2,4.68,53.29,4.63,53.37,4.65z"/>
	<path class="st1" d="M41.91,46.46c0.12,0.03,0.2,0.16,0.16,0.29c-0.03,0.13-0.16,0.2-0.28,0.17c-0.12-0.03-0.2-0.16-0.16-0.29
		C41.66,46.5,41.79,46.43,41.91,46.46z"/>
	<path class="st1" d="M53.81,56.54c0.05,0.01,0.08,0.07,0.07,0.12c-0.01,0.05-0.07,0.08-0.12,0.07c-0.05-0.01-0.08-0.07-0.07-0.12
		C53.7,56.55,53.75,56.52,53.81,56.54z"/>
	<path class="st1" d="M53.12,53.24c0.11,0.03,0.18,0.15,0.15,0.27c-0.03,0.12-0.15,0.18-0.26,0.15c-0.11-0.03-0.18-0.15-0.15-0.27
		C52.89,53.27,53.01,53.2,53.12,53.24z"/>
	<path class="st1" d="M41.88,46.56c0.07,0.02,0.11,0.09,0.09,0.16c-0.02,0.07-0.09,0.11-0.16,0.09c-0.07-0.02-0.11-0.09-0.09-0.16
		C41.75,46.58,41.82,46.54,41.88,46.56z"/>
	<path class="st1" d="M37.96,21.49c0.13,0.04,0.21,0.17,0.17,0.3c-0.04,0.13-0.17,0.21-0.3,0.17c-0.13-0.04-0.2-0.17-0.17-0.3
		C37.7,21.53,37.83,21.45,37.96,21.49z"/>
	<path class="st1" d="M47.51,41.23c0.07,0.02,0.12,0.1,0.1,0.17c-0.02,0.08-0.1,0.12-0.17,0.1c-0.07-0.02-0.12-0.1-0.1-0.17
		C47.36,41.25,47.44,41.21,47.51,41.23z"/>
	<path class="st1" d="M53.84,56.41c0.12,0.03,0.19,0.16,0.16,0.28c-0.03,0.12-0.15,0.19-0.27,0.16c-0.12-0.03-0.19-0.16-0.16-0.28
		C53.6,56.45,53.72,56.38,53.84,56.41z"/>
	<path class="st1" d="M37.99,21.39c0.18,0.05,0.29,0.24,0.24,0.42c-0.05,0.18-0.24,0.29-0.42,0.24c-0.18-0.05-0.29-0.24-0.24-0.42
		C37.62,21.45,37.81,21.34,37.99,21.39z"/>
	<path class="st1" d="M37.96,21.48c0.13,0.04,0.21,0.18,0.18,0.31c-0.04,0.14-0.17,0.22-0.31,0.18c-0.13-0.04-0.21-0.18-0.18-0.31
		C37.69,21.52,37.83,21.44,37.96,21.48z"/>
	<path class="st1" d="M41.94,46.36c0.18,0.05,0.28,0.23,0.23,0.41c-0.05,0.18-0.23,0.28-0.41,0.24c-0.18-0.05-0.28-0.23-0.23-0.41
		C41.58,46.42,41.76,46.32,41.94,46.36z"/>
	<path class="st1" d="M53.86,56.33c0.16,0.05,0.26,0.22,0.22,0.38c-0.04,0.17-0.21,0.26-0.38,0.22c-0.16-0.05-0.26-0.22-0.22-0.38
		C53.53,56.38,53.7,56.28,53.86,56.33z"/>
	<path class="st1" d="M38,21.34c0.21,0.06,0.33,0.27,0.27,0.48c-0.06,0.21-0.27,0.33-0.48,0.28c-0.21-0.06-0.33-0.27-0.27-0.48
		C37.58,21.41,37.79,21.29,38,21.34z"/>
	<path class="st1" d="M52.46,19.86c0.13,0.04,0.21,0.18,0.18,0.32c-0.04,0.14-0.18,0.22-0.31,0.18c-0.13-0.04-0.21-0.18-0.18-0.32
		C52.18,19.9,52.32,19.82,52.46,19.86z"/>
	<path class="st1" d="M58.53,27.71c0.09,0.02,0.14,0.12,0.12,0.21c-0.02,0.09-0.12,0.15-0.21,0.12c-0.09-0.02-0.14-0.12-0.12-0.21
		C58.34,27.74,58.44,27.68,58.53,27.71z"/>
	<path class="st1" d="M47.5,41.26c0.06,0.02,0.09,0.08,0.08,0.14c-0.02,0.06-0.08,0.09-0.14,0.08c-0.06-0.02-0.09-0.08-0.08-0.14
		C47.38,41.28,47.44,41.24,47.5,41.26z"/>
	<path class="st1" d="M52.45,19.86c0.13,0.04,0.21,0.18,0.18,0.31c-0.04,0.14-0.17,0.22-0.31,0.18c-0.13-0.04-0.21-0.18-0.18-0.31
		C52.18,19.91,52.32,19.83,52.45,19.86z"/>
	<path class="st1" d="M52.46,19.85c0.14,0.04,0.23,0.19,0.19,0.34c-0.04,0.14-0.19,0.23-0.33,0.19c-0.14-0.04-0.23-0.19-0.19-0.33
		C52.17,19.89,52.32,19.81,52.46,19.85z"/>
	<path class="st1" d="M37.93,21.6c0.06,0.02,0.1,0.09,0.09,0.15c-0.02,0.07-0.08,0.1-0.15,0.09c-0.06-0.02-0.1-0.09-0.09-0.15
		C37.8,21.62,37.86,21.59,37.93,21.6z"/>
	<path class="st1" d="M47.51,41.23c0.08,0.02,0.12,0.1,0.1,0.18c-0.02,0.08-0.1,0.12-0.17,0.1c-0.08-0.02-0.12-0.1-0.1-0.18
		C47.36,41.25,47.44,41.21,47.51,41.23z"/>
	<path class="st1" d="M52.43,19.95c0.09,0.02,0.14,0.11,0.11,0.2c-0.02,0.09-0.11,0.14-0.2,0.12c-0.09-0.02-0.14-0.11-0.11-0.2
		C52.26,19.98,52.34,19.93,52.43,19.95z"/>
	<path class="st1" d="M54.16,12.89c0.13,0.04,0.2,0.17,0.17,0.3c-0.04,0.13-0.17,0.21-0.3,0.17c-0.13-0.04-0.2-0.17-0.17-0.3
		C53.9,12.93,54.03,12.85,54.16,12.89z"/>
	<path class="st1" d="M55.31,20.09c0.13,0.04,0.2,0.17,0.17,0.3c-0.03,0.13-0.17,0.21-0.3,0.17c-0.13-0.04-0.2-0.17-0.17-0.3
		C55.05,20.13,55.18,20.05,55.31,20.09z"/>
	<path class="st1" d="M58.54,27.67c0.11,0.03,0.17,0.15,0.14,0.26c-0.03,0.11-0.14,0.18-0.25,0.15c-0.11-0.03-0.17-0.15-0.14-0.26
		C58.31,27.71,58.43,27.64,58.54,27.67z"/>
	<path class="st1" d="M54.14,12.97c0.08,0.02,0.13,0.11,0.11,0.2c-0.02,0.09-0.11,0.14-0.19,0.11c-0.08-0.02-0.13-0.11-0.11-0.2
		C53.97,13,54.06,12.95,54.14,12.97z"/>
	<path class="st1" d="M54.13,13.02c0.06,0.02,0.09,0.08,0.07,0.13c-0.02,0.06-0.07,0.09-0.13,0.08c-0.06-0.02-0.09-0.08-0.07-0.13
		C54.01,13.04,54.07,13,54.13,13.02z"/>
	<path class="st1" d="M52.43,19.95c0.09,0.02,0.14,0.12,0.12,0.2c-0.02,0.09-0.11,0.14-0.2,0.12c-0.09-0.02-0.14-0.12-0.12-0.21
		C52.25,19.98,52.34,19.92,52.43,19.95z"/>
	<path class="st1" d="M58.58,27.51c0.2,0.05,0.31,0.26,0.26,0.46s-0.26,0.32-0.45,0.26c-0.2-0.05-0.31-0.26-0.26-0.46
		C58.18,27.57,58.38,27.46,58.58,27.51z"/>
	<path class="st1" d="M54.15,12.94c0.1,0.03,0.16,0.13,0.13,0.24c-0.03,0.1-0.13,0.16-0.23,0.13c-0.1-0.03-0.16-0.13-0.13-0.24
		C53.94,12.97,54.05,12.91,54.15,12.94z"/>
	<path class="st1" d="M53.38,4.63c0.1,0.03,0.15,0.13,0.13,0.23c-0.03,0.1-0.13,0.16-0.23,0.13c-0.1-0.03-0.16-0.13-0.13-0.23
		C53.18,4.66,53.28,4.6,53.38,4.63z"/>
	<path class="st1" d="M55.29,20.18c0.08,0.02,0.13,0.11,0.11,0.19c-0.02,0.08-0.11,0.13-0.19,0.11c-0.08-0.02-0.13-0.11-0.11-0.19
		C55.13,20.2,55.21,20.15,55.29,20.18z"/>
	<path class="st1" d="M53.4,4.55c0.14,0.04,0.22,0.18,0.18,0.33c-0.04,0.14-0.18,0.22-0.32,0.19c-0.14-0.04-0.22-0.18-0.18-0.33
		C53.11,4.59,53.26,4.51,53.4,4.55z"/>
	<path class="st1" d="M53.45,4.36c0.24,0.07,0.39,0.32,0.32,0.57c-0.07,0.25-0.32,0.39-0.56,0.33c-0.24-0.07-0.39-0.32-0.32-0.57
		C52.95,4.43,53.21,4.29,53.45,4.36z"/>
	<path class="st1" d="M54.14,12.97c0.09,0.02,0.14,0.11,0.11,0.2c-0.02,0.09-0.11,0.14-0.2,0.11c-0.08-0.02-0.14-0.11-0.11-0.2
		C53.97,12.99,54.05,12.94,54.14,12.97z"/>
	<path class="st1" d="M55.3,20.13c0.11,0.03,0.17,0.14,0.14,0.25c-0.03,0.11-0.14,0.17-0.25,0.14c-0.11-0.03-0.17-0.14-0.14-0.25
		C55.08,20.16,55.19,20.1,55.3,20.13z"/>
	<path class="st1" d="M53.37,4.66c0.08,0.02,0.13,0.11,0.1,0.19c-0.02,0.08-0.1,0.13-0.18,0.11c-0.08-0.02-0.13-0.11-0.11-0.19
		C53.2,4.68,53.29,4.63,53.37,4.66z"/>
	<path class="st1" d="M53.37,4.65c0.09,0.02,0.14,0.11,0.11,0.2c-0.02,0.09-0.11,0.14-0.2,0.11c-0.09-0.02-0.14-0.11-0.11-0.2
		C53.2,4.68,53.29,4.62,53.37,4.65z"/>
	<path class="st1" d="M53.11,53.28c0.09,0.03,0.14,0.12,0.12,0.21c-0.02,0.09-0.12,0.15-0.21,0.12c-0.09-0.03-0.15-0.12-0.12-0.21
		C52.93,53.31,53.02,53.25,53.11,53.28z"/>
	<path class="st1" d="M56.86,48.39c0.18,0.05,0.29,0.24,0.24,0.43c-0.05,0.18-0.24,0.29-0.42,0.24c-0.18-0.05-0.29-0.24-0.24-0.43
		C56.49,48.45,56.67,48.34,56.86,48.39z"/>
	<path class="st1" d="M60.06,66.89c0.16,0.04,0.26,0.21,0.21,0.38c-0.04,0.16-0.21,0.26-0.37,0.21c-0.16-0.04-0.26-0.21-0.21-0.38
		C59.73,66.94,59.9,66.85,60.06,66.89z"/>
	<path class="st1" d="M53.15,53.12c0.18,0.05,0.28,0.23,0.23,0.41c-0.05,0.18-0.23,0.28-0.41,0.24c-0.18-0.05-0.28-0.23-0.23-0.41
		C52.8,53.18,52.98,53.07,53.15,53.12z"/>
	<path class="st1" d="M53.84,56.39c0.13,0.04,0.2,0.17,0.17,0.3c-0.04,0.13-0.17,0.21-0.3,0.17c-0.13-0.04-0.2-0.17-0.17-0.3
		C53.58,56.44,53.72,56.36,53.84,56.39z"/>
	<path class="st1" d="M60.97,46.65c0.19,0.05,0.3,0.25,0.25,0.44c-0.05,0.19-0.25,0.3-0.44,0.25c-0.19-0.05-0.3-0.25-0.25-0.44
		C60.58,46.71,60.78,46.6,60.97,46.65z"/>
	<path class="st1" d="M56.84,48.44c0.16,0.04,0.25,0.21,0.21,0.37c-0.04,0.16-0.2,0.25-0.36,0.21c-0.16-0.04-0.25-0.21-0.21-0.37
		C56.53,48.49,56.69,48.39,56.84,48.44z"/>
	<path class="st1" d="M53.86,56.34c0.16,0.04,0.25,0.21,0.21,0.37c-0.04,0.16-0.21,0.26-0.37,0.21c-0.16-0.04-0.25-0.21-0.21-0.37
		C53.54,56.39,53.7,56.29,53.86,56.34z"/>
	<path class="st1" d="M53.86,56.33c0.16,0.04,0.26,0.21,0.21,0.38c-0.04,0.17-0.21,0.26-0.37,0.22c-0.16-0.04-0.26-0.21-0.21-0.38
		S53.7,56.29,53.86,56.33z"/>
	<path class="st1" d="M53.18,53.04c0.22,0.06,0.35,0.29,0.29,0.52c-0.06,0.22-0.29,0.35-0.51,0.29c-0.22-0.06-0.35-0.29-0.29-0.52
		C52.73,53.11,52.96,52.98,53.18,53.04z"/>
	<path class="st1" d="M56.84,48.45c0.15,0.04,0.24,0.2,0.19,0.35c-0.04,0.15-0.19,0.24-0.34,0.2c-0.15-0.04-0.24-0.2-0.19-0.35
		C56.54,48.5,56.69,48.41,56.84,48.45z"/>
	<path class="st1" d="M53.88,56.27c0.2,0.05,0.31,0.26,0.26,0.46c-0.05,0.2-0.26,0.32-0.46,0.26c-0.2-0.06-0.31-0.26-0.26-0.46
		C53.48,56.33,53.68,56.21,53.88,56.27z"/>
	<path class="st1" d="M47.53,41.16c0.12,0.03,0.18,0.15,0.15,0.27c-0.03,0.12-0.15,0.19-0.27,0.15c-0.12-0.03-0.18-0.15-0.15-0.27
		C47.3,41.19,47.42,41.12,47.53,41.16z"/>
	<path class="st1" d="M65.14,35.37c0.06,0.02,0.09,0.07,0.07,0.13c-0.02,0.06-0.07,0.09-0.13,0.07c-0.06-0.02-0.09-0.07-0.07-0.13
		C65.02,35.39,65.08,35.36,65.14,35.37z"/>
	<path class="st1" d="M60.93,46.78c0.12,0.03,0.19,0.16,0.16,0.28c-0.03,0.12-0.16,0.19-0.28,0.16c-0.12-0.03-0.19-0.16-0.16-0.28
		C60.69,46.81,60.81,46.74,60.93,46.78z"/>
	<path class="st1" d="M47.61,40.87c0.27,0.07,0.43,0.36,0.35,0.63c-0.07,0.27-0.35,0.43-0.62,0.36c-0.27-0.07-0.43-0.36-0.35-0.63
		C47.06,40.96,47.34,40.8,47.61,40.87z"/>
	<path class="st1" d="M47.54,41.13c0.13,0.04,0.21,0.17,0.17,0.3c-0.04,0.13-0.17,0.21-0.3,0.17c-0.13-0.04-0.21-0.17-0.17-0.31
		C47.27,41.17,47.41,41.09,47.54,41.13z"/>
	<path class="st1" d="M53.99,55.86c0.42,0.12,0.67,0.55,0.55,0.98c-0.11,0.42-0.55,0.68-0.97,0.56c-0.42-0.12-0.67-0.56-0.55-0.98
		C53.14,56,53.57,55.74,53.99,55.86z"/>
	<path class="st1" d="M60.92,46.82c0.1,0.03,0.15,0.13,0.13,0.23c-0.03,0.1-0.13,0.16-0.23,0.13c-0.1-0.03-0.15-0.13-0.13-0.23
		C60.73,46.85,60.83,46.79,60.92,46.82z"/>
	<path class="st1" d="M47.51,41.23c0.08,0.02,0.12,0.1,0.1,0.18c-0.02,0.08-0.1,0.12-0.17,0.1c-0.07-0.02-0.12-0.1-0.1-0.18
		C47.36,41.25,47.44,41.21,47.51,41.23z"/>
	<path class="st1" d="M58.54,27.67c0.11,0.03,0.17,0.15,0.14,0.26c-0.03,0.11-0.14,0.18-0.25,0.15c-0.11-0.03-0.18-0.15-0.15-0.26
		C58.31,27.7,58.43,27.64,58.54,27.67z"/>
	<path class="st1" d="M67.47,15.28c0.17,0.05,0.28,0.23,0.23,0.41c-0.05,0.18-0.23,0.28-0.4,0.23c-0.17-0.05-0.28-0.23-0.23-0.41
		C67.12,15.34,67.3,15.23,67.47,15.28z"/>
	<path class="st1" d="M65.17,35.25c0.12,0.03,0.19,0.16,0.16,0.28c-0.03,0.12-0.16,0.19-0.28,0.16c-0.12-0.03-0.19-0.16-0.16-0.28
		C64.93,35.29,65.05,35.22,65.17,35.25z"/>
	<path class="st1" d="M58.54,27.66c0.12,0.03,0.19,0.16,0.15,0.27c-0.03,0.12-0.15,0.19-0.27,0.16c-0.12-0.03-0.19-0.16-0.15-0.27
		C58.3,27.69,58.42,27.62,58.54,27.66z"/>
	<path class="st1" d="M58.65,27.25c0.34,0.09,0.53,0.45,0.44,0.79c-0.09,0.34-0.44,0.54-0.78,0.45c-0.34-0.09-0.53-0.45-0.44-0.79
		C57.96,27.36,58.31,27.16,58.65,27.25z"/>
	<path class="st1" d="M47.55,41.09c0.15,0.04,0.24,0.2,0.2,0.36c-0.04,0.15-0.2,0.25-0.35,0.2c-0.15-0.04-0.24-0.2-0.2-0.36
		C47.24,41.14,47.4,41.05,47.55,41.09z"/>
	<path class="st1" d="M65.14,35.36c0.06,0.02,0.1,0.09,0.08,0.15c-0.02,0.07-0.08,0.1-0.15,0.09c-0.07-0.02-0.1-0.09-0.08-0.15
		C65.01,35.38,65.08,35.34,65.14,35.36z"/>
	<path class="st1" d="M58.55,27.63c0.13,0.04,0.21,0.17,0.17,0.3c-0.04,0.13-0.17,0.21-0.3,0.17c-0.13-0.04-0.21-0.17-0.17-0.3
		C58.28,27.68,58.42,27.6,58.55,27.63z"/>
	<path class="st1" d="M55.35,19.94c0.21,0.06,0.33,0.28,0.28,0.49c-0.06,0.21-0.27,0.34-0.48,0.28c-0.21-0.06-0.33-0.28-0.28-0.49
		C54.93,20.01,55.14,19.88,55.35,19.94z"/>
	<path class="st1" d="M67.46,15.32c0.15,0.04,0.24,0.2,0.2,0.35c-0.04,0.15-0.2,0.24-0.35,0.2c-0.15-0.04-0.24-0.2-0.2-0.35
		C67.16,15.37,67.31,15.28,67.46,15.32z"/>
	<path class="st1" d="M55.29,20.19c0.08,0.02,0.12,0.1,0.1,0.18c-0.02,0.08-0.1,0.12-0.18,0.1c-0.08-0.02-0.12-0.1-0.1-0.18
		C55.13,20.21,55.21,20.16,55.29,20.19z"/>
	<path class="st1" d="M55.37,19.87c0.25,0.07,0.39,0.33,0.33,0.58c-0.07,0.25-0.32,0.4-0.57,0.33c-0.25-0.07-0.39-0.33-0.33-0.58
		C54.87,19.95,55.12,19.8,55.37,19.87z"/>
	<path class="st1" d="M58.51,27.76c0.06,0.02,0.1,0.08,0.08,0.15c-0.02,0.06-0.08,0.1-0.14,0.08c-0.06-0.02-0.1-0.08-0.08-0.15
		C58.39,27.78,58.45,27.74,58.51,27.76z"/>
	<path class="st1" d="M67.45,15.37c0.13,0.04,0.2,0.17,0.17,0.3c-0.03,0.13-0.17,0.21-0.29,0.17c-0.13-0.04-0.2-0.17-0.17-0.3
		C67.19,15.41,67.32,15.33,67.45,15.37z"/>
	<path class="st1" d="M55.3,20.13c0.1,0.03,0.16,0.14,0.14,0.24c-0.03,0.11-0.14,0.17-0.24,0.14c-0.1-0.03-0.16-0.14-0.14-0.24
		C55.09,20.17,55.2,20.11,55.3,20.13z"/>
	<path class="st1" d="M55.29,20.16c0.09,0.02,0.14,0.12,0.12,0.21c-0.02,0.09-0.12,0.14-0.21,0.12c-0.09-0.02-0.14-0.12-0.12-0.21
		C55.11,20.19,55.2,20.13,55.29,20.16z"/>
	<path class="st1" d="M56.83,48.48c0.13,0.04,0.21,0.18,0.18,0.32c-0.04,0.14-0.18,0.22-0.31,0.18c-0.13-0.04-0.21-0.18-0.18-0.31
		C56.56,48.52,56.7,48.44,56.83,48.48z"/>
	<path class="st1" d="M67.44,40.5c0.05,0.02,0.09,0.07,0.07,0.13c-0.01,0.06-0.07,0.09-0.13,0.07c-0.05-0.02-0.09-0.07-0.07-0.13
		C67.33,40.51,67.38,40.48,67.44,40.5z"/>
	<path class="st1" d="M68.56,72.36c0.24,0.07,0.38,0.32,0.31,0.56c-0.07,0.24-0.31,0.39-0.55,0.32c-0.24-0.07-0.38-0.32-0.31-0.56
		C68.07,72.44,68.32,72.3,68.56,72.36z"/>
	<path class="st1" d="M56.79,48.65c0.04,0.01,0.06,0.05,0.05,0.09c-0.01,0.04-0.05,0.06-0.09,0.05c-0.04-0.01-0.06-0.05-0.05-0.09
		C56.71,48.66,56.75,48.64,56.79,48.65z"/>
	<path class="st1" d="M60.96,46.7c0.16,0.04,0.26,0.21,0.21,0.38c-0.04,0.16-0.21,0.26-0.37,0.22c-0.16-0.04-0.26-0.21-0.21-0.38
		C60.63,46.75,60.79,46.65,60.96,46.7z"/>
	<path class="st1" d="M67.44,40.5c0.05,0.02,0.09,0.07,0.07,0.13c-0.01,0.06-0.07,0.09-0.12,0.07c-0.05-0.02-0.09-0.07-0.07-0.13
		C67.33,40.52,67.39,40.48,67.44,40.5z"/>
	<path class="st1" d="M60.98,46.6c0.21,0.06,0.34,0.28,0.28,0.5c-0.06,0.22-0.28,0.34-0.49,0.29c-0.21-0.06-0.34-0.28-0.28-0.5
		C60.55,46.67,60.77,46.55,60.98,46.6z"/>
	<path class="st1" d="M60.91,46.88c0.06,0.02,0.1,0.09,0.08,0.15c-0.02,0.06-0.08,0.1-0.15,0.08c-0.06-0.02-0.1-0.08-0.08-0.15
		C60.78,46.9,60.84,46.86,60.91,46.88z"/>
	<path class="st1" d="M56.84,48.45c0.15,0.04,0.24,0.2,0.2,0.35c-0.04,0.15-0.2,0.24-0.35,0.2c-0.15-0.04-0.24-0.2-0.2-0.35
		C56.53,48.49,56.69,48.4,56.84,48.45z"/>
	<path class="st1" d="M67.44,40.49c0.06,0.02,0.09,0.08,0.08,0.14c-0.02,0.06-0.08,0.1-0.13,0.08c-0.06-0.02-0.09-0.08-0.08-0.14
		C67.32,40.51,67.38,40.47,67.44,40.49z"/>
	<path class="st1" d="M60.96,46.7c0.16,0.05,0.26,0.22,0.22,0.38c-0.04,0.17-0.21,0.26-0.38,0.22c-0.16-0.05-0.26-0.22-0.22-0.38
		C60.62,46.75,60.79,46.65,60.96,46.7z"/>
	<path class="st1" d="M65.17,35.26c0.12,0.03,0.19,0.16,0.16,0.28c-0.03,0.12-0.16,0.19-0.27,0.16c-0.12-0.03-0.19-0.16-0.16-0.28
		C64.93,35.29,65.05,35.22,65.17,35.26z"/>
	<path class="st1" d="M70.83,18.5c0.09,0.02,0.14,0.12,0.12,0.21c-0.02,0.09-0.12,0.14-0.2,0.12c-0.09-0.02-0.14-0.12-0.12-0.21
		C70.65,18.53,70.74,18.47,70.83,18.5z"/>
	<path class="st1" d="M65.17,35.24c0.13,0.04,0.21,0.17,0.17,0.3c-0.04,0.13-0.17,0.21-0.3,0.17c-0.13-0.04-0.21-0.17-0.17-0.3
		C64.91,35.28,65.04,35.2,65.17,35.24z"/>
	<path class="st1" d="M65.17,35.24c0.13,0.04,0.2,0.17,0.17,0.3c-0.04,0.13-0.17,0.21-0.3,0.17c-0.13-0.04-0.2-0.17-0.17-0.3
		C64.91,35.28,65.05,35.2,65.17,35.24z"/>
	<path class="st1" d="M60.95,46.71c0.16,0.04,0.25,0.21,0.21,0.37c-0.04,0.16-0.21,0.25-0.36,0.21c-0.16-0.04-0.25-0.21-0.21-0.37
		C60.63,46.76,60.8,46.66,60.95,46.71z"/>
	<path class="st1" d="M65.21,35.12c0.19,0.05,0.3,0.25,0.25,0.45c-0.05,0.19-0.25,0.31-0.44,0.26c-0.19-0.05-0.3-0.25-0.25-0.45
		C64.82,35.18,65.01,35.07,65.21,35.12z"/>
	<path class="st1" d="M67.43,15.43c0.09,0.03,0.14,0.12,0.12,0.21c-0.03,0.09-0.12,0.15-0.21,0.12c-0.09-0.03-0.14-0.12-0.12-0.21
		C67.25,15.46,67.34,15.41,67.43,15.43z"/>
	<path class="st1" d="M76.08,15.49c0.11,0.03,0.17,0.14,0.14,0.25c-0.03,0.11-0.14,0.17-0.25,0.14c-0.11-0.03-0.17-0.14-0.14-0.25
		C75.87,15.52,75.98,15.46,76.08,15.49z"/>
	<path class="st1" d="M70.87,18.34c0.18,0.05,0.28,0.23,0.23,0.41c-0.05,0.18-0.23,0.28-0.41,0.23c-0.17-0.05-0.28-0.23-0.23-0.41
		C70.51,18.39,70.7,18.29,70.87,18.34z"/>
	<path class="st1" d="M67.42,15.48c0.06,0.02,0.1,0.08,0.08,0.15c-0.02,0.06-0.08,0.1-0.14,0.08c-0.06-0.02-0.1-0.08-0.08-0.15
		C67.29,15.5,67.36,15.47,67.42,15.48z"/>
	<path class="st1" d="M67.49,15.23c0.2,0.06,0.32,0.27,0.27,0.48c-0.06,0.21-0.27,0.33-0.47,0.27c-0.2-0.06-0.32-0.27-0.27-0.48
		C67.08,15.29,67.28,15.17,67.49,15.23z"/>
	<path class="st1" d="M65.2,35.15c0.17,0.05,0.28,0.23,0.23,0.41c-0.05,0.18-0.23,0.28-0.4,0.23c-0.17-0.05-0.28-0.23-0.23-0.41
		C64.84,35.21,65.02,35.1,65.2,35.15z"/>
	<path class="st1" d="M70.87,18.33c0.18,0.05,0.28,0.23,0.23,0.41c-0.05,0.18-0.23,0.29-0.41,0.24c-0.18-0.05-0.28-0.23-0.23-0.41
		C70.51,18.39,70.7,18.29,70.87,18.33z"/>
	<path class="st1" d="M67.44,15.4c0.11,0.03,0.17,0.14,0.14,0.25c-0.03,0.11-0.14,0.17-0.25,0.14c-0.11-0.03-0.17-0.14-0.14-0.25
		C67.22,15.44,67.33,15.37,67.44,15.4z"/>
	<path class="st1" d="M77.61,2.84c0.07,0.02,0.11,0.1,0.09,0.17c-0.02,0.07-0.09,0.12-0.17,0.1c-0.07-0.02-0.11-0.09-0.09-0.17
		C77.46,2.86,77.54,2.82,77.61,2.84z"/>
	<path class="st1" d="M76.1,15.45c0.13,0.04,0.21,0.17,0.17,0.31c-0.04,0.13-0.17,0.21-0.3,0.17c-0.13-0.04-0.21-0.17-0.17-0.31
		C75.83,15.49,75.97,15.41,76.1,15.45z"/>
	<path class="st1" d="M67.44,15.4c0.11,0.03,0.17,0.14,0.14,0.25c-0.03,0.11-0.14,0.17-0.25,0.14c-0.11-0.03-0.17-0.14-0.14-0.25
		C67.22,15.44,67.33,15.37,67.44,15.4z"/>
	<path class="st1" d="M76.09,15.48c0.11,0.03,0.18,0.15,0.15,0.27c-0.03,0.12-0.15,0.18-0.26,0.15c-0.11-0.03-0.18-0.15-0.15-0.27
		C75.86,15.51,75.97,15.45,76.09,15.48z"/>
	<path class="st1" d="M89.26,6.23c0.09,0.03,0.15,0.12,0.12,0.22c-0.03,0.09-0.12,0.15-0.21,0.12c-0.09-0.03-0.15-0.12-0.12-0.22
		C89.08,6.26,89.17,6.21,89.26,6.23z"/>
	<path class="st1" d="M77.67,2.61c0.19,0.05,0.31,0.26,0.25,0.45c-0.05,0.2-0.25,0.31-0.44,0.26c-0.19-0.05-0.31-0.26-0.25-0.45
		C77.28,2.68,77.48,2.56,77.67,2.61z"/>
	<path class="st1" d="M77.64,2.73c0.13,0.04,0.21,0.17,0.17,0.31c-0.04,0.13-0.17,0.21-0.3,0.17c-0.13-0.04-0.21-0.17-0.17-0.31
		C77.37,2.77,77.51,2.69,77.64,2.73z"/>
	<path class="st1" d="M89.28,6.18c0.12,0.03,0.19,0.16,0.16,0.28c-0.03,0.12-0.16,0.19-0.28,0.16C89.04,6.59,88.97,6.46,89,6.34
		C89.03,6.22,89.16,6.14,89.28,6.18z"/>
	<path class="st1" d="M89.34,5.95c0.24,0.07,0.39,0.32,0.32,0.57c-0.07,0.25-0.32,0.39-0.56,0.33c-0.24-0.07-0.39-0.32-0.32-0.57
		C88.84,6.03,89.1,5.88,89.34,5.95z"/>
	<path class="st1" d="M68.54,72.43c0.2,0.06,0.32,0.27,0.27,0.48c-0.06,0.21-0.27,0.33-0.47,0.27c-0.2-0.06-0.33-0.27-0.27-0.48
		C68.13,72.49,68.34,72.37,68.54,72.43z"/>
	<path class="st1" d="M90.78,47.73c0.24,0.07,0.38,0.31,0.31,0.55c-0.07,0.24-0.31,0.38-0.55,0.32c-0.24-0.07-0.38-0.31-0.31-0.55
		C90.29,47.81,90.54,47.67,90.78,47.73z"/>
	<path class="st1" d="M74.95,61.2c0.14,0.04,0.23,0.19,0.19,0.33c-0.04,0.15-0.19,0.23-0.33,0.19c-0.14-0.04-0.23-0.19-0.19-0.33
		C74.66,61.24,74.81,61.16,74.95,61.2z"/>
	<path class="st1" d="M68.57,72.34c0.25,0.07,0.4,0.34,0.33,0.59c-0.07,0.26-0.33,0.41-0.58,0.34c-0.25-0.07-0.4-0.34-0.33-0.59
		C68.05,72.42,68.31,72.27,68.57,72.34z"/>
	<path class="st1" d="M67.51,40.25c0.19,0.05,0.3,0.25,0.25,0.45c-0.05,0.19-0.25,0.31-0.44,0.25c-0.19-0.05-0.3-0.25-0.25-0.45
		C67.12,40.31,67.32,40.19,67.51,40.25z"/>
	<path class="st1" d="M90.72,40.75c0.09,0.03,0.15,0.12,0.12,0.22c-0.03,0.09-0.12,0.15-0.21,0.12c-0.09-0.03-0.15-0.12-0.12-0.22
		C90.53,40.78,90.63,40.72,90.72,40.75z"/>
	<path class="st1" d="M90.81,47.62c0.3,0.08,0.48,0.4,0.4,0.7c-0.08,0.31-0.39,0.49-0.69,0.4c-0.3-0.08-0.48-0.4-0.4-0.7
		C90.2,47.71,90.51,47.53,90.81,47.62z"/>
	<path class="st1" d="M67.48,40.34c0.14,0.04,0.22,0.18,0.18,0.32c-0.04,0.14-0.18,0.22-0.32,0.18c-0.14-0.04-0.22-0.18-0.18-0.32
		C67.2,40.39,67.34,40.31,67.48,40.34z"/>
	<path class="st1" d="M67.53,40.17c0.23,0.06,0.37,0.31,0.3,0.54c-0.06,0.24-0.3,0.37-0.53,0.31c-0.23-0.06-0.37-0.31-0.3-0.54
		C67.06,40.25,67.3,40.11,67.53,40.17z"/>
	<path class="st1" d="M68.47,72.69c0.06,0.02,0.1,0.08,0.08,0.14c-0.02,0.06-0.08,0.1-0.14,0.08c-0.06-0.02-0.1-0.08-0.08-0.14
		C68.35,72.71,68.41,72.67,68.47,72.69z"/>
	<path class="st1" d="M90.71,47.99c0.09,0.03,0.15,0.13,0.13,0.22c-0.03,0.1-0.12,0.15-0.22,0.13c-0.1-0.03-0.15-0.13-0.13-0.22
		C90.51,48.02,90.61,47.97,90.71,47.99z"/>
	<path class="st1" d="M67.49,40.29c0.17,0.05,0.26,0.22,0.22,0.39c-0.04,0.17-0.22,0.27-0.38,0.22c-0.17-0.05-0.26-0.22-0.22-0.39
		C67.16,40.35,67.33,40.25,67.49,40.29z"/>
	<path class="st1" d="M78.32,38.43c0.1,0.03,0.15,0.13,0.13,0.23c-0.03,0.1-0.13,0.16-0.22,0.13c-0.1-0.03-0.15-0.13-0.13-0.23
		C78.12,38.46,78.22,38.4,78.32,38.43z"/>
	<path class="st1" d="M90.75,40.63c0.16,0.04,0.25,0.21,0.21,0.37c-0.04,0.16-0.21,0.25-0.36,0.21c-0.16-0.04-0.25-0.21-0.21-0.37
		C90.43,40.68,90.6,40.59,90.75,40.63z"/>
	<path class="st1" d="M67.47,40.38c0.12,0.03,0.19,0.16,0.16,0.28c-0.03,0.12-0.15,0.19-0.27,0.16c-0.12-0.03-0.19-0.16-0.16-0.28
		C67.23,40.42,67.35,40.35,67.47,40.38z"/>
	<path class="st1" d="M90.78,40.53c0.21,0.06,0.34,0.28,0.28,0.5c-0.06,0.22-0.28,0.34-0.49,0.28c-0.21-0.06-0.34-0.28-0.28-0.5
		C90.35,40.6,90.57,40.47,90.78,40.53z"/>
	<path class="st1" d="M70.84,18.46c0.11,0.03,0.17,0.14,0.14,0.25c-0.03,0.11-0.14,0.17-0.25,0.14c-0.11-0.03-0.17-0.14-0.14-0.25
		C70.62,18.5,70.73,18.44,70.84,18.46z"/>
	<path class="st1" d="M91.47,30.58c0.15,0.04,0.23,0.19,0.19,0.34c-0.04,0.15-0.19,0.24-0.34,0.19c-0.15-0.04-0.23-0.19-0.19-0.34
		C91.17,30.63,91.32,30.54,91.47,30.58z"/>
	<path class="st1" d="M78.38,38.23c0.21,0.06,0.33,0.27,0.27,0.48c-0.06,0.21-0.27,0.33-0.47,0.27c-0.21-0.06-0.33-0.27-0.27-0.48
		C77.96,38.29,78.17,38.17,78.38,38.23z"/>
	<path class="st1" d="M70.85,18.41c0.14,0.04,0.22,0.18,0.18,0.32c-0.04,0.14-0.18,0.22-0.32,0.18c-0.14-0.04-0.22-0.18-0.18-0.32
		C70.57,18.45,70.71,18.37,70.85,18.41z"/>
	<path class="st1" d="M70.85,18.42c0.13,0.04,0.21,0.17,0.17,0.3c-0.04,0.13-0.17,0.21-0.3,0.17c-0.13-0.04-0.21-0.17-0.17-0.3
		C70.58,18.46,70.72,18.39,70.85,18.42z"/>
	<path class="st1" d="M70.91,18.2c0.25,0.07,0.4,0.33,0.33,0.59c-0.07,0.26-0.33,0.41-0.58,0.34c-0.25-0.07-0.4-0.34-0.33-0.59
		C70.4,18.28,70.66,18.13,70.91,18.2z"/>
	<path class="st1" d="M76.09,15.46c0.12,0.03,0.19,0.16,0.16,0.29c-0.03,0.12-0.16,0.2-0.28,0.16c-0.12-0.03-0.19-0.16-0.16-0.29
		C75.84,15.5,75.97,15.43,76.09,15.46z"/>
	<path class="st1" d="M99.25,5.22c0.12,0.03,0.19,0.16,0.16,0.28c-0.03,0.12-0.16,0.19-0.28,0.16c-0.12-0.03-0.19-0.16-0.16-0.28
		C99.01,5.26,99.14,5.19,99.25,5.22z"/>
	<path class="st1" d="M91.43,30.71c0.08,0.02,0.12,0.1,0.1,0.18c-0.02,0.08-0.1,0.12-0.18,0.1c-0.08-0.02-0.12-0.1-0.1-0.18
		C91.28,30.73,91.35,30.69,91.43,30.71z"/>
	<path class="st1" d="M76.1,15.45c0.13,0.04,0.21,0.17,0.17,0.3c-0.04,0.13-0.17,0.21-0.3,0.17c-0.13-0.04-0.21-0.17-0.17-0.3
		C75.83,15.49,75.97,15.41,76.1,15.45z"/>
	<path class="st1" d="M76.15,15.26c0.23,0.06,0.37,0.31,0.31,0.55c-0.06,0.24-0.3,0.38-0.54,0.31c-0.23-0.06-0.37-0.31-0.31-0.55
		C75.67,15.33,75.91,15.19,76.15,15.26z"/>
	<path class="st1" d="M70.83,18.48c0.1,0.03,0.16,0.13,0.13,0.23c-0.03,0.1-0.13,0.16-0.23,0.13c-0.1-0.03-0.16-0.13-0.13-0.23
		C70.63,18.51,70.73,18.45,70.83,18.48z"/>
	<path class="st1" d="M91.46,30.61c0.13,0.04,0.2,0.17,0.17,0.3c-0.04,0.13-0.17,0.21-0.3,0.17c-0.13-0.04-0.2-0.17-0.17-0.3
		C91.2,30.66,91.33,30.58,91.46,30.61z"/>
	<path class="st1" d="M76.12,15.35c0.19,0.05,0.29,0.25,0.24,0.43c-0.05,0.19-0.24,0.3-0.43,0.25c-0.19-0.05-0.29-0.25-0.24-0.43
		C75.75,15.41,75.94,15.29,76.12,15.35z"/>
	<path class="st1" d="M77.64,2.71c0.14,0.04,0.22,0.19,0.18,0.33c-0.04,0.14-0.18,0.23-0.32,0.19c-0.14-0.04-0.22-0.19-0.18-0.33
		C77.36,2.76,77.5,2.67,77.64,2.71z"/>
	<path class="st1" d="M99.26,5.19c0.14,0.04,0.22,0.18,0.18,0.32c-0.04,0.14-0.18,0.22-0.32,0.18c-0.14-0.04-0.22-0.18-0.18-0.32
		C98.98,5.23,99.13,5.15,99.26,5.19z"/>
	<path class="st1" d="M77.63,2.75c0.12,0.03,0.19,0.16,0.16,0.28c-0.03,0.12-0.16,0.19-0.27,0.16c-0.12-0.03-0.19-0.16-0.16-0.28
		C77.39,2.79,77.51,2.72,77.63,2.75z"/>
	<path class="st1" d="M77.65,2.68c0.16,0.04,0.25,0.21,0.21,0.37c-0.04,0.16-0.21,0.25-0.36,0.21c-0.16-0.04-0.25-0.21-0.21-0.37
		C77.33,2.73,77.49,2.64,77.65,2.68z"/>
	<path class="st1" d="M76.07,15.53c0.08,0.02,0.13,0.11,0.11,0.19c-0.02,0.08-0.11,0.13-0.19,0.11c-0.08-0.02-0.13-0.11-0.11-0.19
		C75.9,15.56,75.99,15.51,76.07,15.53z"/>
	<path class="st1" d="M99.26,5.21c0.13,0.04,0.2,0.17,0.17,0.3c-0.04,0.13-0.17,0.21-0.29,0.17c-0.13-0.04-0.2-0.17-0.17-0.3
		C99,5.25,99.13,5.17,99.26,5.21z"/>
	<path class="st1" d="M77.64,2.73c0.13,0.04,0.21,0.17,0.17,0.31c-0.04,0.13-0.17,0.21-0.3,0.17c-0.13-0.04-0.21-0.17-0.17-0.31
		C77.37,2.77,77.51,2.69,77.64,2.73z"/>
	<path class="st1" d="M89.29,6.14c0.14,0.04,0.23,0.19,0.19,0.33c-0.04,0.14-0.19,0.23-0.33,0.19C89,6.62,88.92,6.47,88.96,6.33
		C89,6.18,89.15,6.1,89.29,6.14z"/>
	<path class="st1" d="M89.25,6.28c0.07,0.02,0.1,0.09,0.09,0.15c-0.02,0.07-0.08,0.11-0.15,0.09c-0.07-0.02-0.1-0.09-0.09-0.15
		C89.12,6.3,89.19,6.26,89.25,6.28z"/>
	<path class="st1" d="M89.23,6.34c0.03,0.01,0.05,0.04,0.04,0.07c-0.01,0.03-0.04,0.05-0.07,0.04c-0.03-0.01-0.05-0.04-0.04-0.07
		C89.17,6.35,89.2,6.34,89.23,6.34z"/>
	<path class="st1" d="M77.66,2.65c0.17,0.05,0.27,0.23,0.23,0.4c-0.05,0.17-0.22,0.28-0.4,0.23c-0.17-0.05-0.27-0.23-0.23-0.4
		C77.31,2.71,77.49,2.6,77.66,2.65z"/>
	<path class="st1" d="M89.27,6.22c0.1,0.03,0.16,0.13,0.13,0.23c-0.03,0.1-0.13,0.16-0.23,0.13c-0.1-0.03-0.16-0.13-0.13-0.23
		C89.07,6.25,89.17,6.19,89.27,6.22z"/>
	<path class="st1" d="M89.32,6.03c0.2,0.06,0.32,0.27,0.27,0.47c-0.06,0.21-0.26,0.33-0.47,0.27c-0.2-0.06-0.32-0.27-0.27-0.47
		C88.91,6.09,89.12,5.97,89.32,6.03z"/>
	<path class="st1" d="M90.7,48.03c0.08,0.02,0.12,0.1,0.1,0.18c-0.02,0.08-0.1,0.12-0.17,0.1c-0.08-0.02-0.12-0.1-0.1-0.18
		C90.54,48.05,90.62,48.01,90.7,48.03z"/>
	<path class="st1" d="M97.53,53.39c0.13,0.04,0.21,0.17,0.17,0.31c-0.04,0.13-0.17,0.21-0.3,0.18c-0.13-0.04-0.21-0.17-0.17-0.31
		C97.26,53.44,97.4,53.36,97.53,53.39z"/>
	<path class="st1" d="M93.44,76.52c0.25,0.07,0.4,0.33,0.33,0.58c-0.07,0.25-0.33,0.4-0.58,0.33c-0.25-0.07-0.4-0.33-0.33-0.58
		C92.94,76.6,93.2,76.45,93.44,76.52z"/>
	<path class="st1" d="M90.72,47.94c0.12,0.03,0.2,0.16,0.16,0.29c-0.03,0.13-0.16,0.2-0.29,0.17c-0.12-0.04-0.2-0.16-0.16-0.29
		C90.47,47.98,90.6,47.91,90.72,47.94z"/>
	<path class="st1" d="M90.71,40.79c0.07,0.02,0.12,0.1,0.1,0.17c-0.02,0.07-0.09,0.12-0.17,0.1c-0.07-0.02-0.12-0.1-0.1-0.17
		C90.56,40.81,90.64,40.77,90.71,40.79z"/>
	<path class="st1" d="M88.42,48.85c0.11,0.03,0.18,0.15,0.15,0.27c-0.03,0.12-0.15,0.18-0.26,0.15c-0.11-0.03-0.18-0.15-0.15-0.27
		C88.19,48.88,88.3,48.81,88.42,48.85z"/>
	<path class="st1" d="M97.5,53.51c0.07,0.02,0.11,0.09,0.09,0.16c-0.02,0.07-0.09,0.11-0.15,0.09c-0.07-0.02-0.11-0.09-0.09-0.16
		C97.36,53.54,97.43,53.5,97.5,53.51z"/>
	<path class="st1" d="M90.77,40.57c0.19,0.05,0.31,0.25,0.25,0.45c-0.05,0.2-0.25,0.31-0.44,0.26c-0.19-0.05-0.31-0.25-0.25-0.45
		C90.38,40.63,90.58,40.51,90.77,40.57z"/>
	<path class="st1" d="M90.72,40.75c0.09,0.03,0.14,0.12,0.12,0.21c-0.02,0.09-0.12,0.15-0.21,0.12c-0.09-0.03-0.14-0.12-0.12-0.21
		C90.54,40.78,90.63,40.73,90.72,40.75z"/>
	<path class="st1" d="M90.7,48.03c0.07,0.02,0.12,0.1,0.1,0.17c-0.02,0.07-0.09,0.12-0.17,0.1c-0.07-0.02-0.12-0.1-0.1-0.17
		C90.55,48.06,90.62,48.01,90.7,48.03z"/>
	<path class="st1" d="M97.58,53.22c0.22,0.06,0.36,0.3,0.3,0.53c-0.06,0.23-0.29,0.36-0.52,0.3s-0.36-0.3-0.3-0.53
		C97.12,53.29,97.35,53.16,97.58,53.22z"/>
	<path class="st1" d="M90.73,40.7c0.12,0.03,0.19,0.16,0.16,0.28c-0.03,0.12-0.16,0.19-0.28,0.16c-0.12-0.03-0.19-0.16-0.16-0.28
		C90.49,40.74,90.61,40.67,90.73,40.7z"/>
	<path class="st1" d="M92.37,24.73c0.06,0.02,0.09,0.07,0.07,0.13c-0.02,0.06-0.07,0.09-0.13,0.07c-0.06-0.02-0.09-0.07-0.07-0.13
		C92.26,24.74,92.32,24.71,92.37,24.73z"/>
	<path class="st1" d="M88.39,48.94c0.06,0.02,0.1,0.08,0.08,0.14c-0.02,0.06-0.08,0.1-0.14,0.08c-0.06-0.02-0.1-0.08-0.08-0.14
		C88.27,48.96,88.33,48.93,88.39,48.94z"/>
	<path class="st1" d="M90.72,40.76c0.09,0.02,0.14,0.12,0.12,0.21c-0.02,0.09-0.12,0.14-0.21,0.12c-0.09-0.02-0.14-0.12-0.12-0.21
		C90.54,40.79,90.63,40.73,90.72,40.76z"/>
	<path class="st1" d="M88.42,48.85c0.11,0.03,0.18,0.15,0.15,0.26c-0.03,0.11-0.15,0.18-0.26,0.15c-0.11-0.03-0.18-0.15-0.15-0.26
		C88.19,48.89,88.3,48.82,88.42,48.85z"/>
	<path class="st1" d="M78.52,39.36c0.1,0.03,0.16,0.13,0.13,0.23c-0.03,0.1-0.13,0.16-0.23,0.13c-0.1-0.03-0.16-0.13-0.13-0.23
		C78.32,39.39,78.42,39.33,78.52,39.36z"/>
	<path class="st1" d="M91.42,30.76c0.05,0.01,0.08,0.07,0.06,0.12c-0.01,0.05-0.06,0.08-0.11,0.07c-0.05-0.01-0.08-0.07-0.06-0.12
		C91.32,30.78,91.37,30.75,91.42,30.76z"/>
	<path class="st1" d="M100.12,28.91c0.23,0.06,0.36,0.3,0.3,0.54c-0.06,0.23-0.3,0.37-0.53,0.3c-0.23-0.06-0.36-0.3-0.3-0.54
		C99.66,28.99,99.9,28.85,100.12,28.91z"/>
	<path class="st1" d="M92.42,24.53c0.16,0.04,0.26,0.21,0.21,0.38c-0.04,0.16-0.21,0.26-0.37,0.22c-0.16-0.04-0.26-0.21-0.21-0.38
		C92.1,24.58,92.26,24.49,92.42,24.53z"/>
	<path class="st1" d="M91.5,30.45c0.22,0.06,0.35,0.29,0.29,0.51c-0.06,0.22-0.29,0.35-0.5,0.29c-0.22-0.06-0.35-0.29-0.29-0.51
		C91.06,30.52,91.28,30.39,91.5,30.45z"/>
	<path class="st1" d="M91.43,30.71c0.08,0.02,0.12,0.1,0.1,0.18c-0.02,0.08-0.1,0.13-0.18,0.1c-0.08-0.02-0.12-0.1-0.1-0.18
		C91.27,30.73,91.35,30.69,91.43,30.71z"/>
	<path class="st1" d="M92.42,24.56c0.15,0.04,0.24,0.2,0.19,0.35c-0.04,0.15-0.19,0.24-0.34,0.2c-0.15-0.04-0.24-0.2-0.19-0.35
		C92.12,24.6,92.27,24.52,92.42,24.56z"/>
	<path class="st1" d="M91.48,30.52c0.18,0.05,0.29,0.24,0.24,0.42c-0.05,0.18-0.23,0.29-0.41,0.24c-0.18-0.05-0.29-0.24-0.24-0.42
		C91.12,30.58,91.3,30.47,91.48,30.52z"/>
	<path class="st1" d="M99.26,5.21c0.13,0.04,0.2,0.17,0.17,0.3c-0.04,0.13-0.17,0.2-0.29,0.17c-0.13-0.04-0.2-0.17-0.17-0.3
		C99,5.25,99.13,5.17,99.26,5.21z"/>
	<path class="st1" d="M99.17,6.25c0.09,0.02,0.14,0.12,0.11,0.2c-0.02,0.09-0.11,0.14-0.2,0.12c-0.09-0.02-0.14-0.12-0.11-0.2
		C99,6.28,99.08,6.22,99.17,6.25z"/>
	<path class="st1" d="M100.17,28.76c0.31,0.09,0.5,0.42,0.41,0.74c-0.09,0.32-0.41,0.51-0.72,0.42c-0.31-0.09-0.5-0.42-0.41-0.73
		C99.53,28.86,99.85,28.67,100.17,28.76z"/>
	<path class="st1" d="M99.24,5.29c0.08,0.02,0.13,0.11,0.11,0.19c-0.02,0.08-0.11,0.13-0.19,0.11c-0.08-0.02-0.13-0.11-0.11-0.19
		C99.07,5.32,99.16,5.27,99.24,5.29z"/>
	<path class="st1" d="M99.3,5.06c0.21,0.06,0.33,0.27,0.27,0.48c-0.06,0.21-0.27,0.33-0.48,0.28c-0.21-0.06-0.33-0.27-0.27-0.48
		C98.88,5.13,99.09,5,99.3,5.06z"/>
	<path class="st1" d="M91.45,30.66c0.11,0.03,0.17,0.14,0.14,0.25c-0.03,0.11-0.14,0.17-0.25,0.14c-0.11-0.03-0.17-0.14-0.14-0.25
		C91.23,30.69,91.34,30.63,91.45,30.66z"/>
	<path class="st1" d="M100.07,29.12c0.12,0.03,0.18,0.15,0.15,0.27c-0.03,0.12-0.15,0.19-0.27,0.15c-0.11-0.03-0.18-0.15-0.15-0.27
		C99.83,29.16,99.95,29.09,100.07,29.12z"/>
	<path class="st1" d="M99.25,5.26c0.1,0.03,0.16,0.13,0.13,0.23c-0.03,0.1-0.13,0.16-0.23,0.13c-0.1-0.03-0.16-0.13-0.13-0.23
		C99.04,5.29,99.15,5.23,99.25,5.26z"/>
	<path class="st1" d="M99.21,6.12c0.16,0.04,0.25,0.21,0.21,0.37c-0.04,0.16-0.21,0.26-0.37,0.21c-0.16-0.04-0.25-0.21-0.21-0.37
		C98.88,6.17,99.05,6.07,99.21,6.12z"/>
	<path class="st1" d="M99.22,5.35c0.05,0.01,0.08,0.07,0.07,0.12c-0.01,0.05-0.07,0.08-0.12,0.07s-0.08-0.07-0.07-0.12
		C99.12,5.36,99.17,5.34,99.22,5.35z"/>
	<path class="st1" d="M99.19,6.17c0.13,0.04,0.2,0.17,0.17,0.3c-0.04,0.13-0.17,0.21-0.3,0.17c-0.13-0.04-0.2-0.17-0.17-0.3
		C98.93,6.21,99.06,6.14,99.19,6.17z"/>
	<path class="st1" d="M115.21,1.06c0.16,0.05,0.26,0.22,0.21,0.38c-0.04,0.17-0.21,0.26-0.37,0.22c-0.16-0.04-0.26-0.22-0.21-0.38
		C114.88,1.11,115.05,1.01,115.21,1.06z"/>
	<path class="st1" d="M115.17,1.22c0.07,0.02,0.12,0.1,0.1,0.17c-0.02,0.08-0.1,0.12-0.17,0.1c-0.07-0.02-0.12-0.1-0.1-0.17
		C115.02,1.24,115.1,1.2,115.17,1.22z"/>
	<path class="st1" d="M115.18,1.18c0.1,0.03,0.15,0.13,0.13,0.23c-0.03,0.1-0.13,0.16-0.22,0.13c-0.1-0.03-0.15-0.13-0.13-0.23
		C114.99,1.21,115.08,1.15,115.18,1.18z"/>
	<path class="st1" d="M93.38,76.74c0.13,0.04,0.21,0.17,0.17,0.3c-0.04,0.13-0.17,0.21-0.3,0.17c-0.13-0.04-0.21-0.17-0.17-0.3
		C93.12,76.78,93.26,76.71,93.38,76.74z"/>
	<path class="st1" d="M104.35,65.73c0.08,0.02,0.13,0.11,0.11,0.19c-0.02,0.08-0.11,0.13-0.19,0.11c-0.08-0.02-0.13-0.11-0.11-0.19
		C104.19,65.76,104.27,65.71,104.35,65.73z"/>
	<path class="st1" d="M103.25,66.41c0.31,0.09,0.5,0.42,0.41,0.74c-0.09,0.32-0.41,0.51-0.72,0.42c-0.31-0.09-0.5-0.42-0.41-0.74
		C102.61,66.51,102.93,66.32,103.25,66.41z"/>
	<path class="st1" d="M93.37,76.79c0.1,0.03,0.16,0.14,0.14,0.24c-0.03,0.1-0.13,0.17-0.24,0.14c-0.1-0.03-0.16-0.14-0.14-0.24
		C93.16,76.82,93.27,76.76,93.37,76.79z"/>
	<path class="st1" d="M97.55,53.32c0.17,0.05,0.28,0.23,0.23,0.4c-0.05,0.18-0.23,0.28-0.4,0.23c-0.17-0.05-0.27-0.23-0.23-0.4
		C97.2,53.37,97.38,53.27,97.55,53.32z"/>
	<path class="st1" d="M107.38,58.67c0.18,0.05,0.28,0.23,0.23,0.41c-0.05,0.18-0.23,0.28-0.41,0.23c-0.17-0.05-0.28-0.23-0.23-0.41
		C107.02,58.73,107.2,58.63,107.38,58.67z"/>
	<path class="st1" d="M104.39,65.58c0.16,0.04,0.26,0.22,0.21,0.38c-0.04,0.17-0.21,0.26-0.38,0.22c-0.16-0.04-0.26-0.22-0.21-0.38
		C104.06,65.64,104.23,65.54,104.39,65.58z"/>
	<path class="st1" d="M97.53,53.38c0.14,0.04,0.22,0.18,0.18,0.32c-0.04,0.14-0.18,0.22-0.32,0.18c-0.14-0.04-0.22-0.18-0.18-0.32
		C97.25,53.43,97.4,53.35,97.53,53.38z"/>
	<path class="st1" d="M97.51,53.48c0.08,0.02,0.13,0.11,0.11,0.19c-0.02,0.08-0.11,0.13-0.19,0.11c-0.08-0.02-0.13-0.11-0.11-0.19
		C97.34,53.51,97.42,53.46,97.51,53.48z"/>
	<path class="st1" d="M93.37,76.79c0.11,0.03,0.17,0.14,0.14,0.25c-0.03,0.11-0.14,0.17-0.24,0.14c-0.11-0.03-0.17-0.14-0.14-0.25
		C93.16,76.82,93.27,76.76,93.37,76.79z"/>
	<path class="st1" d="M104.35,65.73c0.09,0.02,0.14,0.11,0.11,0.2c-0.02,0.09-0.11,0.14-0.2,0.11c-0.09-0.02-0.14-0.11-0.11-0.2
		C104.18,65.75,104.27,65.7,104.35,65.73z"/>
	<path class="st1" d="M97.53,53.4c0.13,0.04,0.21,0.17,0.17,0.3c-0.04,0.13-0.17,0.21-0.3,0.17c-0.13-0.04-0.21-0.17-0.17-0.3
		C97.27,53.44,97.4,53.36,97.53,53.4z"/>
	<path class="st1" d="M88.41,48.89c0.09,0.03,0.15,0.12,0.12,0.22c-0.03,0.09-0.12,0.15-0.21,0.12c-0.09-0.03-0.15-0.12-0.12-0.22
		C88.22,48.92,88.31,48.86,88.41,48.89z"/>
	<path class="st1" d="M116.42,33.91c0.08,0.02,0.13,0.11,0.11,0.2c-0.02,0.09-0.11,0.14-0.19,0.11c-0.08-0.02-0.13-0.11-0.11-0.2
		C116.25,33.93,116.34,33.88,116.42,33.91z"/>
	<path class="st1" d="M107.34,58.81c0.1,0.03,0.16,0.13,0.13,0.24c-0.03,0.1-0.13,0.16-0.23,0.13c-0.1-0.03-0.16-0.13-0.13-0.24
		C107.13,58.84,107.24,58.78,107.34,58.81z"/>
	<path class="st1" d="M88.41,48.86c0.11,0.03,0.17,0.14,0.14,0.25c-0.03,0.11-0.14,0.17-0.25,0.14c-0.11-0.03-0.17-0.14-0.14-0.25
		C88.2,48.89,88.31,48.83,88.41,48.86z"/>
	<path class="st1" d="M88.4,48.92c0.07,0.02,0.12,0.1,0.1,0.17c-0.02,0.07-0.09,0.12-0.17,0.1c-0.07-0.02-0.12-0.1-0.1-0.17
		C88.25,48.95,88.32,48.9,88.4,48.92z"/>
	<path class="st1" d="M97.51,53.46c0.1,0.03,0.16,0.13,0.13,0.23c-0.03,0.1-0.13,0.16-0.23,0.13c-0.1-0.03-0.16-0.13-0.13-0.23
		C97.31,53.49,97.42,53.43,97.51,53.46z"/>
	<path class="st1" d="M107.35,58.77c0.12,0.03,0.19,0.16,0.16,0.29c-0.03,0.12-0.16,0.2-0.28,0.16c-0.12-0.03-0.19-0.16-0.16-0.29
		C107.1,58.81,107.23,58.74,107.35,58.77z"/>
	<path class="st1" d="M88.39,48.94c0.06,0.02,0.1,0.08,0.08,0.15c-0.02,0.06-0.08,0.1-0.14,0.08c-0.06-0.02-0.1-0.08-0.08-0.15
		C88.26,48.96,88.33,48.92,88.39,48.94z"/>
	<path class="st1" d="M92.38,24.69c0.08,0.02,0.12,0.1,0.1,0.18c-0.02,0.08-0.1,0.13-0.18,0.1c-0.08-0.02-0.12-0.1-0.1-0.18
		C92.22,24.71,92.3,24.66,92.38,24.69z"/>
	<path class="st1" d="M104.08,26.99c0.11,0.03,0.17,0.14,0.14,0.25c-0.03,0.11-0.14,0.17-0.24,0.14c-0.11-0.03-0.17-0.14-0.14-0.25
		C103.87,27.02,103.98,26.96,104.08,26.99z"/>
	<path class="st1" d="M116.43,33.87c0.11,0.03,0.17,0.14,0.14,0.25c-0.03,0.11-0.14,0.17-0.24,0.14c-0.11-0.03-0.17-0.14-0.14-0.25
		C116.22,33.9,116.33,33.84,116.43,33.87z"/>
	<path class="st1" d="M92.43,24.52c0.17,0.05,0.26,0.22,0.22,0.39c-0.04,0.17-0.22,0.27-0.38,0.22c-0.16-0.05-0.26-0.22-0.22-0.39
		C92.09,24.58,92.26,24.48,92.43,24.52z"/>
	<path class="st1" d="M92.42,24.54c0.16,0.04,0.25,0.21,0.21,0.37c-0.04,0.16-0.21,0.25-0.36,0.21c-0.16-0.04-0.25-0.21-0.21-0.37
		C92.1,24.59,92.26,24.49,92.42,24.54z"/>
	<path class="st1" d="M88.4,48.92c0.07,0.02,0.12,0.1,0.1,0.17c-0.02,0.07-0.09,0.12-0.17,0.1c-0.07-0.02-0.11-0.1-0.09-0.17
		C88.25,48.95,88.33,48.9,88.4,48.92z"/>
	<path class="st1" d="M116.47,33.73c0.18,0.05,0.28,0.24,0.23,0.42c-0.05,0.18-0.23,0.29-0.41,0.24c-0.18-0.05-0.28-0.24-0.23-0.42
		C116.1,33.79,116.29,33.68,116.47,33.73z"/>
	<path class="st1" d="M92.38,24.69c0.08,0.02,0.12,0.1,0.1,0.18c-0.02,0.08-0.1,0.12-0.17,0.1c-0.08-0.02-0.12-0.1-0.1-0.18
		C92.23,24.71,92.31,24.67,92.38,24.69z"/>
	<path class="st1" d="M100.05,29.17c0.09,0.02,0.14,0.12,0.12,0.21c-0.02,0.09-0.12,0.15-0.21,0.12c-0.09-0.02-0.14-0.12-0.12-0.21
		C99.87,29.2,99.96,29.14,100.05,29.17z"/>
	<path class="st1" d="M117.09,10.45c0.11,0.03,0.18,0.15,0.15,0.26c-0.03,0.11-0.15,0.18-0.26,0.15c-0.11-0.03-0.18-0.15-0.15-0.26
		C116.86,10.49,116.98,10.42,117.09,10.45z"/>
	<path class="st1" d="M104.05,27.08c0.05,0.02,0.09,0.07,0.07,0.13c-0.01,0.05-0.07,0.09-0.12,0.07c-0.05-0.01-0.09-0.07-0.07-0.13
		C103.95,27.1,104,27.07,104.05,27.08z"/>
	<path class="st1" d="M100.17,28.73c0.33,0.09,0.52,0.43,0.43,0.77c-0.09,0.33-0.43,0.53-0.75,0.44c-0.33-0.09-0.52-0.43-0.43-0.77
		C99.51,28.84,99.85,28.64,100.17,28.73z"/>
	<path class="st1" d="M100.06,29.15c0.1,0.03,0.16,0.14,0.13,0.24c-0.03,0.1-0.13,0.17-0.24,0.14c-0.1-0.03-0.16-0.14-0.14-0.24
		C99.85,29.18,99.96,29.12,100.06,29.15z"/>
	<path class="st1" d="M92.39,24.65c0.1,0.03,0.15,0.13,0.13,0.23c-0.03,0.1-0.13,0.16-0.22,0.13c-0.1-0.03-0.15-0.13-0.13-0.23
		C92.19,24.68,92.29,24.62,92.39,24.65z"/>
	<path class="st1" d="M104.1,26.93c0.14,0.04,0.22,0.18,0.18,0.32c-0.04,0.14-0.18,0.22-0.31,0.18c-0.14-0.04-0.22-0.18-0.18-0.32
		C103.82,26.97,103.96,26.89,104.1,26.93z"/>
	<path class="st1" d="M100.06,29.17c0.09,0.03,0.14,0.12,0.12,0.21c-0.03,0.09-0.12,0.15-0.21,0.12c-0.09-0.03-0.14-0.12-0.12-0.21
		C99.87,29.2,99.96,29.14,100.06,29.17z"/>
	<path class="st1" d="M99.2,6.15c0.14,0.04,0.23,0.19,0.19,0.34c-0.04,0.14-0.19,0.23-0.33,0.19c-0.14-0.04-0.23-0.19-0.19-0.33
		C98.91,6.19,99.06,6.11,99.2,6.15z"/>
	<path class="st1" d="M117.08,10.47c0.1,0.03,0.16,0.14,0.13,0.24c-0.03,0.1-0.13,0.17-0.24,0.14c-0.1-0.03-0.16-0.14-0.14-0.24
		C116.88,10.5,116.98,10.44,117.08,10.47z"/>
	<path class="st1" d="M99.25,5.94c0.25,0.07,0.4,0.33,0.33,0.59C99.52,6.79,99.26,6.94,99,6.87c-0.25-0.07-0.4-0.34-0.33-0.59
		C98.74,6.02,99,5.87,99.25,5.94z"/>
	<path class="st1" d="M99.23,6.02c0.21,0.06,0.34,0.28,0.28,0.5c-0.06,0.22-0.28,0.34-0.49,0.29c-0.21-0.06-0.34-0.28-0.28-0.5
		C98.8,6.08,99.02,5.96,99.23,6.02z"/>
	<path class="st1" d="M100.06,29.16c0.09,0.03,0.15,0.13,0.13,0.22c-0.03,0.1-0.12,0.15-0.22,0.13c-0.1-0.03-0.15-0.13-0.13-0.22
		C99.86,29.19,99.96,29.13,100.06,29.16z"/>
	<path class="st1" d="M117.1,10.39c0.14,0.04,0.23,0.19,0.19,0.34c-0.04,0.15-0.19,0.23-0.33,0.19c-0.14-0.04-0.23-0.19-0.19-0.34
		C116.81,10.44,116.96,10.35,117.1,10.39z"/>
	<path class="st1" d="M99.16,6.3c0.06,0.02,0.09,0.08,0.08,0.14c-0.02,0.06-0.08,0.09-0.13,0.08c-0.06-0.02-0.09-0.08-0.08-0.14
		C99.04,6.32,99.1,6.29,99.16,6.3z"/>
	<path class="st1" d="M117.27,2c0.16,0.04,0.25,0.21,0.21,0.38c-0.04,0.16-0.21,0.26-0.37,0.21c-0.16-0.04-0.26-0.21-0.21-0.38
		C116.94,2.05,117.11,1.95,117.27,2z"/>
	<path class="st1" d="M99.19,6.17c0.13,0.04,0.21,0.17,0.17,0.3c-0.04,0.13-0.17,0.21-0.3,0.17c-0.13-0.04-0.2-0.17-0.17-0.3
		C98.93,6.21,99.06,6.14,99.19,6.17z"/>
	<path class="st1" d="M115.25,0.94c0.23,0.06,0.36,0.3,0.3,0.53s-0.3,0.37-0.53,0.3c-0.23-0.06-0.36-0.3-0.3-0.53
		C114.78,1.01,115.02,0.87,115.25,0.94z"/>
	<path class="st1" d="M117.29,1.9c0.21,0.06,0.34,0.28,0.28,0.5c-0.06,0.22-0.28,0.34-0.49,0.29c-0.21-0.06-0.34-0.28-0.28-0.5
		C116.86,1.97,117.08,1.84,117.29,1.9z"/>
	<path class="st1" d="M115.19,1.16c0.11,0.03,0.17,0.14,0.14,0.25c-0.03,0.11-0.14,0.17-0.25,0.14c-0.11-0.03-0.17-0.14-0.14-0.25
		C114.97,1.19,115.08,1.13,115.19,1.16z"/>
	<path class="st1" d="M115.21,1.08c0.15,0.04,0.24,0.2,0.2,0.35c-0.04,0.15-0.19,0.24-0.34,0.2c-0.15-0.04-0.24-0.2-0.2-0.35
		C114.91,1.13,115.06,1.04,115.21,1.08z"/>
	<path class="st1" d="M117.22,2.17c0.07,0.02,0.11,0.09,0.09,0.16c-0.02,0.07-0.09,0.11-0.15,0.09c-0.07-0.02-0.11-0.09-0.09-0.16
		C117.08,2.19,117.15,2.15,117.22,2.17z"/>
	<path class="st1" d="M115.24,0.96c0.21,0.06,0.34,0.28,0.28,0.5c-0.06,0.22-0.28,0.35-0.49,0.29c-0.21-0.06-0.34-0.28-0.28-0.5
		C114.8,1.03,115.03,0.9,115.24,0.96z"/>
	<path class="st1" d="M115.24,0.95c0.22,0.06,0.35,0.29,0.29,0.52c-0.06,0.23-0.29,0.36-0.51,0.3c-0.22-0.06-0.35-0.29-0.29-0.52
		C114.79,1.02,115.02,0.88,115.24,0.95z"/>
	<path class="st1" d="M104.45,65.37c0.28,0.08,0.45,0.37,0.37,0.66c-0.08,0.29-0.37,0.45-0.65,0.38c-0.28-0.08-0.45-0.37-0.37-0.66
		C103.88,65.46,104.17,65.29,104.45,65.37z"/>
	<path class="st1" d="M103.84,67.02c0.2,0.05,0.31,0.26,0.26,0.46c-0.05,0.2-0.26,0.32-0.45,0.26c-0.2-0.05-0.31-0.26-0.26-0.46
		C103.44,67.09,103.65,66.97,103.84,67.02z"/>
	<path class="st1" d="M104.98,73.96c0.14,0.04,0.23,0.19,0.19,0.34c-0.04,0.15-0.19,0.23-0.33,0.19c-0.14-0.04-0.23-0.19-0.19-0.34
		C104.69,74.01,104.83,73.92,104.98,73.96z"/>
	<path class="st1" d="M104.38,65.65c0.13,0.04,0.21,0.17,0.17,0.3c-0.04,0.13-0.17,0.21-0.3,0.17c-0.13-0.04-0.21-0.17-0.17-0.3
		C104.11,65.69,104.25,65.61,104.38,65.65z"/>
	<path class="st1" d="M107.36,58.74c0.14,0.04,0.22,0.19,0.18,0.33c-0.04,0.14-0.18,0.23-0.32,0.19c-0.14-0.04-0.22-0.19-0.18-0.33
		C107.07,58.78,107.22,58.7,107.36,58.74z"/>
	<path class="st1" d="M108.73,53.6c0.12,0.03,0.19,0.16,0.15,0.27c-0.03,0.12-0.15,0.19-0.27,0.16c-0.12-0.03-0.19-0.16-0.15-0.27
		C108.5,53.63,108.62,53.57,108.73,53.6z"/>
	<path class="st1" d="M103.79,67.21c0.1,0.03,0.15,0.13,0.13,0.22c-0.03,0.1-0.13,0.15-0.22,0.13c-0.09-0.03-0.15-0.13-0.13-0.22
		C103.6,67.24,103.7,67.18,103.79,67.21z"/>
	<path class="st1" d="M107.35,58.77c0.12,0.04,0.19,0.16,0.16,0.29c-0.03,0.12-0.16,0.2-0.28,0.16c-0.12-0.03-0.19-0.16-0.16-0.29
		C107.1,58.81,107.23,58.74,107.35,58.77z"/>
	<path class="st1" d="M107.35,58.79c0.11,0.03,0.18,0.15,0.15,0.27c-0.03,0.12-0.15,0.18-0.26,0.15c-0.11-0.03-0.18-0.15-0.15-0.27
		C107.12,58.82,107.23,58.75,107.35,58.79z"/>
	<path class="st1" d="M104.37,65.67c0.12,0.03,0.18,0.15,0.15,0.27c-0.03,0.12-0.15,0.18-0.26,0.15c-0.11-0.03-0.18-0.15-0.15-0.27
		C104.14,65.71,104.25,65.64,104.37,65.67z"/>
	<path class="st1" d="M103.81,67.16c0.12,0.03,0.19,0.16,0.16,0.29c-0.03,0.12-0.16,0.2-0.28,0.16c-0.12-0.03-0.19-0.16-0.16-0.29
		C103.56,67.2,103.68,67.13,103.81,67.16z"/>
	<path class="st1" d="M107.35,58.79c0.11,0.03,0.18,0.15,0.15,0.26c-0.03,0.11-0.14,0.18-0.26,0.15c-0.11-0.03-0.18-0.15-0.15-0.26
		C107.12,58.83,107.23,58.76,107.35,58.79z"/>
	<path class="st1" d="M116.45,33.81c0.14,0.04,0.22,0.18,0.18,0.32c-0.04,0.14-0.18,0.22-0.32,0.18c-0.14-0.04-0.22-0.18-0.18-0.32
		C116.17,33.85,116.31,33.77,116.45,33.81z"/>
	<path class="st1" d="M108.79,53.4c0.23,0.06,0.36,0.3,0.3,0.53c-0.06,0.23-0.29,0.37-0.52,0.3c-0.23-0.06-0.36-0.3-0.3-0.53
		C108.33,53.47,108.56,53.33,108.79,53.4z"/>
	<path class="st1" d="M116.45,33.81c0.14,0.04,0.22,0.18,0.18,0.32c-0.04,0.14-0.18,0.22-0.32,0.18c-0.14-0.04-0.22-0.18-0.18-0.32
		C116.17,33.85,116.31,33.77,116.45,33.81z"/>
	<path class="st1" d="M116.47,33.72c0.19,0.05,0.29,0.25,0.24,0.44c-0.05,0.19-0.24,0.3-0.43,0.25c-0.19-0.05-0.29-0.25-0.24-0.44
		C116.09,33.78,116.28,33.67,116.47,33.72z"/>
	<path class="st1" d="M107.34,58.8c0.11,0.03,0.17,0.14,0.14,0.25c-0.03,0.11-0.14,0.17-0.24,0.14s-0.17-0.14-0.14-0.25
		C107.13,58.84,107.24,58.77,107.34,58.8z"/>
	<path class="st1" d="M108.72,53.67c0.08,0.02,0.13,0.1,0.1,0.19c-0.02,0.08-0.1,0.13-0.18,0.11c-0.08-0.02-0.13-0.11-0.1-0.19
		C108.55,53.69,108.64,53.64,108.72,53.67z"/>
	<path class="st1" d="M116.42,33.92c0.08,0.02,0.12,0.1,0.1,0.18c-0.02,0.08-0.1,0.13-0.18,0.1c-0.08-0.02-0.12-0.1-0.1-0.18
		C116.26,33.94,116.34,33.9,116.42,33.92z"/>
	<path class="st1" d="M104.14,26.77c0.22,0.06,0.35,0.29,0.29,0.52c-0.06,0.23-0.29,0.36-0.51,0.3c-0.22-0.06-0.35-0.29-0.29-0.52
		C103.69,26.84,103.92,26.71,104.14,26.77z"/>
	<path class="st1" d="M104.07,27.01c0.09,0.03,0.15,0.12,0.12,0.21c-0.03,0.09-0.12,0.15-0.21,0.12c-0.09-0.03-0.15-0.12-0.12-0.21
		C103.89,27.04,103.98,26.99,104.07,27.01z"/>
	<path class="st1" d="M104.11,26.87c0.17,0.05,0.27,0.23,0.22,0.4c-0.05,0.17-0.22,0.27-0.39,0.23c-0.17-0.05-0.27-0.23-0.22-0.4
		C103.77,26.92,103.94,26.82,104.11,26.87z"/>
	<path class="st1" d="M116.45,33.78c0.15,0.04,0.24,0.2,0.2,0.36c-0.04,0.15-0.2,0.25-0.35,0.2c-0.15-0.04-0.24-0.2-0.2-0.36
		C116.14,33.83,116.3,33.74,116.45,33.78z"/>
	<path class="st1" d="M104.12,26.83c0.19,0.05,0.3,0.25,0.25,0.45c-0.05,0.19-0.25,0.31-0.44,0.26c-0.19-0.05-0.3-0.25-0.25-0.45
		C103.73,26.89,103.93,26.77,104.12,26.83z"/>
	<path class="st1" d="M117.11,10.35c0.16,0.05,0.26,0.22,0.22,0.38c-0.04,0.17-0.21,0.26-0.38,0.22c-0.16-0.05-0.26-0.22-0.22-0.38
		C116.78,10.41,116.95,10.31,117.11,10.35z"/>
	<path class="st1" d="M117.06,10.57c0.05,0.01,0.07,0.06,0.06,0.11c-0.01,0.05-0.06,0.07-0.11,0.06c-0.05-0.01-0.07-0.06-0.06-0.11
		C116.96,10.59,117.01,10.56,117.06,10.57z"/>
	<path class="st1" d="M117.07,10.52c0.07,0.02,0.12,0.1,0.1,0.17c-0.02,0.08-0.1,0.12-0.17,0.1c-0.07-0.02-0.12-0.1-0.1-0.17
		C116.92,10.54,117,10.5,117.07,10.52z"/>
	<path class="st1" d="M104.13,26.79c0.21,0.06,0.34,0.28,0.28,0.5c-0.06,0.22-0.28,0.35-0.49,0.29c-0.21-0.06-0.34-0.28-0.28-0.5
		C103.7,26.85,103.92,26.73,104.13,26.79z"/>
	<path class="st1" d="M117.08,10.48c0.09,0.03,0.15,0.13,0.13,0.22c-0.03,0.1-0.12,0.15-0.22,0.13c-0.09-0.03-0.15-0.13-0.13-0.22
		C116.89,10.51,116.99,10.46,117.08,10.48z"/>
	<path class="st1" d="M117.11,10.39c0.15,0.04,0.23,0.19,0.19,0.34c-0.04,0.15-0.19,0.24-0.34,0.2c-0.15-0.04-0.23-0.19-0.19-0.34
		C116.81,10.43,116.96,10.35,117.11,10.39z"/>
	<path class="st1" d="M117.21,2.2c0.05,0.01,0.08,0.07,0.07,0.12c-0.01,0.05-0.07,0.09-0.12,0.07c-0.05-0.01-0.08-0.07-0.07-0.12
		C117.11,2.21,117.16,2.18,117.21,2.2z"/>
	<path class="st1" d="M117.23,2.14c0.08,0.02,0.13,0.11,0.11,0.19c-0.02,0.08-0.11,0.13-0.19,0.11c-0.08-0.02-0.13-0.11-0.11-0.19
		C117.06,2.17,117.15,2.12,117.23,2.14z"/>
	<path class="st1" d="M117.27,1.98c0.17,0.05,0.27,0.22,0.22,0.39c-0.05,0.17-0.22,0.27-0.39,0.22c-0.17-0.05-0.27-0.22-0.22-0.39
		C116.93,2.04,117.1,1.94,117.27,1.98z"/>
	<path class="st1" d="M117.26,2.02c0.15,0.04,0.24,0.2,0.2,0.35c-0.04,0.15-0.2,0.24-0.35,0.2c-0.15-0.04-0.24-0.2-0.2-0.35
		C116.96,2.07,117.11,1.98,117.26,2.02z"/>
	<path class="st1" d="M117.24,2.1c0.11,0.03,0.17,0.14,0.14,0.25c-0.03,0.11-0.14,0.17-0.24,0.14c-0.11-0.03-0.17-0.14-0.14-0.25
		C117.03,2.13,117.13,2.07,117.24,2.1z"/>
</g>
</svg>
