<?xml version="1.0" encoding="utf-8"?>
<!-- Generator: Adobe Illustrator 24.1.2, SVG Export Plug-In . SVG Version: 6.00 Build 0)  -->
<svg version="1.1" id="Isolation_Mode" xmlns="http://www.w3.org/2000/svg" xmlns:xlink="http://www.w3.org/1999/xlink" x="0px"
	 y="0px" viewBox="0 0 120 85" style="enable-background:new 0 0 120 85;" xml:space="preserve">
<style type="text/css">
	.st0{fill:#BCBEC0;}
</style>
<g>
	<g>
		<g>
			<polygon class="st0" points="117.39,0.09 112.47,3.9 116.84,0.09 116.74,0.09 111.59,4.58 111.63,4.63 117.5,0.09 			"/>
		</g>
		<g>
			<polygon class="st0" points="120,3.76 112.46,4.49 120,3.16 120,3.1 111.61,4.57 111.62,4.63 120,3.83 			"/>
		</g>
		<g>
			<polygon class="st0" points="120,3.1 111.74,4.55 117.5,0.09 117.39,0.09 111.59,4.58 111.62,4.63 120,3.16 			"/>
		</g>
		<g>
			<polygon class="st0" points="98.03,0.09 104.87,13.75 92.66,0.09 92.57,0.09 104.99,13.97 105.04,13.94 98.1,0.09 			"/>
		</g>
		<g>
			<polygon class="st0" points="120,11.12 105.1,13.9 117,0.09 116.92,0.09 104.99,13.93 104.93,14 120,11.19 			"/>
			<polygon class="st0" points="120,2.39 118.05,0.09 117.97,0.09 120,2.49 			"/>
		</g>
		<g>
			<polygon class="st0" points="116.92,0.09 105.02,13.89 98.1,0.09 98.03,0.09 104.98,13.97 105,14.01 117,0.09 			"/>
		</g>
		<g>
			<polygon class="st0" points="120,15.41 111.71,4.67 120,7.68 120,7.61 111.52,4.53 120,15.51 			"/>
		</g>
		<g>
			<polygon class="st0" points="120,2.39 118.05,0.09 117.97,0.09 120,2.49 			"/>
			<polygon class="st0" points="120,7.61 111.68,4.59 116.84,0.09 116.74,0.09 111.58,4.59 111.59,4.63 120,7.68 			"/>
		</g>
		<g>
			<polygon class="st0" points="120,15.41 111.68,4.63 120,3.83 120,3.76 111.61,4.57 111.55,4.57 120,15.51 			"/>
		</g>
		<g>
			<polygon class="st0" points="53.85,0.09 53.83,0.24 53.81,0.09 53.74,0.09 53.78,0.46 53.85,0.46 53.92,0.09 			"/>
		</g>
		<g>
			<polygon class="st0" points="58.47,0.09 53.88,0.42 54.09,0.09 54.01,0.09 53.79,0.44 53.75,0.5 59.38,0.09 			"/>
		</g>
		<g>
			<polygon class="st0" points="54.01,0.09 53.84,0.36 53.81,0.09 53.74,0.09 53.78,0.46 53.79,0.55 54.09,0.09 			"/>
		</g>
		<g>
			<polygon class="st0" points="86.61,0.09 84.78,6.16 83.43,0.09 83.36,0.09 84.74,6.3 84.77,6.42 86.68,0.09 			"/>
		</g>
		<g>
			<path class="st0" d="M84.76,6.32l0.02-0.06l20.34,7.7l-0.12,0.03l-4.81-0.86L84.76,6.32z M104.67,13.86l-18.76-7.1l14.31,6.31
				L104.67,13.86z"/>
		</g>
		<g>
			<polygon class="st0" points="92.66,0.09 92.57,0.09 104.9,13.87 84.81,6.27 86.68,0.09 86.61,0.09 84.74,6.28 84.73,6.31 
				105,13.98 105.01,13.96 105.02,13.98 105.01,13.96 105.04,13.93 			"/>
		</g>
		<g>
			<polygon class="st0" points="120,13.03 91.58,26.84 100.22,13.13 120,10.76 120,10.69 100.2,13.06 100.19,13.06 91.46,26.91 
				91.4,27 120,13.1 			"/>
		</g>
		<g>
			<polygon class="st0" points="120,11.12 105.01,13.92 100.43,13.1 120,10.76 120,10.69 100.2,13.06 100.2,13.13 105.01,13.98 
				105.01,13.98 120,11.19 			"/>
		</g>
		<g>
			<polygon class="st0" points="120,26.37 101.96,35.01 91.57,26.95 120,24.1 120,24.04 91.49,26.89 91.4,26.9 101.93,35.07 
				101.95,35.08 120,26.44 			"/>
		</g>
		<g>
			<polygon class="st0" points="120,24.04 91.67,26.87 120,13.1 120,13.03 91.47,26.89 91.49,26.96 120,24.1 			"/>
		</g>
		<g>
			<polygon class="st0" points="120,45.17 102.08,35.08 120,35.51 120,35.44 101.95,35.01 101.94,35.07 120,45.25 			"/>
		</g>
		<g>
			<polygon class="st0" points="120,35.44 102.09,35.01 120,26.44 120,26.37 101.94,35.01 101.95,35.08 120,35.51 			"/>
		</g>
		<g>
			<polygon class="st0" points="32.85,0.09 38.14,12.6 30.72,0.09 30.64,0.09 38.32,13.04 38.38,13.01 32.92,0.09 			"/>
		</g>
		<g>
			<polygon class="st0" points="52.23,0.09 47.45,15.74 38.4,13.01 47.06,0.09 46.98,0.09 38.33,13.01 38.3,13.05 47.46,15.81 
				47.49,15.82 52.3,0.09 			"/>
		</g>
		<g>
			<polygon class="st0" points="46.98,0.09 38.35,12.97 30.72,0.09 30.64,0.09 38.32,13.04 38.35,13.09 47.06,0.09 			"/>
		</g>
		<g>
			<path class="st0" d="M47.44,15.77L53.8,0.41l0.03,0.02l1.3,0.1L55.1,0.57L47.5,15.8L47.44,15.77z M53.84,0.49l-5.98,14.45
				l7.16-14.36L53.84,0.49z"/>
		</g>
		<g>
			<polygon class="st0" points="53.85,0.09 53.79,0.45 47.7,15.15 52.3,0.09 52.23,0.09 47.44,15.77 47.5,15.8 53.83,0.51 
				53.84,0.51 53.92,0.09 			"/>
		</g>
		<g>
			<polygon class="st0" points="81.15,0.09 59.9,20.45 55.11,0.58 61.35,0.09 60.51,0.09 55.07,0.52 55.03,0.52 59.85,20.52 
				59.86,20.58 81.24,0.09 			"/>
		</g>
		<g>
			<polygon class="st0" points="60.51,0.09 55.07,0.52 54.27,0.46 59.38,0.09 58.47,0.09 53.81,0.42 53.81,0.49 55.07,0.58 
				61.35,0.09 			"/>
		</g>
		<g>
			<path class="st0" d="M88.97,40.31l-0.06-0.04L59.82,20.51l0.05-0.03L84.8,6.24l0.01,0.05L88.97,40.31z M59.94,20.52l28.95,19.66
				L84.75,6.34L59.94,20.52z"/>
		</g>
		<g>
			<polygon class="st0" points="83.36,0.09 84.74,6.27 60.09,20.36 81.24,0.09 81.15,0.09 59.86,20.49 59.9,20.55 84.79,6.32 
				84.81,6.31 83.43,0.09 			"/>
		</g>
		<g>
			<path class="st0" d="M88.88,40.28l0.02-0.05l11.32-27.25l0.02,0.11l4.27,26.13l-0.04,0L88.88,40.28z M100.19,13.21L88.98,40.21
				l15.45-1.04L100.19,13.21z"/>
		</g>
		<g>
			<path class="st0" d="M88.91,40.37l-0.02-0.12L84.73,6.24l0.05,0.02l15.46,6.82l-0.01,0.03L88.91,40.37z M84.81,6.34l4.13,33.77
				l11.22-27.01L84.81,6.34z"/>
		</g>
		<g>
			<path class="st0" d="M115.75,48.66l-11.3-9.44L91.47,26.95l0,0l0.03-0.05l0.01,0l0.01,0.01l-0.01,0.01l-0.01,0.02l0.02-0.02
				l24.27,21.7L115.75,48.66z M93.22,28.52l11.27,10.65l9.82,8.2L93.22,28.52z"/>
		</g>
		<g>
			<path class="st0" d="M104.51,39.28L91.47,26.95l-0.04-0.01l0.02-0.04l8.76-13.9l0.01,0.08L104.51,39.28z M91.53,26.92
				l12.89,12.19l-4.23-25.92L91.53,26.92z"/>
		</g>
		<g>
			<path class="st0" d="M118.2,52.21l-16.27-17.14l0.05-0.05v0h0l0,0l13.81,13.58l2.46,3.56L118.2,52.21z M103.28,36.4l14.67,15.46
				l-2.22-3.21L103.28,36.4z"/>
		</g>
		<g>
			<path class="st0" d="M115.75,48.66L91.47,26.95l0.04-0.05l10.46,8.12l13.82,13.59L115.75,48.66z M92.21,27.53l22.55,20.16
				l-12.84-12.62L92.21,27.53z"/>
		</g>
		<g>
			<polygon class="st0" points="120,55.62 118.27,52.21 120,51.83 120,51.77 118.22,52.15 118.18,52.16 120,55.76 			"/>
		</g>
		<g>
			<polygon class="st0" points="120,51.77 118.24,52.15 102.12,35.18 120,45.25 120,45.17 101.97,35.02 101.93,35.07 118.2,52.21 
				118.21,52.22 120,51.83 			"/>
		</g>
		<g>
			<path class="st0" d="M1.05,5.64l0.02-0.06l37.28,7.42l0,0.04l0.01,0.02l-9.47,6.79l-0.02-0.01L1.05,5.64z M38.27,13.04L1.29,5.69
				l27.6,14.08L38.27,13.04z"/>
		</g>
		<g>
			<path class="st0" d="M28.8,19.86l0.07-0.08L38.1,9.66l9.46,6.13L28.8,19.86z M38.11,9.75l-9.12,10l18.4-3.98L38.11,9.75z"/>
		</g>
		<g>
			<path class="st0" d="M28.9,19.83l-0.03-0.06l9.47-6.78l0.02,0l9.12,2.76l0,0.06L28.9,19.83z M38.36,13.06l-9.31,6.67l18.3-3.96
				L38.36,13.06z"/>
		</g>
		<g>
			<path class="st0" d="M38.03,9.71l17.05-9.2l0.02,0.03L67.18,24.1l-0.09-0.04L38.03,9.71z M55.06,0.6L38.17,9.71l28.86,14.25
				L55.06,0.6z"/>
		</g>
		<g>
			<path class="st0" d="M47.49,15.83L38.04,9.7l0.05-0.03l17.06-9.2L55.1,0.57L47.49,15.83z M38.17,9.71l9.29,6.03L55,0.63
				L38.17,9.71z"/>
		</g>
		<g>
			<path class="st0" d="M58.49,32.37l0.01-0.09l1.35-11.81l0.04,0.02l7.27,3.53l-0.03,0.03L58.49,32.37z M59.91,20.57l-1.33,11.63
				l8.47-8.16L59.91,20.57z"/>
		</g>
		<g>
			<path class="st0" d="M59.83,20.53l0.01-0.02L55.04,0.56l0.06-0.02L67.18,24.1L59.83,20.53z M55.17,0.81l4.74,19.69l7.12,3.46
				L55.17,0.81z"/>
		</g>
		<g>
			<path class="st0" d="M58.53,32.31l0.02-0.06l29.2,7.51l1.2,0.45l-0.02,0.06L58.53,32.31L58.53,32.31L58.53,32.31z M88.34,40.05
				l-0.61-0.23L72.7,35.96L88.34,40.05z"/>
		</g>
		<g>
			<path class="st0" d="M58.5,32.31l0-0.03l1.35-11.82l0.04,0.03l29.05,19.73l-0.02,0.04l0,0.02l0-0.02l-0.01,0.02L58.5,32.31z
				 M59.91,20.57l-1.33,11.68l30.18,7.91L59.91,20.57z"/>
		</g>
		<g>
			<path class="st0" d="M102.21,53.05l-0.04-0.04L87.66,39.76l0.08,0l16.77-0.6l-0.01,0.04L102.21,53.05z M87.82,39.82l14.34,13.1
				l2.27-13.7L87.82,39.82z"/>
		</g>
		<g>
			<path class="st0" d="M87.73,39.82l0.01-0.06l16.74-0.6l0.1,0.06l-0.11,0l0-0.03v0l0,0.03l-15.54,1.05l-0.01,0L87.73,39.82z
				 M102.39,39.3L87.9,39.82l1.03,0.39L102.39,39.3z"/>
		</g>
		<g>
			<path class="st0" d="M88.07,62.51l-0.03-0.06l14.13-9.5l0,0l13.58-4.36l0.02,0.06L88.07,62.51z M102.2,53.02l-13.7,9.21
				l26.87-13.43L102.2,53.02z"/>
		</g>
		<g>
			<path class="st0" d="M102.14,53.04l2.3-13.91l11.39,9.51L102.14,53.04z M104.49,39.25l-2.26,13.69l13.48-4.32L104.49,39.25z"/>
		</g>
		<g>
			<path class="st0" d="M87.96,62.48l0.09-0.03l30.24-10.33l-0.03,0.07l-8.8,17.85l-0.03-0.01L87.96,62.48z M118.16,52.24l-30,10.25
				l21.26,7.48L118.16,52.24z"/>
		</g>
		<g>
			<path class="st0" d="M88.07,62.52l-0.02-0.06l27.74-13.87l0.02,0.02l2.48,3.59l-0.04,0.01L88.07,62.52z M115.76,48.67L88.51,62.3
				l29.67-10.13L115.76,48.67z"/>
		</g>
		<g>
			<polygon class="st0" points="120,75 109.52,70.01 120,66.04 120,65.97 109.35,70 120,75.07 			"/>
		</g>
		<g>
			<polygon class="st0" points="120,65.97 109.5,69.94 118.22,52.26 120,55.76 120,55.62 118.25,52.17 118.22,52.11 109.41,69.99 
				109.37,70.06 120,66.04 			"/>
		</g>
		<g>
			<path class="st0" d="M10.86,24.09L1.02,5.58l0.07,0L1.1,5.59l8.89,16.46l0.93,2L10.86,24.09z M5.86,14.55l4.5,8.45l-0.42-0.91
				L5.86,14.55z"/>
		</g>
		<g>
			<path class="st0" d="M18.44,30.58l-0.02-0.02l-7.6-6.51L29,19.74l-0.08,0.08L18.44,30.58z M10.96,24.09l7.48,6.41L28.8,19.86
				L10.96,24.09z"/>
		</g>
		<g>
			<path class="st0" d="M10.87,24.11l-0.01-0.02L0.99,5.53l28,14.28l-0.09,0.02L10.87,24.11z M1.15,5.68l9.76,18.35l17.9-4.24
				L1.15,5.68z"/>
		</g>
		<g>
			<path class="st0" d="M46.46,51.83l-0.07-0.05l-28-21.24l0.02-0.03L38.12,9.64l0.01,0.06L46.46,51.83z M18.49,30.53l27.87,21.14
				l-8.28-41.9L18.49,30.53z"/>
		</g>
		<g>
			<path class="st0" d="M18.46,30.56l-0.05-0.05L38.09,9.67l0.09,0l-0.06,0.06l-9.2,10.09L18.46,30.56z M35.53,12.48L21.3,27.55
				l7.57-7.77L35.53,12.48z"/>
		</g>
		<g>
			<path class="st0" d="M46.43,51.78l-0.05-0.04l20.7-27.73l0.01-0.02L67.17,24l-0.03,0.05l-7.37,14.29l0,0L46.43,51.78z
				 M66.9,24.36L46.71,51.4l13-13.11L66.9,24.36z"/>
		</g>
		<g>
			<path class="st0" d="M46.39,51.83l-0.01-0.07L38.06,9.65l0.06,0.03l29,14.32l0.05,0l-0.04,0.05L46.39,51.83z M38.15,9.77
				l8.28,41.91l20.63-27.64L38.15,9.77z"/>
		</g>
		<g>
			<path class="st0" d="M75.6,61.46L59.7,38.33l0-0.01l-1.2-6.05l0.05-0.03l0.02,0.03l17.09,29.16L75.6,61.46z M59.76,38.3
				l15.38,22.38L58.61,32.46L59.76,38.3z"/>
		</g>
		<g>
			<path class="st0" d="M59.72,38.41l-1.22-6.15l0.02-0.01L67.08,24l0.05,0.04L59.72,38.41z M58.57,32.29l1.18,5.92l7.24-14.03
				L58.57,32.29z"/>
		</g>
		<g>
			<path class="st0" d="M75.57,61.48l0.03-0.05l12.14-21.7l0.03,0.06l9.7,20.21L75.57,61.48z M87.73,39.86L75.69,61.4l21.67-1.47
				L87.73,39.86z"/>
		</g>
		<g>
			<path class="st0" d="M75.63,61.51l-0.03-0.05L58.47,32.23l0.08,0.02l29.2,7.51l0.05,0l-0.03,0.04L75.63,61.51z M58.6,32.33
				l17.02,29.04l12.06-21.56L58.6,32.33z"/>
		</g>
		<g>
			<path class="st0" d="M86.11,64.83l-0.03-0.06l16.08-11.81l0.05,0.04l-4.78,6.98l-0.01,0L86.11,64.83z M102.05,53.13l-15.7,11.53
				l11.04-4.72L102.05,53.13z"/>
		</g>
		<g>
			<path class="st0" d="M97.41,60.02l-9.7-20.22l0.05-0.04l14.47,13.22l-0.01,0.02L97.41,60.02z M87.84,39.93l9.58,19.97l4.72-6.9
				L87.84,39.93z"/>
		</g>
		<g>
			<path class="st0" d="M86.05,64.81l1.99-2.36l0.02,0l0.01,0.01l11.69,7.11l-0.03,0.06L86.05,64.81z M88.06,62.53l-1.91,2.26
				l13.3,4.67L88.06,62.53z"/>
		</g>
		<g>
			<path class="st0" d="M86.12,64.83l-0.04-0.05l1.97-2.32l14.12-9.49l0.04,0.05L86.12,64.83z M88.08,62.51l-1.77,2.1l14.59-10.71
				L88.08,62.51z"/>
		</g>
		<g>
			<polygon class="st0" points="120,81.91 99.87,69.63 109.42,70.04 120,81.3 120,81.2 109.46,69.98 109.38,69.89 109.39,69.97 
				99.75,69.56 99.73,69.62 120,81.99 			"/>
		</g>
		<g>
			<path class="st0" d="M88.04,62.51l0.03-0.06l21.4,7.52l0.01,0.06l-0.04,0l-9.7-0.41l-0.01,0L88.04,62.51z M109.22,69.96
				l-20.88-7.34l11.41,6.94L109.22,69.96z"/>
		</g>
		<g>
			<polygon class="st0" points="120,81.2 109.58,70.11 120,75.07 120,75 109.45,69.97 109.41,70.03 120,81.3 			"/>
		</g>
		<g>
			<path class="st0" d="M0.15,21.73l0.01-0.06l9.07,1.08l1.68,1.3l0.1,0.02l-0.12,0.05l-0.01-0.01L0.15,21.73z M9.2,22.8l-8.4-1
				l9.95,2.2L9.2,22.8z"/>
		</g>
		<g>
			<path class="st0" d="M18.42,30.57L18.42,30.57L9.2,22.79l0.04-0.05l15.23,11.53l-0.04,0.05L18.42,30.57z M10.2,23.55l8.26,6.96
				l5.38,3.37L10.2,23.55z"/>
		</g>
		<g>
			<path class="st0" d="M18.42,30.56l-0.01-0.01L9.2,22.79l0.04-0.05l1.67,1.3l7.55,6.47l0,0v0L18.42,30.56z M10.52,23.82l1.95,1.65
				l-1.6-1.37L10.52,23.82z"/>
		</g>
		<g>
			<path class="st0" d="M40.98,62.84l-0.03-0.05L24.42,34.31l0.05-0.04l21.98,17.48l-0.01,0.02L40.98,62.84z M24.56,34.43
				l16.42,28.28l5.39-10.94L24.56,34.43z"/>
		</g>
		<g>
			<path class="st0" d="M46.39,51.78L18.42,30.57l0.04-0.05l6,3.76l21.97,17.46L46.39,51.78z M19.04,30.95l25.09,19.03l-19.7-15.66
				L19.04,30.95z"/>
		</g>
		<g>
			<path class="st0" d="M40.72,66.86l0.23-4.09l0.01-0.01l18.8-24.53l0.01,0.09l-0.01,0.01L40.72,66.86z M41.01,62.79l-0.22,3.83
				l18.36-27.5L41.01,62.79z"/>
		</g>
		<g>
			<path class="st0" d="M41.01,62.8l-0.05-0.04l5.43-11.02l0,0l13.32-13.44l0.05-0.07l0.01,0.1l-0.01,0.01L41.01,62.8z M46.43,51.78
				l-5.28,10.72L59.39,38.7L46.43,51.78z"/>
		</g>
		<g>
			<path class="st0" d="M40.76,66.77l-0.01-0.07l34.87-5.3l0.02,0.06l-8.97,3.86h0L40.76,66.77z M75.38,61.51l-33.94,5.16l25.21-1.4
				L75.38,61.51z"/>
		</g>
		<g>
			<path class="st0" d="M40.69,66.78l0.04-0.06l19-28.46l0.03,0.04l15.93,23.17l-0.05,0.01L40.69,66.78z M59.73,38.37L40.83,66.69
				l34.75-5.28L59.73,38.37z"/>
		</g>
		<g>
			<path class="st0" d="M77.95,79.74l-0.02-0.03L66.6,65.27l30.9-5.37l-0.07,0.07L77.95,79.74z M66.72,65.32l11.23,14.32
				l19.36-19.63L66.72,65.32z"/>
		</g>
		<g>
			<path class="st0" d="M66.67,65.33l-0.02-0.06l8.97-3.86l0,0l21.78-1.48l0.01,0.07L66.67,65.33z M75.64,61.47l-8.71,3.75
				l29.85-5.18L75.64,61.47z"/>
		</g>
		<g>
			<path class="st0" d="M77.95,79.77l-1.52-3.84l0.01-0.02l9.63-11.13l0,0l0.04,0.03l0,0l0,0l0,0L77.95,79.77z M76.5,75.94
				l1.45,3.68l7.97-14.57L76.5,75.94z"/>
		</g>
		<g>
			<path class="st0" d="M77.98,79.72l-0.05-0.04l8.15-14.9l0.01,0l11.31-4.84l0.04,0.05L77.98,79.72z M86.13,64.82L78.09,79.5
				l19.18-19.45L86.13,64.82z"/>
		</g>
		<g>
			<polygon class="st0" points="81,85 76.51,75.95 99.69,69.64 92.81,85 92.88,85 99.77,69.6 99.75,69.59 99.74,69.56 76.46,75.9 
				76.42,75.91 80.93,85 			"/>
		</g>
		<g>
			<path class="st0" d="M76.37,75.99l0.07-0.08l9.65-11.15l0.02,0.01l13.74,4.83l-0.1,0.03L76.37,75.99z M86.11,64.84l-9.55,11.04
				l23.07-6.29L86.11,64.84z"/>
		</g>
		<g>
			<polygon class="st0" points="120,84.51 119.55,85 119.64,85 120,84.61 			"/>
			<polygon class="st0" points="120,83.51 116.53,85 116.7,85 120,83.59 			"/>
		</g>
		<g>
			<polygon class="st0" points="120,83.51 116.53,85 116.7,85 120,83.59 			"/>
			<polygon class="st0" points="120,81.91 99.76,69.56 99.73,69.54 92.81,85 92.88,85 99.76,69.64 120,81.99 			"/>
		</g>
	</g>
	<path class="st0" d="M111.86,4.75c-0.08,0.14-0.26,0.18-0.39,0.09c-0.13-0.08-0.18-0.26-0.09-0.4c0.08-0.14,0.26-0.18,0.39-0.09
		C111.9,4.44,111.94,4.62,111.86,4.75z"/>
	<path class="st0" d="M111.86,4.76c-0.08,0.14-0.26,0.18-0.4,0.1c-0.14-0.09-0.18-0.27-0.09-0.41c0.09-0.14,0.26-0.18,0.4-0.1
		C111.9,4.44,111.95,4.62,111.86,4.76z"/>
	<path class="st0" d="M112.05,4.88c-0.15,0.25-0.47,0.32-0.71,0.17c-0.24-0.15-0.32-0.48-0.17-0.72c0.15-0.25,0.47-0.32,0.71-0.17
		C112.13,4.31,112.2,4.63,112.05,4.88z"/>
	<path class="st0" d="M105.31,14.14c-0.1,0.17-0.32,0.22-0.49,0.12c-0.17-0.1-0.22-0.33-0.12-0.5c0.1-0.17,0.32-0.22,0.49-0.12
		C105.37,13.75,105.42,13.97,105.31,14.14z"/>
	<path class="st0" d="M105.38,14.18c-0.13,0.21-0.39,0.27-0.59,0.14c-0.2-0.13-0.27-0.4-0.14-0.6c0.13-0.21,0.39-0.27,0.59-0.14
		C105.44,13.71,105.5,13.98,105.38,14.18z"/>
	<path class="st0" d="M105.32,14.14c-0.1,0.17-0.33,0.22-0.5,0.12c-0.17-0.11-0.22-0.33-0.12-0.5c0.1-0.17,0.33-0.22,0.5-0.12
		C105.37,13.75,105.42,13.97,105.32,14.14z"/>
	<path class="st0" d="M111.99,4.84c-0.13,0.21-0.4,0.28-0.61,0.15c-0.21-0.13-0.27-0.41-0.14-0.62c0.13-0.21,0.4-0.28,0.61-0.15
		C112.05,4.35,112.12,4.63,111.99,4.84z"/>
	<path class="st0" d="M111.94,4.8c-0.11,0.18-0.34,0.24-0.52,0.12c-0.18-0.11-0.23-0.35-0.12-0.53c0.11-0.18,0.34-0.24,0.52-0.12
		C111.99,4.39,112.05,4.62,111.94,4.8z"/>
	<path class="st0" d="M111.98,4.83c-0.13,0.21-0.39,0.27-0.59,0.14c-0.2-0.13-0.26-0.4-0.14-0.6c0.13-0.2,0.39-0.27,0.59-0.14
		C112.04,4.36,112.1,4.63,111.98,4.83z"/>
	<path class="st0" d="M111.72,4.67c-0.04,0.06-0.11,0.08-0.17,0.04c-0.06-0.04-0.08-0.12-0.04-0.18c0.04-0.06,0.12-0.08,0.17-0.04
		C111.74,4.53,111.76,4.61,111.72,4.67z"/>
	<path class="st0" d="M111.79,4.71c-0.06,0.1-0.19,0.13-0.29,0.07c-0.1-0.06-0.13-0.19-0.07-0.29c0.06-0.1,0.19-0.13,0.29-0.07
		C111.82,4.48,111.85,4.61,111.79,4.71z"/>
	<path class="st0" d="M85,6.43c-0.08,0.13-0.24,0.17-0.37,0.09c-0.12-0.08-0.16-0.25-0.09-0.37c0.08-0.13,0.24-0.17,0.37-0.09
		S85.08,6.31,85,6.43z"/>
	<path class="st0" d="M105.15,14.04c-0.05,0.08-0.15,0.1-0.23,0.06c-0.08-0.05-0.1-0.15-0.05-0.23c0.05-0.08,0.15-0.1,0.23-0.06
		C105.18,13.86,105.2,13.96,105.15,14.04z"/>
	<path class="st0" d="M100.36,13.19c-0.05,0.09-0.16,0.11-0.25,0.06c-0.08-0.05-0.11-0.17-0.06-0.25c0.05-0.09,0.16-0.11,0.25-0.06
		C100.38,12.99,100.41,13.1,100.36,13.19z"/>
	<path class="st0" d="M85.05,6.47c-0.09,0.16-0.3,0.2-0.45,0.11c-0.15-0.1-0.2-0.3-0.11-0.46c0.1-0.16,0.3-0.2,0.45-0.11
		C85.1,6.11,85.15,6.31,85.05,6.47z"/>
	<path class="st0" d="M105.5,14.26c-0.17,0.27-0.52,0.36-0.79,0.19c-0.27-0.17-0.35-0.53-0.18-0.8c0.17-0.27,0.52-0.36,0.79-0.19
		C105.58,13.63,105.66,13.98,105.5,14.26z"/>
	<path class="st0" d="M105.75,14.42c-0.25,0.41-0.79,0.54-1.19,0.29c-0.41-0.26-0.53-0.8-0.28-1.21c0.25-0.41,0.79-0.54,1.19-0.29
		C105.88,13.46,106,14,105.75,14.42z"/>
	<path class="st0" d="M85.02,6.44c-0.08,0.14-0.26,0.18-0.39,0.09c-0.13-0.08-0.17-0.26-0.09-0.4c0.08-0.14,0.26-0.18,0.39-0.09
		C85.06,6.13,85.1,6.31,85.02,6.44z"/>
	<path class="st0" d="M105.23,14.09c-0.08,0.13-0.24,0.16-0.36,0.09c-0.12-0.08-0.16-0.24-0.08-0.37c0.08-0.13,0.24-0.16,0.36-0.09
		C105.27,13.8,105.31,13.97,105.23,14.09z"/>
	<path class="st0" d="M91.68,27.05c-0.07,0.11-0.21,0.14-0.32,0.08c-0.11-0.07-0.14-0.21-0.07-0.32c0.07-0.11,0.21-0.14,0.32-0.08
		C91.72,26.79,91.75,26.94,91.68,27.05z"/>
	<path class="st0" d="M100.61,13.35c-0.14,0.23-0.44,0.3-0.66,0.16c-0.23-0.14-0.3-0.44-0.16-0.67s0.44-0.3,0.66-0.16
		C100.68,12.82,100.75,13.12,100.61,13.35z"/>
	<path class="st0" d="M105.16,14.04c-0.05,0.08-0.16,0.11-0.24,0.06c-0.08-0.05-0.11-0.16-0.06-0.24c0.05-0.08,0.16-0.11,0.24-0.06
		C105.18,13.85,105.21,13.96,105.16,14.04z"/>
	<path class="st0" d="M100.48,13.27c-0.09,0.16-0.3,0.2-0.45,0.11c-0.15-0.1-0.2-0.3-0.11-0.46c0.09-0.16,0.3-0.2,0.45-0.11
		C100.53,12.91,100.58,13.11,100.48,13.27z"/>
	<path class="st0" d="M102.11,35.14c-0.05,0.09-0.17,0.12-0.25,0.06c-0.09-0.05-0.11-0.17-0.06-0.26c0.05-0.09,0.17-0.12,0.25-0.06
		C102.13,34.94,102.16,35.05,102.11,35.14z"/>
	<path class="st0" d="M91.75,27.08c-0.09,0.14-0.27,0.19-0.42,0.1c-0.14-0.09-0.19-0.28-0.1-0.42c0.09-0.14,0.27-0.19,0.42-0.1
		C91.79,26.75,91.83,26.94,91.75,27.08z"/>
	<path class="st0" d="M92.01,27.25c-0.18,0.29-0.55,0.38-0.84,0.2c-0.29-0.18-0.38-0.56-0.2-0.85c0.18-0.29,0.55-0.38,0.84-0.2
		C92.1,26.58,92.19,26.96,92.01,27.25z"/>
	<path class="st0" d="M102.43,35.34c-0.16,0.27-0.51,0.35-0.77,0.18c-0.26-0.17-0.34-0.52-0.18-0.78c0.16-0.27,0.51-0.35,0.77-0.18
		C102.51,34.73,102.59,35.08,102.43,35.34z"/>
	<path class="st0" d="M102.17,35.18c-0.08,0.13-0.24,0.16-0.36,0.09s-0.16-0.24-0.08-0.37c0.08-0.13,0.24-0.16,0.36-0.09
		C102.21,34.89,102.25,35.06,102.17,35.18z"/>
	<path class="st0" d="M38.86,13.34c-0.17,0.28-0.54,0.37-0.82,0.2c-0.28-0.17-0.36-0.55-0.19-0.83c0.17-0.28,0.54-0.37,0.82-0.19
		C38.94,12.69,39.03,13.06,38.86,13.34z"/>
	<path class="st0" d="M47.67,15.91c-0.07,0.11-0.21,0.15-0.32,0.08c-0.11-0.07-0.14-0.21-0.08-0.33c0.07-0.11,0.21-0.15,0.32-0.08
		C47.71,15.65,47.74,15.8,47.67,15.91z"/>
	<path class="st0" d="M38.99,13.43c-0.22,0.36-0.68,0.47-1.04,0.25c-0.35-0.22-0.46-0.69-0.24-1.05c0.22-0.36,0.68-0.47,1.04-0.25
		C39.1,12.6,39.21,13.07,38.99,13.43z"/>
	<path class="st0" d="M38.56,13.15c-0.07,0.11-0.22,0.15-0.33,0.08c-0.11-0.07-0.15-0.22-0.08-0.33c0.07-0.11,0.22-0.15,0.33-0.08
		C38.59,12.89,38.62,13.04,38.56,13.15z"/>
	<path class="st0" d="M55.28,0.68c-0.07,0.12-0.22,0.15-0.33,0.08c-0.11-0.07-0.15-0.22-0.08-0.34c0.07-0.12,0.22-0.15,0.33-0.08
		C55.31,0.41,55.35,0.56,55.28,0.68z"/>
	<path class="st0" d="M47.81,15.99c-0.11,0.19-0.36,0.25-0.54,0.13c-0.18-0.12-0.24-0.36-0.13-0.55c0.11-0.19,0.36-0.25,0.54-0.13
		C47.86,15.56,47.92,15.81,47.81,15.99z"/>
	<path class="st0" d="M47.92,16.07c-0.15,0.25-0.48,0.33-0.73,0.17c-0.25-0.16-0.33-0.49-0.17-0.74c0.15-0.25,0.48-0.33,0.73-0.17
		C48,15.48,48.08,15.81,47.92,16.07z"/>
	<path class="st0" d="M60.19,20.71c-0.11,0.17-0.33,0.23-0.5,0.12c-0.17-0.11-0.22-0.34-0.12-0.51c0.11-0.17,0.33-0.23,0.5-0.12
		C60.24,20.31,60.3,20.54,60.19,20.71z"/>
	<path class="st0" d="M55.34,0.11c-0.01-0.01-0.02-0.01-0.03-0.02h-0.48c-0.08,0.04-0.15,0.1-0.2,0.19C54.48,0.52,54.56,0.84,54.8,1
		c0.24,0.15,0.56,0.08,0.71-0.17C55.66,0.58,55.58,0.26,55.34,0.11z"/>
	<path class="st0" d="M85.03,6.45c-0.09,0.15-0.28,0.19-0.42,0.1c-0.14-0.09-0.19-0.28-0.1-0.43c0.09-0.15,0.28-0.19,0.42-0.1
		C85.08,6.12,85.12,6.31,85.03,6.45z"/>
	<path class="st0" d="M89.18,40.4c-0.09,0.14-0.27,0.19-0.41,0.1c-0.14-0.09-0.18-0.28-0.1-0.42c0.09-0.14,0.27-0.19,0.41-0.1
		C89.23,40.07,89.27,40.26,89.18,40.4z"/>
	<path class="st0" d="M60.04,20.62c-0.06,0.09-0.17,0.12-0.26,0.06c-0.09-0.06-0.12-0.18-0.06-0.27c0.06-0.09,0.17-0.12,0.26-0.06
		C60.07,20.41,60.1,20.53,60.04,20.62z"/>
	<path class="st0" d="M85.05,6.46c-0.09,0.16-0.29,0.2-0.45,0.11c-0.15-0.1-0.2-0.3-0.11-0.45c0.09-0.15,0.29-0.2,0.45-0.11
		C85.1,6.11,85.14,6.31,85.05,6.46z"/>
	<path class="st0" d="M85.27,6.6c-0.17,0.28-0.53,0.36-0.8,0.19c-0.27-0.17-0.36-0.54-0.19-0.82c0.17-0.28,0.53-0.36,0.8-0.19
		C85.35,5.96,85.44,6.32,85.27,6.6z"/>
	<path class="st0" d="M60.15,20.69c-0.09,0.15-0.29,0.2-0.44,0.11c-0.15-0.1-0.2-0.3-0.1-0.45c0.09-0.15,0.29-0.2,0.44-0.11
		C60.2,20.33,60.25,20.54,60.15,20.69z"/>
	<path class="st0" d="M85.17,6.54c-0.13,0.22-0.42,0.29-0.64,0.15c-0.22-0.14-0.29-0.43-0.15-0.65c0.13-0.22,0.42-0.29,0.64-0.15
		C85.24,6.03,85.3,6.32,85.17,6.54z"/>
	<path class="st0" d="M100.5,13.28c-0.1,0.17-0.32,0.22-0.48,0.12c-0.17-0.1-0.22-0.32-0.11-0.49c0.1-0.17,0.32-0.22,0.48-0.11
		C100.55,12.9,100.6,13.11,100.5,13.28z"/>
	<path class="st0" d="M104.8,39.4c-0.12,0.19-0.36,0.25-0.55,0.13c-0.19-0.12-0.24-0.37-0.13-0.55c0.12-0.19,0.36-0.25,0.54-0.13
		C104.86,38.97,104.92,39.22,104.8,39.4z"/>
	<path class="st0" d="M89.22,40.43c-0.1,0.16-0.31,0.22-0.48,0.11c-0.16-0.1-0.21-0.32-0.11-0.48c0.1-0.17,0.31-0.22,0.48-0.11
		C89.27,40.05,89.32,40.26,89.22,40.43z"/>
	<path class="st0" d="M100.46,13.25c-0.09,0.14-0.27,0.19-0.41,0.1c-0.14-0.09-0.18-0.27-0.1-0.42c0.09-0.14,0.27-0.19,0.41-0.1
		C100.5,12.92,100.55,13.11,100.46,13.25z"/>
	<path class="st0" d="M100.54,13.3c-0.11,0.19-0.36,0.25-0.54,0.13c-0.19-0.12-0.24-0.36-0.13-0.55c0.11-0.19,0.36-0.25,0.54-0.13
		C100.6,12.87,100.65,13.12,100.54,13.3z"/>
	<path class="st0" d="M84.95,6.4c-0.06,0.1-0.19,0.13-0.29,0.07c-0.1-0.06-0.13-0.19-0.07-0.29c0.06-0.1,0.19-0.13,0.29-0.07
		C84.98,6.17,85.01,6.3,84.95,6.4z"/>
	<path class="st0" d="M89.2,40.41c-0.09,0.15-0.29,0.2-0.44,0.1c-0.15-0.09-0.2-0.29-0.1-0.45c0.09-0.15,0.29-0.2,0.44-0.1
		C89.25,40.06,89.29,40.26,89.2,40.41z"/>
	<path class="st0" d="M100.48,13.27c-0.09,0.16-0.3,0.2-0.45,0.11c-0.15-0.1-0.2-0.3-0.11-0.46c0.09-0.16,0.3-0.2,0.45-0.11
		C100.53,12.91,100.58,13.11,100.48,13.27z"/>
	<path class="st0" d="M91.79,27.11c-0.1,0.17-0.33,0.22-0.49,0.12c-0.17-0.11-0.22-0.33-0.12-0.5c0.1-0.17,0.32-0.22,0.49-0.12
		C91.84,26.72,91.9,26.94,91.79,27.11z"/>
	<path class="st0" d="M116.2,48.9c-0.15,0.24-0.46,0.31-0.69,0.17c-0.24-0.15-0.31-0.46-0.16-0.7c0.15-0.24,0.46-0.31,0.69-0.17
		C116.27,48.35,116.34,48.66,116.2,48.9z"/>
	<path class="st0" d="M104.59,39.27c-0.04,0.07-0.14,0.09-0.21,0.05c-0.07-0.04-0.09-0.14-0.05-0.21c0.04-0.07,0.14-0.09,0.21-0.05
		C104.61,39.11,104.64,39.2,104.59,39.27z"/>
	<path class="st0" d="M91.63,27.01c-0.05,0.08-0.15,0.1-0.22,0.05c-0.08-0.05-0.1-0.15-0.05-0.23c0.05-0.08,0.15-0.1,0.22-0.05
		C91.65,26.83,91.67,26.93,91.63,27.01z"/>
	<path class="st0" d="M91.55,26.96c-0.02,0.04-0.07,0.05-0.1,0.02c-0.04-0.02-0.05-0.07-0.02-0.11c0.02-0.04,0.07-0.05,0.1-0.02
		C91.56,26.88,91.57,26.93,91.55,26.96z"/>
	<path class="st0" d="M100.57,13.32c-0.13,0.21-0.39,0.27-0.59,0.14c-0.2-0.13-0.26-0.4-0.14-0.6c0.13-0.21,0.39-0.27,0.59-0.14
		C100.63,12.85,100.7,13.12,100.57,13.32z"/>
	<path class="st0" d="M104.68,39.33c-0.07,0.12-0.23,0.16-0.35,0.08c-0.12-0.07-0.16-0.23-0.08-0.35c0.07-0.12,0.23-0.16,0.35-0.08
		C104.72,39.05,104.75,39.21,104.68,39.33z"/>
	<path class="st0" d="M91.7,27.06c-0.07,0.12-0.22,0.15-0.34,0.08c-0.12-0.07-0.15-0.23-0.08-0.34c0.07-0.12,0.22-0.15,0.34-0.08
		C91.73,26.78,91.77,26.94,91.7,27.06z"/>
	<path class="st0" d="M102.17,35.18c-0.07,0.12-0.23,0.16-0.35,0.08c-0.12-0.08-0.16-0.24-0.08-0.36c0.07-0.12,0.23-0.16,0.35-0.08
		C102.21,34.9,102.24,35.06,102.17,35.18z"/>
	<path class="st0" d="M118.46,52.33c-0.08,0.13-0.25,0.17-0.38,0.09c-0.13-0.08-0.17-0.25-0.09-0.39c0.08-0.13,0.25-0.17,0.38-0.09
		C118.5,52.03,118.54,52.2,118.46,52.33z"/>
	<path class="st0" d="M116,48.78c-0.08,0.13-0.25,0.17-0.37,0.09c-0.13-0.08-0.17-0.25-0.09-0.38c0.08-0.13,0.25-0.17,0.37-0.09
		C116.04,48.48,116.08,48.65,116,48.78z"/>
	<path class="st0" d="M102.28,35.25c-0.11,0.18-0.35,0.24-0.53,0.13c-0.18-0.11-0.24-0.35-0.12-0.54c0.11-0.18,0.35-0.24,0.53-0.13
		C102.33,34.83,102.39,35.07,102.28,35.25z"/>
	<path class="st0" d="M102.16,35.17c-0.07,0.11-0.22,0.15-0.33,0.08c-0.11-0.07-0.15-0.22-0.08-0.34c0.07-0.11,0.22-0.15,0.33-0.08
		C102.19,34.91,102.22,35.06,102.16,35.17z"/>
	<path class="st0" d="M91.92,27.19c-0.15,0.24-0.46,0.32-0.7,0.17c-0.24-0.15-0.31-0.47-0.16-0.71c0.15-0.24,0.46-0.32,0.7-0.17
		C91.99,26.64,92.07,26.95,91.92,27.19z"/>
	<path class="st0" d="M116.07,48.82c-0.1,0.17-0.33,0.22-0.49,0.12c-0.17-0.11-0.22-0.33-0.12-0.5c0.1-0.17,0.33-0.22,0.49-0.12
		C116.13,48.43,116.18,48.65,116.07,48.82z"/>
	<path class="st0" d="M102.18,35.19c-0.08,0.13-0.24,0.17-0.36,0.09c-0.12-0.08-0.16-0.24-0.08-0.37c0.08-0.13,0.24-0.17,0.36-0.09
		C102.21,34.89,102.25,35.06,102.18,35.19z"/>
	<path class="st0" d="M118.46,52.33c-0.08,0.13-0.26,0.18-0.39,0.09c-0.13-0.08-0.17-0.26-0.09-0.4c0.08-0.13,0.26-0.18,0.39-0.09
		C118.51,52.02,118.55,52.2,118.46,52.33z"/>
	<path class="st0" d="M102.3,35.27c-0.12,0.2-0.38,0.26-0.57,0.14c-0.2-0.12-0.26-0.38-0.13-0.58c0.12-0.2,0.38-0.26,0.57-0.14
		C102.37,34.81,102.43,35.07,102.3,35.27z"/>
	<path class="st0" d="M118.49,52.35c-0.09,0.15-0.28,0.19-0.43,0.1c-0.15-0.09-0.19-0.29-0.1-0.43c0.09-0.15,0.28-0.19,0.43-0.1
		C118.53,52.01,118.58,52.2,118.49,52.35z"/>
	<path class="st0" d="M38.51,13.13c-0.05,0.09-0.17,0.12-0.26,0.06c-0.09-0.06-0.12-0.17-0.06-0.26c0.05-0.09,0.17-0.12,0.26-0.06
		C38.54,12.92,38.57,13.04,38.51,13.13z"/>
	<path class="st0" d="M29.18,19.98c-0.1,0.16-0.3,0.21-0.45,0.11c-0.15-0.1-0.2-0.3-0.11-0.46c0.1-0.16,0.3-0.21,0.45-0.11
		C29.23,19.62,29.27,19.82,29.18,19.98z"/>
	<path class="st0" d="M1.6,5.94c-0.18,0.3-0.57,0.39-0.86,0.21c-0.29-0.18-0.38-0.57-0.2-0.87c0.18-0.3,0.57-0.39,0.86-0.2
		C1.69,5.25,1.78,5.64,1.6,5.94z"/>
	<path class="st0" d="M38.62,13.19c-0.09,0.15-0.28,0.19-0.43,0.1c-0.15-0.09-0.19-0.28-0.1-0.43c0.09-0.15,0.28-0.19,0.43-0.1
		C38.66,12.85,38.71,13.04,38.62,13.19z"/>
	<path class="st0" d="M47.63,15.88c-0.05,0.09-0.17,0.11-0.25,0.06c-0.09-0.05-0.11-0.17-0.06-0.25c0.05-0.09,0.16-0.11,0.25-0.06
		C47.65,15.68,47.68,15.79,47.63,15.88z"/>
	<path class="st0" d="M38.34,9.86c-0.08,0.14-0.26,0.18-0.39,0.09c-0.13-0.08-0.18-0.26-0.09-0.4c0.08-0.14,0.26-0.18,0.39-0.09
		C38.39,9.54,38.43,9.72,38.34,9.86z"/>
	<path class="st0" d="M29.04,19.89c-0.05,0.08-0.15,0.1-0.23,0.06c-0.08-0.05-0.1-0.15-0.05-0.23c0.05-0.08,0.15-0.1,0.23-0.05
		C29.06,19.71,29.09,19.81,29.04,19.89z"/>
	<path class="st0" d="M47.88,16.04c-0.14,0.23-0.44,0.3-0.66,0.16c-0.23-0.14-0.3-0.44-0.16-0.67c0.14-0.23,0.44-0.3,0.66-0.16
		C47.95,15.51,48.02,15.81,47.88,16.04z"/>
	<path class="st0" d="M47.66,15.9c-0.07,0.11-0.2,0.14-0.31,0.07c-0.11-0.07-0.14-0.21-0.07-0.31c0.06-0.11,0.2-0.14,0.31-0.07
		C47.7,15.66,47.73,15.8,47.66,15.9z"/>
	<path class="st0" d="M38.51,13.12c-0.05,0.09-0.17,0.11-0.25,0.06c-0.09-0.05-0.11-0.17-0.06-0.26c0.05-0.09,0.17-0.11,0.25-0.06
		C38.53,12.92,38.56,13.04,38.51,13.12z"/>
	<path class="st0" d="M29.38,20.1c-0.16,0.27-0.51,0.35-0.77,0.19c-0.26-0.17-0.35-0.52-0.18-0.79c0.16-0.27,0.51-0.35,0.77-0.19
		C29.46,19.48,29.54,19.83,29.38,20.1z"/>
	<path class="st0" d="M47.73,15.94c-0.09,0.14-0.27,0.19-0.41,0.1c-0.14-0.09-0.18-0.28-0.1-0.42c0.09-0.14,0.27-0.19,0.41-0.1
		C47.77,15.61,47.82,15.8,47.73,15.94z"/>
	<path class="st0" d="M67.22,24.1c-0.04,0.07-0.13,0.09-0.19,0.05c-0.07-0.04-0.09-0.13-0.05-0.2c0.04-0.07,0.13-0.09,0.19-0.05
		C67.25,23.94,67.27,24.03,67.22,24.1z"/>
	<path class="st0" d="M38.23,9.79c-0.04,0.07-0.14,0.1-0.21,0.05c-0.07-0.05-0.09-0.14-0.05-0.22c0.04-0.07,0.14-0.1,0.21-0.05
		C38.25,9.62,38.28,9.72,38.23,9.79z"/>
	<path class="st0" d="M47.66,15.9c-0.06,0.11-0.2,0.14-0.31,0.07c-0.1-0.07-0.14-0.2-0.07-0.31c0.06-0.11,0.2-0.14,0.31-0.07
		C47.69,15.66,47.73,15.8,47.66,15.9z"/>
	<path class="st0" d="M38.34,9.86c-0.08,0.13-0.25,0.17-0.39,0.09c-0.13-0.08-0.17-0.26-0.09-0.39c0.08-0.13,0.25-0.17,0.39-0.09
		C38.38,9.55,38.42,9.72,38.34,9.86z"/>
	<path class="st0" d="M54.03,0.59c-0.07,0.12-0.22,0.15-0.34,0.08c-0.12-0.07-0.15-0.23-0.08-0.34c0.07-0.12,0.22-0.15,0.34-0.08
		C54.06,0.32,54.1,0.47,54.03,0.59z"/>
	<path class="st0" d="M59.98,20.58c-0.04,0.06-0.11,0.08-0.17,0.04c-0.06-0.04-0.08-0.11-0.04-0.17c0.04-0.06,0.11-0.08,0.17-0.04
		C60,20.45,60.02,20.52,59.98,20.58z"/>
	<path class="st0" d="M59.02,32.59c-0.17,0.27-0.52,0.36-0.79,0.19c-0.27-0.17-0.35-0.53-0.19-0.8c0.17-0.27,0.52-0.36,0.79-0.19
		C59.11,31.96,59.19,32.31,59.02,32.59z"/>
	<path class="st0" d="M67.45,24.24c-0.12,0.19-0.37,0.25-0.56,0.13c-0.19-0.12-0.25-0.37-0.13-0.56c0.12-0.19,0.37-0.25,0.56-0.13
		C67.51,23.79,67.57,24.05,67.45,24.24z"/>
	<path class="st0" d="M60.35,20.81c-0.16,0.26-0.5,0.34-0.75,0.18c-0.26-0.16-0.34-0.5-0.18-0.77c0.16-0.26,0.5-0.34,0.75-0.18
		C60.43,20.21,60.5,20.55,60.35,20.81z"/>
	<path class="st0" d="M60.05,20.62c-0.06,0.09-0.18,0.12-0.27,0.06c-0.09-0.06-0.12-0.18-0.06-0.27c0.06-0.09,0.18-0.12,0.27-0.06
		C60.07,20.41,60.1,20.53,60.05,20.62z"/>
	<path class="st0" d="M67.42,24.22c-0.11,0.18-0.34,0.23-0.51,0.12c-0.17-0.11-0.23-0.34-0.12-0.52c0.11-0.18,0.34-0.23,0.51-0.12
		C67.47,23.81,67.53,24.05,67.42,24.22z"/>
	<path class="st0" d="M60.26,20.76c-0.13,0.21-0.41,0.28-0.62,0.15c-0.21-0.13-0.28-0.41-0.15-0.63c0.13-0.21,0.41-0.28,0.62-0.15
		C60.33,20.26,60.39,20.54,60.26,20.76z"/>
	<path class="st0" d="M89.2,40.41c-0.09,0.15-0.29,0.2-0.44,0.1c-0.15-0.09-0.2-0.29-0.1-0.44c0.09-0.15,0.29-0.2,0.44-0.1
		C89.25,40.06,89.29,40.26,89.2,40.41z"/>
	<path class="st0" d="M87.92,39.91c-0.06,0.1-0.2,0.14-0.3,0.07c-0.1-0.06-0.13-0.2-0.07-0.3c0.06-0.1,0.2-0.14,0.3-0.07
		C87.95,39.67,87.99,39.8,87.92,39.91z"/>
	<path class="st0" d="M59.2,32.7c-0.23,0.37-0.71,0.49-1.08,0.26c-0.37-0.23-0.48-0.72-0.25-1.1c0.23-0.37,0.71-0.49,1.08-0.26
		C59.32,31.83,59.43,32.33,59.2,32.7z"/>
	<path class="st0" d="M89.1,40.35c-0.06,0.1-0.18,0.13-0.28,0.07c-0.09-0.06-0.12-0.19-0.07-0.28c0.06-0.1,0.18-0.13,0.28-0.07
		C89.13,40.13,89.16,40.25,89.1,40.35z"/>
	<path class="st0" d="M89.37,40.52c-0.15,0.25-0.47,0.32-0.71,0.17c-0.24-0.15-0.32-0.48-0.17-0.72c0.15-0.25,0.47-0.32,0.71-0.17
		C89.44,39.95,89.52,40.27,89.37,40.52z"/>
	<path class="st0" d="M60.11,20.66c-0.08,0.13-0.24,0.17-0.37,0.09c-0.13-0.08-0.16-0.25-0.09-0.37c0.08-0.13,0.24-0.17,0.37-0.09
		S60.18,20.53,60.11,20.66z"/>
	<path class="st0" d="M58.78,32.44c-0.08,0.14-0.26,0.18-0.4,0.09c-0.13-0.08-0.18-0.27-0.09-0.4c0.08-0.14,0.26-0.18,0.4-0.09
		C58.82,32.12,58.86,32.3,58.78,32.44z"/>
	<path class="st0" d="M89.14,40.38c-0.07,0.12-0.23,0.16-0.34,0.08c-0.12-0.07-0.15-0.23-0.08-0.35c0.07-0.12,0.23-0.16,0.34-0.08
		C89.18,40.1,89.21,40.26,89.14,40.38z"/>
	<path class="st0" d="M104.8,39.4c-0.11,0.19-0.35,0.24-0.54,0.13c-0.18-0.12-0.24-0.36-0.13-0.54c0.11-0.19,0.35-0.24,0.54-0.13
		C104.85,38.97,104.91,39.21,104.8,39.4z"/>
	<path class="st0" d="M102.42,53.14c-0.08,0.13-0.25,0.17-0.39,0.09c-0.13-0.08-0.17-0.26-0.09-0.39c0.08-0.13,0.25-0.17,0.39-0.09
		C102.46,52.83,102.5,53.01,102.42,53.14z"/>
	<path class="st0" d="M88.08,40c-0.12,0.19-0.36,0.25-0.55,0.13c-0.19-0.12-0.24-0.37-0.13-0.56c0.12-0.19,0.36-0.25,0.55-0.13
		C88.13,39.56,88.19,39.81,88.08,40z"/>
	<path class="st0" d="M104.75,39.37c-0.1,0.16-0.3,0.21-0.46,0.11c-0.16-0.1-0.2-0.31-0.11-0.46c0.1-0.16,0.3-0.21,0.46-0.11
		C104.8,39,104.84,39.21,104.75,39.37z"/>
	<path class="st0" d="M104.7,39.34c-0.08,0.13-0.25,0.17-0.38,0.09c-0.13-0.08-0.17-0.25-0.09-0.38c0.08-0.13,0.25-0.17,0.38-0.09
		C104.74,39.04,104.78,39.21,104.7,39.34z"/>
	<path class="st0" d="M89.04,40.31c-0.04,0.06-0.11,0.08-0.17,0.04c-0.06-0.04-0.08-0.11-0.04-0.17c0.04-0.06,0.11-0.08,0.17-0.04
		C89.05,40.17,89.07,40.25,89.04,40.31z"/>
	<path class="st0" d="M88.01,39.96c-0.09,0.15-0.29,0.2-0.44,0.11c-0.15-0.09-0.2-0.3-0.1-0.45c0.09-0.15,0.29-0.2,0.44-0.11
		C88.06,39.61,88.1,39.81,88.01,39.96z"/>
	<path class="st0" d="M104.95,39.49c-0.16,0.27-0.51,0.35-0.78,0.19c-0.26-0.17-0.35-0.52-0.18-0.79c0.16-0.27,0.51-0.35,0.78-0.19
		C105.03,38.87,105.11,39.23,104.95,39.49z"/>
	<path class="st0" d="M116.06,48.82c-0.1,0.17-0.32,0.22-0.48,0.12c-0.16-0.1-0.21-0.32-0.11-0.49c0.1-0.17,0.32-0.22,0.48-0.11
		C116.12,48.43,116.17,48.65,116.06,48.82z"/>
	<path class="st0" d="M88.4,62.7c-0.12,0.19-0.37,0.25-0.56,0.13c-0.19-0.12-0.25-0.38-0.13-0.57c0.12-0.19,0.37-0.25,0.56-0.13
		C88.46,62.25,88.52,62.51,88.4,62.7z"/>
	<path class="st0" d="M102.42,53.14c-0.08,0.13-0.26,0.18-0.39,0.09c-0.13-0.08-0.17-0.26-0.09-0.4c0.08-0.13,0.26-0.18,0.39-0.09
		C102.47,52.83,102.51,53.01,102.42,53.14z"/>
	<path class="st0" d="M115.93,48.73c-0.06,0.09-0.17,0.12-0.26,0.06c-0.09-0.06-0.12-0.18-0.06-0.27c0.06-0.09,0.17-0.12,0.26-0.06
		C115.96,48.52,115.99,48.64,115.93,48.73z"/>
	<path class="st0" d="M115.94,48.74c-0.06,0.1-0.19,0.13-0.28,0.07c-0.1-0.06-0.13-0.19-0.07-0.29c0.06-0.1,0.19-0.13,0.28-0.07
		C115.97,48.51,116,48.64,115.94,48.74z"/>
	<path class="st0" d="M104.65,39.31c-0.06,0.1-0.2,0.14-0.3,0.07c-0.1-0.06-0.13-0.2-0.07-0.3c0.06-0.1,0.2-0.14,0.3-0.07
		C104.68,39.07,104.71,39.2,104.65,39.31z"/>
	<path class="st0" d="M102.6,53.25c-0.14,0.23-0.44,0.3-0.67,0.16c-0.23-0.14-0.3-0.45-0.16-0.68c0.14-0.23,0.44-0.3,0.67-0.16
		C102.67,52.71,102.74,53.02,102.6,53.25z"/>
	<path class="st0" d="M116.2,48.9c-0.15,0.24-0.46,0.32-0.7,0.17c-0.24-0.15-0.31-0.47-0.17-0.71c0.15-0.24,0.46-0.32,0.7-0.17
		C116.28,48.34,116.35,48.66,116.2,48.9z"/>
	<path class="st0" d="M118.58,52.41c-0.12,0.2-0.38,0.26-0.58,0.14c-0.2-0.12-0.26-0.39-0.14-0.59c0.12-0.2,0.38-0.26,0.58-0.14
		C118.64,51.94,118.7,52.21,118.58,52.41z"/>
	<path class="st0" d="M109.55,70.07c-0.04,0.06-0.12,0.08-0.18,0.04c-0.06-0.04-0.08-0.12-0.04-0.18c0.04-0.06,0.12-0.08,0.18-0.04
		C109.57,69.93,109.58,70.01,109.55,70.07z"/>
	<path class="st0" d="M88.21,62.58c-0.05,0.09-0.17,0.12-0.26,0.06c-0.09-0.05-0.11-0.17-0.06-0.26c0.05-0.09,0.17-0.12,0.26-0.06
		C88.24,62.38,88.27,62.5,88.21,62.58z"/>
	<path class="st0" d="M118.51,52.36c-0.1,0.16-0.3,0.21-0.46,0.11c-0.16-0.1-0.21-0.31-0.11-0.47c0.1-0.16,0.3-0.21,0.46-0.11
		C118.56,51.99,118.61,52.2,118.51,52.36z"/>
	<path class="st0" d="M118.45,52.32c-0.08,0.13-0.24,0.17-0.36,0.09c-0.12-0.08-0.16-0.24-0.09-0.37c0.08-0.13,0.24-0.17,0.36-0.09
		C118.49,52.03,118.53,52.2,118.45,52.32z"/>
	<path class="st0" d="M115.92,48.73c-0.05,0.09-0.17,0.11-0.25,0.06c-0.09-0.05-0.11-0.17-0.06-0.26c0.05-0.09,0.17-0.11,0.25-0.06
		C115.95,48.53,115.98,48.64,115.92,48.73z"/>
	<path class="st0" d="M88.26,62.61c-0.07,0.11-0.22,0.15-0.33,0.08c-0.11-0.07-0.15-0.22-0.08-0.34c0.07-0.12,0.22-0.15,0.33-0.08
		C88.3,62.35,88.33,62.5,88.26,62.61z"/>
	<path class="st0" d="M118.6,52.42c-0.13,0.21-0.4,0.27-0.6,0.14c-0.21-0.13-0.27-0.4-0.14-0.61c0.13-0.21,0.4-0.27,0.6-0.14
		C118.66,51.93,118.73,52.21,118.6,52.42z"/>
	<path class="st0" d="M109.82,70.25c-0.13,0.22-0.41,0.28-0.63,0.15c-0.21-0.13-0.28-0.42-0.15-0.63c0.13-0.22,0.41-0.28,0.62-0.15
		C109.89,69.75,109.95,70.03,109.82,70.25z"/>
	<path class="st0" d="M118.4,52.29c-0.06,0.1-0.18,0.13-0.28,0.07c-0.1-0.06-0.13-0.19-0.07-0.29c0.06-0.1,0.18-0.13,0.28-0.07
		C118.43,52.07,118.46,52.19,118.4,52.29z"/>
	<path class="st0" d="M109.58,70.09c-0.05,0.08-0.16,0.11-0.24,0.06c-0.08-0.05-0.11-0.16-0.06-0.24c0.05-0.08,0.16-0.11,0.24-0.06
		C109.61,69.91,109.63,70.01,109.58,70.09z"/>
	<path class="st0" d="M1.34,5.78C1.25,5.93,1.05,5.98,0.9,5.89c-0.15-0.1-0.2-0.3-0.1-0.45c0.09-0.15,0.29-0.2,0.45-0.11
		C1.39,5.42,1.44,5.63,1.34,5.78z"/>
	<path class="st0" d="M11.06,24.18c-0.06,0.1-0.19,0.13-0.28,0.07c-0.1-0.06-0.13-0.19-0.07-0.29c0.06-0.1,0.19-0.13,0.28-0.07
		C11.09,23.95,11.12,24.08,11.06,24.18z"/>
	<path class="st0" d="M10.63,22.49c-0.23,0.38-0.71,0.49-1.08,0.26c-0.37-0.23-0.48-0.72-0.25-1.1c0.23-0.38,0.71-0.49,1.08-0.26
		C10.75,21.62,10.86,22.12,10.63,22.49z"/>
	<path class="st0" d="M1.29,5.75C1.21,5.87,1.05,5.91,0.93,5.83C0.81,5.75,0.77,5.59,0.85,5.47c0.08-0.12,0.23-0.16,0.36-0.09
		C1.33,5.46,1.36,5.62,1.29,5.75z"/>
	<path class="st0" d="M29.27,20.03c-0.13,0.21-0.39,0.27-0.6,0.14c-0.2-0.13-0.27-0.4-0.14-0.6c0.13-0.21,0.39-0.27,0.6-0.14
		C29.33,19.56,29.39,19.83,29.27,20.03z"/>
	<path class="st0" d="M18.81,30.77c-0.13,0.21-0.4,0.27-0.6,0.14c-0.21-0.13-0.27-0.4-0.14-0.61c0.13-0.21,0.4-0.27,0.6-0.14
		C18.88,30.29,18.94,30.56,18.81,30.77z"/>
	<path class="st0" d="M11.24,24.29c-0.12,0.19-0.37,0.25-0.56,0.13c-0.19-0.12-0.25-0.38-0.13-0.57c0.12-0.19,0.37-0.25,0.56-0.13
		C11.3,23.84,11.36,24.09,11.24,24.29z"/>
	<path class="st0" d="M29.19,19.99c-0.1,0.16-0.31,0.21-0.47,0.11c-0.16-0.1-0.21-0.32-0.11-0.48c0.1-0.16,0.31-0.21,0.47-0.11
		C29.24,19.61,29.29,19.82,29.19,19.99z"/>
	<path class="st0" d="M29.07,19.91c-0.06,0.1-0.19,0.13-0.29,0.07c-0.1-0.06-0.13-0.19-0.07-0.29c0.06-0.1,0.19-0.13,0.29-0.07
		C29.1,19.68,29.13,19.81,29.07,19.91z"/>
	<path class="st0" d="M1.29,5.75C1.22,5.87,1.05,5.91,0.93,5.84C0.81,5.76,0.77,5.59,0.84,5.47C0.92,5.34,1.08,5.3,1.21,5.38
		C1.33,5.46,1.37,5.62,1.29,5.75z"/>
	<path class="st0" d="M11.07,24.19c-0.06,0.1-0.2,0.13-0.3,0.07c-0.1-0.06-0.13-0.2-0.07-0.3c0.06-0.1,0.19-0.13,0.3-0.07
		C11.1,23.95,11.14,24.08,11.07,24.19z"/>
	<path class="st0" d="M29.17,19.98c-0.09,0.15-0.29,0.2-0.45,0.11c-0.15-0.1-0.2-0.3-0.1-0.45c0.09-0.15,0.29-0.2,0.45-0.11
		C29.22,19.62,29.27,19.82,29.17,19.98z"/>
	<path class="st0" d="M38.3,9.83c-0.07,0.11-0.21,0.14-0.32,0.08c-0.11-0.07-0.14-0.21-0.08-0.32c0.07-0.11,0.21-0.14,0.32-0.08
		C38.33,9.57,38.37,9.72,38.3,9.83z"/>
	<path class="st0" d="M46.59,51.87c-0.06,0.1-0.19,0.13-0.29,0.07c-0.1-0.06-0.13-0.19-0.07-0.29c0.06-0.1,0.19-0.13,0.29-0.07
		C46.62,51.64,46.65,51.77,46.59,51.87z"/>
	<path class="st0" d="M18.65,30.67c-0.07,0.12-0.23,0.16-0.35,0.08c-0.12-0.07-0.16-0.23-0.08-0.35c0.07-0.12,0.23-0.16,0.35-0.08
		C18.69,30.4,18.73,30.55,18.65,30.67z"/>
	<path class="st0" d="M38.33,9.85c-0.08,0.13-0.24,0.17-0.37,0.09c-0.13-0.08-0.16-0.25-0.09-0.37c0.08-0.13,0.24-0.17,0.37-0.09
		C38.37,9.55,38.41,9.72,38.33,9.85z"/>
	<path class="st0" d="M38.26,9.8c-0.05,0.09-0.16,0.11-0.25,0.06c-0.08-0.05-0.11-0.17-0.06-0.25C38,9.52,38.11,9.5,38.2,9.55
		C38.28,9.6,38.31,9.72,38.26,9.8z"/>
	<path class="st0" d="M29.11,19.93c-0.07,0.12-0.22,0.15-0.34,0.08c-0.12-0.07-0.15-0.23-0.08-0.34c0.07-0.12,0.22-0.15,0.34-0.08
		C29.14,19.66,29.18,19.82,29.11,19.93z"/>
	<path class="st0" d="M18.7,30.7c-0.09,0.15-0.28,0.19-0.42,0.1c-0.14-0.09-0.19-0.28-0.1-0.43c0.09-0.15,0.28-0.19,0.42-0.1
		S18.79,30.56,18.7,30.7z"/>
	<path class="st0" d="M38.24,9.79c-0.05,0.07-0.14,0.1-0.22,0.05c-0.07-0.05-0.1-0.15-0.05-0.22c0.05-0.08,0.14-0.1,0.22-0.05
		C38.26,9.62,38.28,9.72,38.24,9.79z"/>
	<path class="st0" d="M67.27,24.13c-0.06,0.09-0.18,0.12-0.27,0.06c-0.09-0.06-0.12-0.18-0.06-0.27c0.06-0.09,0.18-0.12,0.27-0.06
		C67.3,23.91,67.33,24.04,67.27,24.13z"/>
	<path class="st0" d="M59.96,38.45c-0.08,0.13-0.24,0.16-0.36,0.09c-0.12-0.08-0.16-0.24-0.09-0.37c0.08-0.13,0.24-0.16,0.36-0.09
		C60,38.16,60.03,38.33,59.96,38.45z"/>
	<path class="st0" d="M46.63,51.9c-0.08,0.13-0.24,0.16-0.36,0.09c-0.12-0.08-0.16-0.24-0.09-0.37c0.08-0.13,0.24-0.16,0.36-0.09
		C46.67,51.61,46.71,51.77,46.63,51.9z"/>
	<path class="st0" d="M67.46,24.25c-0.12,0.2-0.38,0.26-0.57,0.14c-0.19-0.12-0.25-0.38-0.13-0.58c0.12-0.2,0.38-0.26,0.57-0.14
		C67.52,23.79,67.58,24.05,67.46,24.25z"/>
	<path class="st0" d="M67.44,24.24c-0.12,0.19-0.36,0.25-0.54,0.13c-0.19-0.12-0.24-0.36-0.13-0.55c0.12-0.19,0.36-0.25,0.54-0.13
		C67.5,23.8,67.56,24.05,67.44,24.24z"/>
	<path class="st0" d="M38.25,9.8c-0.05,0.09-0.16,0.11-0.25,0.06c-0.08-0.05-0.11-0.17-0.06-0.25C38,9.52,38.11,9.5,38.2,9.55
		C38.28,9.6,38.31,9.72,38.25,9.8z"/>
	<path class="st0" d="M46.79,51.99c-0.13,0.21-0.4,0.28-0.61,0.15c-0.21-0.13-0.27-0.41-0.14-0.62c0.13-0.21,0.4-0.28,0.61-0.15
		C46.85,51.5,46.92,51.78,46.79,51.99z"/>
	<path class="st0" d="M67.27,24.13c-0.05,0.09-0.17,0.12-0.26,0.06c-0.09-0.06-0.12-0.17-0.06-0.26c0.05-0.09,0.17-0.12,0.26-0.06
		C67.29,23.92,67.32,24.04,67.27,24.13z"/>
	<path class="st0" d="M58.73,32.4c-0.07,0.11-0.2,0.14-0.31,0.07c-0.11-0.07-0.14-0.21-0.07-0.31c0.07-0.11,0.2-0.14,0.31-0.07
		C58.76,32.15,58.79,32.29,58.73,32.4z"/>
	<path class="st0" d="M75.87,61.59c-0.08,0.13-0.25,0.18-0.39,0.09c-0.13-0.08-0.17-0.26-0.09-0.39c0.08-0.13,0.25-0.18,0.39-0.09
		C75.91,61.28,75.95,61.46,75.87,61.59z"/>
	<path class="st0" d="M59.85,38.39c-0.04,0.06-0.12,0.08-0.19,0.04c-0.06-0.04-0.08-0.12-0.04-0.19c0.04-0.06,0.12-0.08,0.19-0.04
		C59.87,38.24,59.89,38.32,59.85,38.39z"/>
	<path class="st0" d="M59.23,32.72c-0.24,0.39-0.74,0.51-1.13,0.27c-0.39-0.24-0.5-0.75-0.27-1.15c0.24-0.39,0.74-0.51,1.13-0.27
		C59.35,31.82,59.47,32.33,59.23,32.72z"/>
	<path class="st0" d="M58.76,32.42c-0.07,0.12-0.23,0.16-0.35,0.08c-0.12-0.08-0.16-0.24-0.08-0.36c0.08-0.12,0.23-0.16,0.35-0.08
		C58.79,32.13,58.83,32.3,58.76,32.42z"/>
	<path class="st0" d="M67.31,24.15c-0.07,0.12-0.22,0.15-0.33,0.08c-0.11-0.07-0.15-0.22-0.08-0.34c0.07-0.12,0.22-0.15,0.33-0.08
		C67.35,23.89,67.38,24.04,67.31,24.15z"/>
	<path class="st0" d="M60.02,38.5c-0.1,0.16-0.31,0.21-0.47,0.11c-0.16-0.1-0.21-0.31-0.11-0.48c0.1-0.16,0.31-0.21,0.47-0.11
		C60.07,38.12,60.12,38.33,60.02,38.5z"/>
	<path class="st0" d="M58.73,32.4c-0.07,0.11-0.21,0.14-0.31,0.07c-0.11-0.07-0.14-0.21-0.07-0.32c0.07-0.11,0.21-0.14,0.31-0.07
		C58.76,32.15,58.79,32.29,58.73,32.4z"/>
	<path class="st0" d="M88.04,39.98c-0.1,0.17-0.32,0.22-0.49,0.12c-0.17-0.11-0.22-0.33-0.12-0.5c0.1-0.17,0.32-0.22,0.49-0.12
		C88.09,39.59,88.14,39.81,88.04,39.98z"/>
	<path class="st0" d="M97.61,60.08c-0.07,0.11-0.21,0.14-0.32,0.08c-0.11-0.07-0.14-0.21-0.07-0.32c0.07-0.11,0.21-0.14,0.32-0.08
		C97.64,59.83,97.67,59.97,97.61,60.08z"/>
	<path class="st0" d="M75.85,61.58c-0.08,0.12-0.23,0.16-0.35,0.09c-0.12-0.08-0.16-0.24-0.08-0.36c0.07-0.12,0.23-0.16,0.35-0.08
		C75.88,61.29,75.92,61.46,75.85,61.58z"/>
	<path class="st0" d="M88.27,40.13c-0.18,0.3-0.57,0.39-0.87,0.21c-0.3-0.19-0.39-0.58-0.2-0.88c0.18-0.3,0.57-0.39,0.87-0.21
		C88.37,39.43,88.46,39.83,88.27,40.13z"/>
	<path class="st0" d="M88.19,40.08c-0.16,0.26-0.49,0.33-0.74,0.18c-0.25-0.16-0.33-0.49-0.17-0.75c0.16-0.25,0.49-0.33,0.74-0.18
		C88.27,39.49,88.35,39.82,88.19,40.08z"/>
	<path class="st0" d="M58.74,32.41c-0.07,0.11-0.22,0.15-0.33,0.08c-0.11-0.07-0.15-0.22-0.08-0.33c0.07-0.11,0.22-0.15,0.33-0.08
		C58.77,32.15,58.81,32.29,58.74,32.41z"/>
	<path class="st0" d="M75.93,61.63c-0.1,0.17-0.33,0.22-0.49,0.12c-0.17-0.11-0.22-0.33-0.12-0.5c0.1-0.17,0.33-0.22,0.49-0.12
		C75.99,61.24,76.04,61.46,75.93,61.63z"/>
	<path class="st0" d="M87.86,39.87c-0.04,0.07-0.13,0.09-0.2,0.05c-0.07-0.04-0.09-0.13-0.05-0.2c0.04-0.07,0.13-0.09,0.2-0.05
		C87.88,39.71,87.9,39.8,87.86,39.87z"/>
	<path class="st0" d="M102.43,53.14c-0.08,0.14-0.26,0.18-0.4,0.1c-0.14-0.09-0.18-0.27-0.09-0.4s0.26-0.18,0.4-0.09
		C102.47,52.83,102.51,53.01,102.43,53.14z"/>
	<path class="st0" d="M86.44,65.01c-0.12,0.19-0.36,0.25-0.55,0.13c-0.19-0.12-0.25-0.37-0.13-0.56c0.12-0.19,0.36-0.25,0.55-0.13
		C86.5,64.57,86.56,64.82,86.44,65.01z"/>
	<path class="st0" d="M97.79,60.19c-0.13,0.21-0.4,0.28-0.61,0.15c-0.21-0.13-0.27-0.41-0.14-0.62c0.13-0.21,0.4-0.27,0.61-0.14
		C97.85,59.71,97.91,59.98,97.79,60.19z"/>
	<path class="st0" d="M102.45,53.16c-0.09,0.15-0.28,0.19-0.43,0.1c-0.15-0.09-0.19-0.29-0.1-0.44c0.09-0.15,0.28-0.2,0.43-0.1
		C102.5,52.81,102.54,53.01,102.45,53.16z"/>
	<path class="st0" d="M102.48,53.18c-0.1,0.17-0.32,0.22-0.48,0.12c-0.16-0.1-0.21-0.32-0.11-0.49c0.1-0.17,0.32-0.22,0.48-0.11
		C102.53,52.79,102.58,53.01,102.48,53.18z"/>
	<path class="st0" d="M88.01,39.96c-0.09,0.15-0.29,0.2-0.44,0.11c-0.15-0.1-0.2-0.3-0.1-0.45c0.09-0.15,0.29-0.2,0.44-0.11
		C88.06,39.61,88.1,39.81,88.01,39.96z"/>
	<path class="st0" d="M97.6,60.08c-0.06,0.1-0.2,0.14-0.3,0.07c-0.1-0.06-0.13-0.2-0.07-0.31c0.06-0.1,0.2-0.14,0.3-0.07
		C97.63,59.83,97.66,59.97,97.6,60.08z"/>
	<path class="st0" d="M102.39,53.12c-0.07,0.11-0.21,0.15-0.33,0.08c-0.11-0.07-0.15-0.22-0.08-0.33c0.07-0.11,0.22-0.15,0.33-0.08
		C102.42,52.85,102.46,53,102.39,53.12z"/>
	<path class="st0" d="M88.54,62.79c-0.17,0.27-0.52,0.36-0.79,0.19c-0.27-0.17-0.35-0.53-0.18-0.8c0.17-0.27,0.52-0.36,0.79-0.19
		C88.63,62.16,88.71,62.52,88.54,62.79z"/>
	<path class="st0" d="M99.86,69.66c-0.04,0.06-0.12,0.08-0.18,0.04c-0.06-0.04-0.08-0.12-0.04-0.19c0.04-0.06,0.12-0.08,0.18-0.04
		C99.88,69.51,99.9,69.6,99.86,69.66z"/>
	<path class="st0" d="M86.56,65.08c-0.16,0.25-0.48,0.33-0.74,0.18c-0.25-0.16-0.33-0.49-0.17-0.75c0.16-0.25,0.48-0.33,0.74-0.18
		C86.63,64.5,86.71,64.83,86.56,65.08z"/>
	<path class="st0" d="M88.29,62.63c-0.08,0.13-0.24,0.17-0.37,0.09c-0.13-0.08-0.17-0.25-0.09-0.38c0.08-0.13,0.25-0.17,0.37-0.09
		C88.33,62.33,88.37,62.5,88.29,62.63z"/>
	<path class="st0" d="M88.37,62.68c-0.11,0.18-0.34,0.23-0.51,0.12c-0.17-0.11-0.23-0.34-0.12-0.52c0.11-0.18,0.34-0.23,0.51-0.12
		C88.43,62.27,88.48,62.51,88.37,62.68z"/>
	<path class="st0" d="M102.62,53.26c-0.15,0.25-0.47,0.32-0.71,0.17c-0.24-0.15-0.32-0.47-0.17-0.72c0.15-0.25,0.47-0.32,0.71-0.17
		C102.7,52.7,102.77,53.02,102.62,53.26z"/>
	<path class="st0" d="M86.24,64.89c-0.05,0.08-0.15,0.1-0.23,0.06c-0.08-0.05-0.1-0.15-0.05-0.23c0.05-0.08,0.15-0.1,0.23-0.05
		C86.27,64.7,86.29,64.81,86.24,64.89z"/>
	<path class="st0" d="M88.51,62.77c-0.16,0.26-0.49,0.33-0.74,0.18c-0.25-0.16-0.33-0.49-0.17-0.75c0.16-0.26,0.49-0.33,0.74-0.18
		C88.59,62.18,88.67,62.52,88.51,62.77z"/>
	<path class="st0" d="M109.68,70.16c-0.08,0.14-0.26,0.18-0.39,0.09c-0.13-0.08-0.18-0.26-0.09-0.4c0.08-0.14,0.26-0.18,0.39-0.09
		C109.72,69.84,109.76,70.02,109.68,70.16z"/>
	<path class="st0" d="M100.07,69.79c-0.11,0.18-0.34,0.24-0.52,0.13c-0.18-0.11-0.23-0.35-0.12-0.53c0.11-0.18,0.34-0.24,0.52-0.13
		C100.12,69.38,100.18,69.61,100.07,69.79z"/>
	<path class="st0" d="M109.56,70.08c-0.04,0.07-0.13,0.09-0.2,0.05c-0.07-0.04-0.09-0.13-0.05-0.2c0.04-0.07,0.13-0.09,0.2-0.05
		C109.58,69.92,109.6,70.01,109.56,70.08z"/>
	<path class="st0" d="M109.79,70.23c-0.12,0.2-0.38,0.26-0.57,0.14c-0.2-0.12-0.26-0.38-0.13-0.58c0.12-0.2,0.38-0.26,0.57-0.14
		C109.85,69.77,109.91,70.03,109.79,70.23z"/>
	<path class="st0" d="M88.53,62.78c-0.16,0.27-0.5,0.35-0.77,0.18c-0.26-0.16-0.34-0.51-0.18-0.78c0.16-0.27,0.5-0.35,0.77-0.18
		C88.61,62.17,88.69,62.52,88.53,62.78z"/>
	<path class="st0" d="M100.09,69.81c-0.12,0.2-0.37,0.25-0.56,0.13c-0.19-0.12-0.25-0.38-0.13-0.57c0.12-0.2,0.37-0.25,0.56-0.13
		C100.15,69.36,100.21,69.61,100.09,69.81z"/>
	<path class="st0" d="M109.68,70.16c-0.08,0.14-0.26,0.18-0.39,0.09c-0.13-0.08-0.18-0.26-0.09-0.4c0.08-0.14,0.26-0.18,0.39-0.09
		C109.72,69.84,109.76,70.02,109.68,70.16z"/>
	<path class="st0" d="M109.54,70.07c-0.03,0.06-0.11,0.07-0.16,0.04c-0.06-0.04-0.07-0.11-0.04-0.17c0.04-0.06,0.11-0.07,0.16-0.04
		C109.55,69.94,109.57,70.01,109.54,70.07z"/>
	<path class="st0" d="M11.49,24.45c-0.2,0.34-0.64,0.44-0.97,0.23c-0.33-0.21-0.43-0.65-0.23-0.98c0.2-0.34,0.64-0.44,0.97-0.23
		C11.59,23.67,11.69,24.11,11.49,24.45z"/>
	<path class="st0" d="M9.63,23.03c-0.14,0.23-0.45,0.31-0.68,0.16c-0.23-0.15-0.3-0.45-0.16-0.69c0.14-0.23,0.45-0.31,0.68-0.16
		C9.71,22.49,9.78,22.8,9.63,23.03z"/>
	<path class="st0" d="M0.35,21.38C0.24,21.31,0.11,21.31,0,21.37v0.65c0.16,0.08,0.37,0.03,0.47-0.13
		C0.57,21.71,0.52,21.49,0.35,21.38z"/>
	<path class="st0" d="M11.17,24.24c-0.09,0.15-0.29,0.2-0.44,0.11c-0.15-0.1-0.2-0.3-0.1-0.45c0.09-0.15,0.29-0.2,0.45-0.11
		C11.21,23.89,11.26,24.09,11.17,24.24z"/>
	<path class="st0" d="M18.74,30.73c-0.1,0.17-0.32,0.22-0.48,0.12c-0.17-0.1-0.22-0.32-0.11-0.49c0.1-0.17,0.32-0.22,0.48-0.12
		C18.79,30.34,18.84,30.56,18.74,30.73z"/>
	<path class="st0" d="M24.69,34.45c-0.09,0.14-0.27,0.18-0.4,0.1c-0.14-0.09-0.18-0.27-0.09-0.41c0.08-0.14,0.27-0.18,0.4-0.1
		C24.73,34.13,24.78,34.31,24.69,34.45z"/>
	<path class="st0" d="M9.42,22.9c-0.07,0.11-0.22,0.15-0.33,0.08c-0.11-0.07-0.15-0.22-0.08-0.33c0.07-0.11,0.22-0.15,0.33-0.08
		C9.45,22.63,9.49,22.78,9.42,22.9z"/>
	<path class="st0" d="M18.7,30.7c-0.09,0.15-0.28,0.19-0.42,0.1c-0.14-0.09-0.19-0.28-0.1-0.43c0.09-0.15,0.28-0.19,0.42-0.1
		C18.74,30.36,18.79,30.56,18.7,30.7z"/>
	<path class="st0" d="M18.68,30.69c-0.08,0.14-0.26,0.18-0.39,0.09c-0.13-0.08-0.18-0.26-0.09-0.4c0.08-0.14,0.26-0.18,0.39-0.09
		C18.72,30.38,18.77,30.56,18.68,30.69z"/>
	<path class="st0" d="M11.13,24.22c-0.08,0.14-0.26,0.18-0.39,0.09c-0.13-0.08-0.18-0.26-0.09-0.4c0.08-0.14,0.26-0.18,0.39-0.09
		C11.18,23.91,11.22,24.09,11.13,24.22z"/>
	<path class="st0" d="M9.48,22.93c-0.09,0.15-0.28,0.19-0.42,0.1c-0.14-0.09-0.19-0.28-0.1-0.43c0.09-0.15,0.28-0.19,0.42-0.1
		C9.52,22.59,9.56,22.79,9.48,22.93z"/>
	<path class="st0" d="M18.67,30.69c-0.08,0.13-0.25,0.17-0.38,0.09c-0.13-0.08-0.17-0.26-0.09-0.39c0.08-0.13,0.25-0.17,0.38-0.09
		C18.72,30.38,18.76,30.55,18.67,30.69z"/>
	<path class="st0" d="M46.7,51.94c-0.1,0.17-0.31,0.22-0.48,0.11c-0.16-0.1-0.21-0.32-0.11-0.48c0.1-0.17,0.31-0.22,0.48-0.11
		C46.75,51.56,46.8,51.78,46.7,51.94z"/>
	<path class="st0" d="M41.35,63c-0.12,0.2-0.39,0.27-0.59,0.14c-0.2-0.13-0.26-0.39-0.14-0.6c0.12-0.2,0.39-0.27,0.59-0.14
		C41.41,62.53,41.47,62.8,41.35,63z"/>
	<path class="st0" d="M24.93,34.6c-0.16,0.27-0.51,0.35-0.78,0.19c-0.27-0.17-0.35-0.52-0.18-0.79c0.16-0.27,0.51-0.35,0.78-0.19
		C25.01,33.97,25.09,34.33,24.93,34.6z"/>
	<path class="st0" d="M46.7,51.94c-0.1,0.17-0.31,0.22-0.48,0.11c-0.16-0.1-0.21-0.32-0.11-0.48c0.1-0.17,0.31-0.22,0.48-0.11
		C46.75,51.56,46.8,51.78,46.7,51.94z"/>
	<path class="st0" d="M46.8,52c-0.14,0.22-0.42,0.29-0.64,0.15c-0.22-0.14-0.29-0.43-0.15-0.65c0.14-0.22,0.42-0.29,0.64-0.15
		C46.87,51.49,46.94,51.78,46.8,52z"/>
	<path class="st0" d="M18.66,30.68c-0.08,0.13-0.24,0.16-0.36,0.09c-0.12-0.08-0.16-0.24-0.09-0.37c0.08-0.13,0.24-0.17,0.36-0.09
		C18.7,30.39,18.74,30.55,18.66,30.68z"/>
	<path class="st0" d="M24.61,34.4c-0.06,0.09-0.18,0.12-0.27,0.06c-0.09-0.06-0.12-0.18-0.06-0.28c0.06-0.09,0.18-0.12,0.27-0.06
		C24.64,34.18,24.67,34.31,24.61,34.4z"/>
	<path class="st0" d="M46.57,51.86c-0.06,0.09-0.18,0.12-0.27,0.06c-0.09-0.06-0.12-0.18-0.06-0.27c0.06-0.09,0.18-0.12,0.27-0.06
		C46.6,51.64,46.63,51.77,46.57,51.86z"/>
	<path class="st0" d="M60.21,38.61c-0.16,0.27-0.5,0.35-0.77,0.18c-0.26-0.16-0.34-0.51-0.18-0.78c0.16-0.27,0.5-0.35,0.77-0.18
		C60.29,38,60.37,38.35,60.21,38.61z"/>
	<path class="st0" d="M40.88,66.82c-0.04,0.07-0.14,0.09-0.21,0.05c-0.07-0.04-0.09-0.14-0.05-0.21c0.04-0.07,0.14-0.09,0.21-0.05
		C40.91,66.65,40.93,66.75,40.88,66.82z"/>
	<path class="st0" d="M41.16,62.89c-0.06,0.1-0.19,0.13-0.28,0.07c-0.1-0.06-0.13-0.19-0.07-0.29c0.06-0.1,0.19-0.13,0.28-0.07
		C41.19,62.66,41.22,62.79,41.16,62.89z"/>
	<path class="st0" d="M59.93,38.44c-0.07,0.11-0.21,0.14-0.31,0.08c-0.11-0.07-0.14-0.21-0.07-0.32c0.07-0.11,0.21-0.14,0.31-0.08
		C59.96,38.18,59.99,38.33,59.93,38.44z"/>
	<path class="st0" d="M60.1,38.54c-0.12,0.2-0.39,0.27-0.59,0.14c-0.2-0.13-0.26-0.39-0.14-0.6c0.12-0.2,0.39-0.27,0.59-0.14
		C60.16,38.07,60.22,38.34,60.1,38.54z"/>
	<path class="st0" d="M46.73,51.96c-0.11,0.18-0.35,0.24-0.53,0.13c-0.18-0.11-0.23-0.35-0.12-0.54c0.11-0.18,0.35-0.24,0.53-0.13
		C46.79,51.54,46.84,51.78,46.73,51.96z"/>
	<path class="st0" d="M41.42,63.05c-0.15,0.25-0.47,0.32-0.71,0.17c-0.24-0.15-0.32-0.48-0.17-0.73c0.15-0.25,0.47-0.32,0.71-0.17
		C41.5,62.48,41.57,62.81,41.42,63.05z"/>
	<path class="st0" d="M60.14,38.57c-0.14,0.23-0.44,0.3-0.66,0.16c-0.23-0.14-0.29-0.44-0.16-0.67c0.14-0.23,0.44-0.3,0.66-0.16
		C60.21,38.04,60.28,38.34,60.14,38.57z"/>
	<path class="st0" d="M75.98,61.66c-0.12,0.2-0.37,0.26-0.57,0.13c-0.19-0.12-0.25-0.38-0.13-0.57c0.12-0.2,0.37-0.26,0.57-0.14
		C76.04,61.21,76.1,61.46,75.98,61.66z"/>
	<path class="st0" d="M66.85,65.42c-0.06,0.1-0.2,0.14-0.3,0.07c-0.1-0.06-0.13-0.2-0.07-0.31s0.2-0.14,0.3-0.07
		C66.88,65.17,66.91,65.31,66.85,65.42z"/>
	<path class="st0" d="M40.93,66.85c-0.06,0.1-0.19,0.13-0.28,0.07c-0.1-0.06-0.13-0.19-0.07-0.29c0.06-0.1,0.19-0.13,0.28-0.07
		C40.96,66.62,40.99,66.75,40.93,66.85z"/>
	<path class="st0" d="M75.73,61.5c-0.03,0.06-0.11,0.07-0.16,0.04c-0.05-0.03-0.07-0.11-0.04-0.16c0.03-0.06,0.11-0.07,0.16-0.04
		C75.74,61.38,75.76,61.45,75.73,61.5z"/>
	<path class="st0" d="M75.79,61.54c-0.05,0.09-0.17,0.12-0.25,0.06c-0.09-0.05-0.11-0.17-0.06-0.26c0.05-0.09,0.17-0.12,0.25-0.06
		C75.81,61.33,75.84,61.45,75.79,61.54z"/>
	<path class="st0" d="M60.19,38.6c-0.16,0.26-0.49,0.33-0.74,0.18c-0.25-0.16-0.33-0.49-0.17-0.75c0.16-0.26,0.49-0.33,0.74-0.18
		C60.27,38.01,60.34,38.34,60.19,38.6z"/>
	<path class="st0" d="M41.23,67.03c-0.16,0.26-0.5,0.35-0.76,0.18c-0.26-0.16-0.34-0.51-0.18-0.77c0.16-0.26,0.5-0.35,0.76-0.18
		C41.31,66.42,41.39,66.77,41.23,67.03z"/>
	<path class="st0" d="M75.83,61.57c-0.07,0.11-0.21,0.15-0.33,0.08c-0.11-0.07-0.15-0.22-0.08-0.33c0.07-0.11,0.21-0.15,0.33-0.08
		C75.86,61.31,75.9,61.45,75.83,61.57z"/>
	<path class="st0" d="M97.54,60.04c-0.04,0.07-0.13,0.09-0.2,0.05c-0.07-0.04-0.09-0.14-0.05-0.21c0.04-0.07,0.13-0.09,0.2-0.05
		C97.56,59.88,97.58,59.97,97.54,60.04z"/>
	<path class="st0" d="M78.27,79.89c-0.11,0.18-0.34,0.23-0.51,0.12c-0.17-0.11-0.23-0.34-0.12-0.52c0.11-0.18,0.33-0.23,0.51-0.12
		C78.32,79.48,78.38,79.71,78.27,79.89z"/>
	<path class="st0" d="M66.96,65.49c-0.1,0.17-0.32,0.22-0.49,0.12c-0.17-0.11-0.22-0.33-0.12-0.5c0.1-0.17,0.32-0.22,0.49-0.12
		C67.02,65.09,67.07,65.32,66.96,65.49z"/>
	<path class="st0" d="M97.75,60.17c-0.11,0.19-0.35,0.24-0.54,0.13c-0.18-0.12-0.24-0.36-0.13-0.55c0.11-0.19,0.35-0.24,0.54-0.13
		C97.8,59.74,97.86,59.98,97.75,60.17z"/>
	<path class="st0" d="M97.58,60.07c-0.06,0.09-0.18,0.12-0.27,0.07c-0.09-0.06-0.12-0.18-0.06-0.28c0.06-0.09,0.18-0.12,0.27-0.07
		C97.61,59.85,97.64,59.97,97.58,60.07z"/>
	<path class="st0" d="M75.94,61.64c-0.11,0.17-0.33,0.23-0.5,0.12c-0.17-0.11-0.22-0.34-0.12-0.51c0.11-0.17,0.33-0.23,0.5-0.12
		C75.99,61.23,76.05,61.46,75.94,61.64z"/>
	<path class="st0" d="M66.83,65.41c-0.06,0.1-0.18,0.13-0.28,0.07c-0.09-0.06-0.12-0.19-0.07-0.28c0.06-0.1,0.18-0.13,0.28-0.07
		C66.86,65.18,66.89,65.31,66.83,65.41z"/>
	<path class="st0" d="M97.56,60.05c-0.05,0.08-0.16,0.11-0.24,0.06c-0.08-0.05-0.11-0.16-0.06-0.24c0.05-0.08,0.16-0.11,0.24-0.06
		C97.58,59.86,97.61,59.97,97.56,60.05z"/>
	<path class="st0" d="M86.21,64.87c-0.04,0.06-0.12,0.08-0.18,0.04c-0.06-0.04-0.08-0.12-0.04-0.18c0.04-0.06,0.12-0.08,0.18-0.04
		C86.23,64.72,86.25,64.81,86.21,64.87z"/>
	<path class="st0" d="M77.03,76.29c-0.19,0.32-0.6,0.41-0.91,0.22c-0.31-0.2-0.41-0.61-0.21-0.93c0.19-0.32,0.6-0.41,0.91-0.22
		C77.13,75.56,77.22,75.97,77.03,76.29z"/>
	<path class="st0" d="M78.49,80.03c-0.18,0.3-0.57,0.39-0.87,0.21c-0.3-0.19-0.39-0.58-0.21-0.88c0.18-0.3,0.57-0.4,0.87-0.21
		C78.58,79.33,78.68,79.73,78.49,80.03z"/>
	<path class="st0" d="M86.28,64.91c-0.06,0.1-0.19,0.13-0.28,0.07c-0.1-0.06-0.13-0.19-0.07-0.29c0.06-0.1,0.19-0.13,0.28-0.07
		C86.31,64.68,86.34,64.81,86.28,64.91z"/>
	<path class="st0" d="M86.46,65.02c-0.12,0.2-0.38,0.26-0.58,0.14c-0.2-0.12-0.26-0.39-0.14-0.59c0.12-0.2,0.38-0.26,0.58-0.14
		C86.52,64.56,86.58,64.82,86.46,65.02z"/>
	<path class="st0" d="M97.61,60.08c-0.07,0.11-0.21,0.15-0.32,0.08c-0.11-0.07-0.14-0.22-0.08-0.33c0.07-0.11,0.21-0.15,0.32-0.08
		C97.65,59.83,97.68,59.97,97.61,60.08z"/>
	<path class="st0" d="M78.18,79.84c-0.08,0.13-0.25,0.17-0.37,0.09c-0.13-0.08-0.17-0.25-0.09-0.38c0.08-0.13,0.25-0.17,0.37-0.09
		C78.22,79.54,78.26,79.71,78.18,79.84z"/>
	<path class="st0" d="M86.42,65c-0.11,0.18-0.34,0.23-0.52,0.12c-0.18-0.11-0.23-0.35-0.12-0.52c0.11-0.18,0.34-0.23,0.52-0.12
		C86.47,64.59,86.53,64.82,86.42,65z"/>
	<path class="st0" d="M99.89,69.68c-0.05,0.08-0.15,0.11-0.23,0.06c-0.08-0.05-0.1-0.16-0.05-0.24c0.05-0.08,0.15-0.11,0.23-0.06
		C99.91,69.5,99.94,69.6,99.89,69.68z"/>
	<path class="st0" d="M76.58,76.01c-0.04,0.07-0.13,0.09-0.19,0.05c-0.06-0.04-0.08-0.13-0.04-0.19c0.04-0.07,0.13-0.09,0.19-0.05
		C76.61,75.85,76.63,75.94,76.58,76.01z"/>
	<path class="st0" d="M100.01,69.76c-0.09,0.15-0.28,0.2-0.43,0.1c-0.15-0.09-0.19-0.29-0.1-0.44s0.28-0.2,0.43-0.1
		C100.06,69.41,100.1,69.61,100.01,69.76z"/>
	<path class="st0" d="M100.02,69.76c-0.09,0.15-0.29,0.2-0.44,0.1c-0.15-0.09-0.2-0.29-0.1-0.44c0.09-0.15,0.29-0.2,0.44-0.1
		C100.06,69.41,100.11,69.61,100.02,69.76z"/>
	<path class="st0" d="M86.33,64.94c-0.08,0.13-0.24,0.17-0.36,0.09c-0.12-0.08-0.16-0.24-0.09-0.37c0.08-0.13,0.24-0.17,0.36-0.09
		C86.36,64.65,86.4,64.81,86.33,64.94z"/>
	<path class="st0" d="M76.89,76.2c-0.15,0.24-0.46,0.31-0.69,0.17c-0.24-0.15-0.31-0.46-0.16-0.7c0.15-0.24,0.46-0.31,0.69-0.17
		C76.97,75.65,77.04,75.96,76.89,76.2z"/>
	<path class="st0" d="M100.11,69.82c-0.13,0.21-0.39,0.27-0.59,0.14c-0.2-0.13-0.26-0.39-0.14-0.6c0.13-0.2,0.39-0.27,0.59-0.14
		C100.17,69.35,100.23,69.62,100.11,69.82z"/>
	<path class="st0" d="M99.94,69.71c-0.07,0.11-0.21,0.14-0.31,0.08c-0.11-0.07-0.14-0.21-0.07-0.32c0.07-0.11,0.21-0.14,0.31-0.08
		C99.97,69.46,100.01,69.6,99.94,69.71z"/>
</g>
</svg>
