<?xml version="1.0" encoding="utf-8"?>
<!-- Generator: Adobe Illustrator 24.1.2, SVG Export Plug-In . SVG Version: 6.00 Build 0)  -->
<svg version="1.1" id="Isolation_Mode" xmlns="http://www.w3.org/2000/svg" xmlns:xlink="http://www.w3.org/1999/xlink" x="0px"
	 y="0px" viewBox="0 0 120 85" style="enable-background:new 0 0 120 85;" xml:space="preserve">
<style type="text/css">
	.st0{fill:#BCBEC0;}
</style>
<g>
	<g>
		<g>
			<polygon class="st0" points="2.61,85 7.53,81.19 3.16,85 3.26,85 8.41,80.51 8.37,80.46 2.5,85 			"/>
		</g>
		<g>
			<polygon class="st0" points="0,81.33 7.54,80.6 0,81.92 0,81.99 8.39,80.52 8.38,80.46 0,81.26 			"/>
		</g>
		<g>
			<polygon class="st0" points="0,81.99 8.26,80.54 2.5,85 2.61,85 8.41,80.51 8.38,80.46 0,81.92 			"/>
		</g>
		<g>
			<polygon class="st0" points="21.97,85 15.13,71.34 27.34,85 27.43,85 15.01,71.12 14.96,71.15 21.9,85 			"/>
		</g>
		<g>
			<polygon class="st0" points="0,73.97 14.9,71.19 3,85 3.08,85 15.01,71.16 15.07,71.09 0,73.9 			"/>
			<polygon class="st0" points="0,82.7 1.95,85 2.03,85 0,82.6 			"/>
		</g>
		<g>
			<polygon class="st0" points="3.08,85 14.98,71.2 21.9,85 21.97,85 15.02,71.12 15,71.08 3,85 			"/>
		</g>
		<g>
			<polygon class="st0" points="0,69.68 8.29,80.42 0,77.41 0,77.48 8.48,80.56 0,69.57 			"/>
		</g>
		<g>
			<polygon class="st0" points="0,82.7 1.95,85 2.03,85 0,82.6 			"/>
			<polygon class="st0" points="0,77.48 8.32,80.5 3.16,85 3.26,85 8.42,80.5 8.41,80.46 0,77.41 			"/>
		</g>
		<g>
			<polygon class="st0" points="0,69.68 8.32,80.46 0,81.26 0,81.33 8.39,80.52 8.45,80.52 0,69.57 			"/>
		</g>
		<g>
			<polygon class="st0" points="66.14,85 66.17,84.85 66.19,85 66.26,85 66.22,84.63 66.15,84.63 66.08,85 			"/>
		</g>
		<g>
			<polygon class="st0" points="61.53,85 66.12,84.67 65.91,85 65.99,85 66.21,84.65 66.25,84.59 60.62,85 			"/>
		</g>
		<g>
			<polygon class="st0" points="65.99,85 66.16,84.73 66.19,85 66.26,85 66.22,84.63 66.21,84.54 65.91,85 			"/>
		</g>
		<g>
			<polygon class="st0" points="33.39,85 35.22,78.93 36.57,85 36.64,85 35.26,78.79 35.23,78.67 33.32,85 			"/>
		</g>
		<g>
			<path class="st0" d="M35.24,78.77l-0.02,0.06l-20.34-7.7l0.12-0.03l4.81,0.86L35.24,78.77z M15.33,71.23l18.76,7.1l-14.31-6.31
				L15.33,71.23z"/>
		</g>
		<g>
			<polygon class="st0" points="27.34,85 27.43,85 15.1,71.22 35.19,78.82 33.32,85 33.39,85 35.26,78.81 35.27,78.78 15,71.11 
				14.99,71.13 14.98,71.11 14.99,71.13 14.96,71.16 			"/>
		</g>
		<g>
			<polygon class="st0" points="0,72.06 28.42,58.25 19.78,71.96 0,74.33 0,74.4 19.8,72.03 19.81,72.03 28.54,58.18 28.6,58.09 
				0,71.99 			"/>
		</g>
		<g>
			<polygon class="st0" points="0,73.97 14.99,71.17 19.57,71.99 0,74.33 0,74.4 19.8,72.03 19.8,71.96 14.99,71.11 14.99,71.1 
				0,73.9 			"/>
		</g>
		<g>
			<polygon class="st0" points="0,58.72 18.04,50.08 28.43,58.14 0,60.99 0,61.05 28.51,58.2 28.6,58.19 18.07,50.02 18.05,50.01 
				0,58.65 			"/>
		</g>
		<g>
			<polygon class="st0" points="0,61.05 28.33,58.22 0,71.99 0,72.06 28.53,58.2 28.51,58.13 0,60.99 			"/>
		</g>
		<g>
			<polygon class="st0" points="0,39.92 17.92,50.01 0,49.58 0,49.65 18.05,50.08 18.06,50.02 0,39.84 			"/>
		</g>
		<g>
			<polygon class="st0" points="0,49.65 17.91,50.08 0,58.65 0,58.72 18.06,50.08 18.05,50.01 0,49.58 			"/>
		</g>
		<g>
			<polygon class="st0" points="87.15,85 81.86,72.49 89.28,85 89.36,85 81.68,72.05 81.62,72.08 87.08,85 			"/>
		</g>
		<g>
			<polygon class="st0" points="67.77,85 72.55,69.35 81.6,72.08 72.94,85 73.02,85 81.67,72.08 81.7,72.04 72.54,69.27 
				72.51,69.27 67.7,85 			"/>
		</g>
		<g>
			<polygon class="st0" points="73.02,85 81.65,72.12 89.28,85 89.36,85 81.68,72.05 81.65,72 72.94,85 			"/>
		</g>
		<g>
			<path class="st0" d="M72.56,69.32L66.2,84.68l-0.03-0.02l-1.29-0.1l0.02-0.04l7.6-15.23L72.56,69.32z M66.16,84.6l5.98-14.45
				l-7.16,14.36L66.16,84.6z"/>
		</g>
		<g>
			<polygon class="st0" points="66.15,85 66.21,84.64 72.3,69.94 67.7,85 67.77,85 72.56,69.32 72.5,69.29 66.17,84.58 66.16,84.58 
				66.08,85 			"/>
		</g>
		<g>
			<polygon class="st0" points="38.85,85 60.1,64.64 64.89,84.51 58.65,85 59.49,85 64.93,84.57 64.97,84.57 60.15,64.57 
				60.14,64.51 38.76,85 			"/>
		</g>
		<g>
			<polygon class="st0" points="59.49,85 64.93,84.57 65.73,84.63 60.62,85 61.53,85 66.19,84.66 66.19,84.6 64.93,84.51 58.65,85 
							"/>
		</g>
		<g>
			<path class="st0" d="M31.03,44.78l0.06,0.04l29.09,19.76l-0.05,0.03L35.2,78.85l-0.01-0.05L31.03,44.78z M60.06,64.57
				L31.11,44.91l4.14,33.83L60.06,64.57z"/>
		</g>
		<g>
			<polygon class="st0" points="36.64,85 35.26,78.82 59.91,64.73 38.76,85 38.85,85 60.14,64.6 60.1,64.54 35.21,78.77 
				35.19,78.78 36.57,85 			"/>
		</g>
		<g>
			<path class="st0" d="M31.12,44.81l-0.02,0.05L19.78,72.11L19.76,72L15.5,45.87l0.04,0L31.12,44.81z M19.81,71.88l11.21-26.99
				l-15.45,1.04L19.81,71.88z"/>
		</g>
		<g>
			<path class="st0" d="M31.09,44.72l0.02,0.12l4.16,34.01l-0.05-0.02l-15.46-6.82l0.01-0.03L31.09,44.72z M35.19,78.75l-4.13-33.77
				L19.84,71.98L35.19,78.75z"/>
		</g>
		<g>
			<path class="st0" d="M4.25,36.43l11.3,9.44l12.98,12.27l0,0L28.5,58.2l-0.01,0l-0.01-0.01l0.01-0.01l0.01-0.02l-0.02,0.02
				L4.21,36.48L4.25,36.43z M26.78,56.57L15.51,45.92l-9.82-8.2L26.78,56.57z"/>
		</g>
		<g>
			<path class="st0" d="M15.49,45.81l13.04,12.33l0.04,0.01l-0.02,0.04l-8.76,13.9L19.76,72L15.49,45.81z M28.47,58.17L15.58,45.99
				l4.23,25.92L28.47,58.17z"/>
		</g>
		<g>
			<path class="st0" d="M1.8,32.88l16.27,17.14l-0.05,0.05v0h0l0,0L4.21,36.48l-2.46-3.56L1.8,32.88z M16.72,48.69L2.04,33.23
				l2.22,3.21L16.72,48.69z"/>
		</g>
		<g>
			<path class="st0" d="M4.25,36.43l24.28,21.71l-0.04,0.05l-10.46-8.12L4.21,36.48L4.25,36.43z M27.79,57.56L5.24,37.4l12.84,12.62
				L27.79,57.56z"/>
		</g>
		<g>
			<polygon class="st0" points="0,29.47 1.73,32.88 0,33.25 0,33.32 1.78,32.94 1.82,32.93 0,29.33 			"/>
		</g>
		<g>
			<polygon class="st0" points="0,33.32 1.76,32.94 17.88,49.91 0,39.84 0,39.92 18.03,50.07 18.07,50.02 1.8,32.88 1.79,32.87 
				0,33.25 			"/>
		</g>
		<g>
			<path class="st0" d="M118.95,79.45l-0.02,0.06l-37.28-7.42l0-0.04l-0.01-0.02l9.47-6.79l0.02,0.01L118.95,79.45z M81.73,72.04
				l36.98,7.36l-27.6-14.08L81.73,72.04z"/>
		</g>
		<g>
			<path class="st0" d="M91.2,65.23l-0.07,0.08L81.9,75.43l-9.46-6.13L91.2,65.23z M81.89,75.34l9.12-10l-18.4,3.98L81.89,75.34z"/>
		</g>
		<g>
			<path class="st0" d="M91.1,65.25l0.03,0.06l-9.47,6.78l-0.02,0l-9.12-2.76l0-0.06L91.1,65.25z M81.64,72.03l9.31-6.67l-18.3,3.96
				L81.64,72.03z"/>
		</g>
		<g>
			<path class="st0" d="M81.97,75.38l-17.05,9.2l-0.02-0.03L52.82,60.99l0.09,0.04L81.97,75.38z M64.94,84.49l16.88-9.11
				L52.97,61.14L64.94,84.49z"/>
		</g>
		<g>
			<path class="st0" d="M72.51,69.26l9.45,6.13l-0.05,0.03l-17.06,9.2l0.05-0.09L72.51,69.26z M81.83,75.38l-9.29-6.03L65,84.46
				L81.83,75.38z"/>
		</g>
		<g>
			<path class="st0" d="M61.51,52.72l-0.01,0.09l-1.35,11.81l-0.04-0.02l-7.27-3.53l0.03-0.03L61.51,52.72z M60.09,64.52l1.33-11.63
				l-8.47,8.16L60.09,64.52z"/>
		</g>
		<g>
			<path class="st0" d="M60.17,64.56l-0.01,0.02l4.81,19.95l-0.06,0.02L52.82,60.99L60.17,64.56z M64.83,84.28L60.09,64.6
				l-7.12-3.46L64.83,84.28z"/>
		</g>
		<g>
			<path class="st0" d="M61.47,52.78l-0.02,0.06l-29.2-7.51l-1.2-0.45l0.02-0.06L61.47,52.78L61.47,52.78L61.47,52.78z M31.66,45.04
				l0.61,0.23l15.03,3.86L31.66,45.04z"/>
		</g>
		<g>
			<path class="st0" d="M61.5,52.78l0,0.03l-1.35,11.82L60.1,64.6L31.05,44.87l0.02-0.04l0-0.02l0,0.02l0.01-0.02L61.5,52.78z
				 M60.09,64.52l1.33-11.68l-30.18-7.91L60.09,64.52z"/>
		</g>
		<g>
			<path class="st0" d="M17.79,32.04l0.04,0.04l14.51,13.25l-0.08,0l-16.77,0.6l0.01-0.04L17.79,32.04z M32.18,45.27l-14.34-13.1
				l-2.27,13.7L32.18,45.27z"/>
		</g>
		<g>
			<path class="st0" d="M32.27,45.27l-0.01,0.06l-16.74,0.6l-0.1-0.06l0.11,0l0,0.03v0l0-0.03l15.54-1.05l0.01,0L32.27,45.27z
				 M17.61,45.79l14.49-0.52l-1.03-0.39L17.61,45.79z"/>
		</g>
		<g>
			<path class="st0" d="M31.93,22.57l0.03,0.06l-14.13,9.5l0,0L4.24,36.49l-0.02-0.06L31.93,22.57z M17.8,32.07l13.7-9.21L4.63,36.3
				L17.8,32.07z"/>
		</g>
		<g>
			<path class="st0" d="M17.86,32.05l-2.3,13.91L4.16,36.44L17.86,32.05z M15.51,45.84l2.26-13.69L4.3,36.47L15.51,45.84z"/>
		</g>
		<g>
			<path class="st0" d="M32.04,22.6l-0.09,0.03L1.71,32.96l0.03-0.07l8.8-17.85l0.03,0.01L32.04,22.6z M1.84,32.85l30-10.25
				l-21.26-7.48L1.84,32.85z"/>
		</g>
		<g>
			<path class="st0" d="M31.93,22.57l0.02,0.06L4.22,36.5l-0.02-0.02l-2.48-3.59l0.04-0.01L31.93,22.57z M4.24,36.42l27.25-13.62
				L1.83,32.92L4.24,36.42z"/>
		</g>
		<g>
			<polygon class="st0" points="0,10.09 10.48,15.08 0,19.05 0,19.12 10.65,15.09 0,10.02 			"/>
		</g>
		<g>
			<polygon class="st0" points="0,19.12 10.5,15.15 1.78,32.83 0,29.33 0,29.47 1.75,32.92 1.78,32.98 10.59,15.1 10.63,15.03 
				0,19.05 			"/>
		</g>
		<g>
			<path class="st0" d="M109.14,61l9.85,18.51l-0.07,0l-0.01-0.02l-8.89-16.46l-0.93-2L109.14,61z M114.14,70.54l-4.5-8.45
				l0.42,0.91L114.14,70.54z"/>
		</g>
		<g>
			<path class="st0" d="M101.56,54.51l0.02,0.02l7.6,6.51L91,65.34l0.08-0.08L101.56,54.51z M109.04,61l-7.48-6.41L91.2,65.23
				L109.04,61z"/>
		</g>
		<g>
			<path class="st0" d="M109.13,60.98l0.01,0.02l9.87,18.56l-28-14.28l0.09-0.02L109.13,60.98z M118.85,79.41l-9.76-18.35L91.2,65.3
				L118.85,79.41z"/>
		</g>
		<g>
			<path class="st0" d="M73.54,33.26l0.07,0.05l28,21.24l-0.02,0.03L81.88,75.45l-0.01-0.06L73.54,33.26z M101.51,54.55L73.64,33.41
				l8.28,41.9L101.51,54.55z"/>
		</g>
		<g>
			<path class="st0" d="M101.54,54.53l0.05,0.05L81.91,75.42l-0.09,0l0.06-0.06l9.2-10.09L101.54,54.53z M84.47,72.61L98.7,57.54
				l-7.57,7.77L84.47,72.61z"/>
		</g>
		<g>
			<path class="st0" d="M73.57,33.31l0.05,0.04l-20.7,27.73l-0.01,0.02l-0.08-0.01l0.03-0.05l7.37-14.29l0,0L73.57,33.31z
				 M53.1,60.73l20.18-27.04l-13,13.11L53.1,60.73z"/>
		</g>
		<g>
			<path class="st0" d="M73.61,33.26l0.01,0.07l8.32,42.11l-0.06-0.03l-29-14.32l-0.05,0l0.04-0.05L73.61,33.26z M81.85,75.32
				l-8.28-41.91L52.94,61.05L81.85,75.32z"/>
		</g>
		<g>
			<path class="st0" d="M44.4,23.63l15.9,23.13l0,0.01l1.2,6.05l-0.05,0.03l-0.02-0.03L44.34,23.67L44.4,23.63z M60.24,46.79
				L44.86,24.41l16.54,28.21L60.24,46.79z"/>
		</g>
		<g>
			<path class="st0" d="M60.28,46.68l1.22,6.15l-0.02,0.01l-8.56,8.25l-0.05-0.04L60.28,46.68z M61.43,52.8l-1.18-5.92L53.01,60.9
				L61.43,52.8z"/>
		</g>
		<g>
			<path class="st0" d="M44.43,23.61l-0.03,0.05l-12.14,21.7l-0.03-0.06l-9.7-20.21L44.43,23.61z M32.27,45.23l12.05-21.54
				l-21.67,1.47L32.27,45.23z"/>
		</g>
		<g>
			<path class="st0" d="M44.37,23.58l0.03,0.05l17.13,29.23l-0.08-0.02l-29.2-7.51l-0.05,0l0.03-0.04L44.37,23.58z M61.4,52.76
				L44.37,23.71L32.31,45.28L61.4,52.76z"/>
		</g>
		<g>
			<path class="st0" d="M33.89,20.26l0.03,0.06L17.83,32.13l-0.05-0.04l4.78-6.98l0.01,0L33.89,20.26z M17.95,31.96l15.7-11.53
				l-11.04,4.72L17.95,31.96z"/>
		</g>
		<g>
			<path class="st0" d="M22.59,25.07l9.7,20.22l-0.05,0.04L17.77,32.11l0.01-0.02L22.59,25.07z M32.16,45.16l-9.58-19.97l-4.72,6.9
				L32.16,45.16z"/>
		</g>
		<g>
			<path class="st0" d="M33.95,20.28l-1.99,2.36l-0.02,0l-0.01-0.01l-11.69-7.11l0.03-0.06L33.95,20.28z M31.94,22.56l1.91-2.26
				l-13.3-4.67L31.94,22.56z"/>
		</g>
		<g>
			<path class="st0" d="M33.88,20.26l0.04,0.05l-1.97,2.32l-14.12,9.49l-0.04-0.05L33.88,20.26z M31.92,22.58l1.77-2.1L19.1,31.19
				L31.92,22.58z"/>
		</g>
		<g>
			<polygon class="st0" points="0,3.18 20.13,15.46 10.58,15.05 0,3.79 0,3.89 10.54,15.11 10.62,15.2 10.61,15.12 20.25,15.53 
				20.27,15.47 0,3.1 			"/>
		</g>
		<g>
			<path class="st0" d="M31.96,22.58l-0.03,0.06l-21.4-7.52l-0.01-0.06l0.04,0l9.7,0.41l0.01,0L31.96,22.58z M10.78,15.13
				l20.88,7.34l-11.41-6.94L10.78,15.13z"/>
		</g>
		<g>
			<polygon class="st0" points="0,3.89 10.42,14.98 0,10.02 0,10.09 10.55,15.12 10.59,15.06 0,3.79 			"/>
		</g>
		<g>
			<path class="st0" d="M119.85,63.36l-0.01,0.06l-9.07-1.08l-1.68-1.3l-0.1-0.02l0.12-0.05l0.01,0.01L119.85,63.36z M110.8,62.29
				l8.39,1l-9.95-2.2L110.8,62.29z"/>
		</g>
		<g>
			<path class="st0" d="M101.58,54.52L101.58,54.52l9.22,7.77l-0.04,0.05L95.54,50.82l0.04-0.05L101.58,54.52z M109.8,61.54
				l-8.26-6.96l-5.38-3.37L109.8,61.54z"/>
		</g>
		<g>
			<path class="st0" d="M101.58,54.53l0.01,0.01l9.21,7.76l-0.04,0.05l-1.67-1.3l-7.55-6.47l0,0v0L101.58,54.53z M109.48,61.27
				l-1.95-1.65l1.6,1.37L109.48,61.27z"/>
		</g>
		<g>
			<path class="st0" d="M79.02,22.24l0.03,0.05l16.54,28.48l-0.05,0.04L73.55,33.34l0.01-0.02L79.02,22.24z M95.44,50.66
				L79.02,22.38l-5.39,10.94L95.44,50.66z"/>
		</g>
		<g>
			<path class="st0" d="M73.61,33.31l27.97,21.22l-0.04,0.05l-6-3.76L73.57,33.36L73.61,33.31z M100.96,54.14L75.87,35.1l19.7,15.66
				L100.96,54.14z"/>
		</g>
		<g>
			<path class="st0" d="M79.28,18.23l-0.23,4.09l-0.01,0.01l-18.8,24.53l-0.01-0.09l0.01-0.01L79.28,18.23z M78.99,22.3l0.22-3.83
				l-18.36,27.5L78.99,22.3z"/>
		</g>
		<g>
			<path class="st0" d="M78.99,22.29l0.05,0.04l-5.43,11.02l0,0L60.29,46.8l-0.05,0.07l-0.01-0.1l0.01-0.01L78.99,22.29z
				 M73.57,33.31l5.28-10.72L60.61,46.39L73.57,33.31z"/>
		</g>
		<g>
			<path class="st0" d="M79.24,18.32l0.01,0.07l-34.87,5.3l-0.02-0.06l8.97-3.86h0L79.24,18.32z M44.62,23.58l33.94-5.16l-25.21,1.4
				L44.62,23.58z"/>
		</g>
		<g>
			<path class="st0" d="M79.31,18.31l-0.04,0.06l-19,28.46l-0.03-0.04L44.31,23.62l0.05-0.01L79.31,18.31z M60.27,46.72L79.17,18.4
				l-34.75,5.28L60.27,46.72z"/>
		</g>
		<g>
			<path class="st0" d="M42.05,5.35l0.02,0.03L53.4,19.82l-30.9,5.37l0.07-0.07L42.05,5.35z M53.28,19.77L42.04,5.45L22.68,25.08
				L53.28,19.77z"/>
		</g>
		<g>
			<path class="st0" d="M53.33,19.76l0.02,0.06l-8.97,3.86l0,0l-21.78,1.48l-0.01-0.07L53.33,19.76z M44.36,23.62l8.71-3.75
				l-29.85,5.18L44.36,23.62z"/>
		</g>
		<g>
			<path class="st0" d="M42.05,5.32l1.52,3.84l-0.01,0.02l-9.63,11.13l0,0l-0.04-0.03l0,0l0,0l0,0L42.05,5.32z M43.5,9.15
				l-1.45-3.68l-7.97,14.57L43.5,9.15z"/>
		</g>
		<g>
			<path class="st0" d="M42.02,5.37l0.05,0.04l-8.15,14.9l-0.01,0L22.6,25.16l-0.04-0.05L42.02,5.37z M33.88,20.27l8.03-14.68
				L22.73,25.03L33.88,20.27z"/>
		</g>
		<g>
			<polygon class="st0" points="39,0.09 43.49,9.14 20.31,15.45 27.19,0.09 27.12,0.09 20.23,15.48 20.25,15.5 20.26,15.53 
				43.54,9.19 43.58,9.18 39.07,0.09 			"/>
		</g>
		<g>
			<path class="st0" d="M43.63,9.1l-0.07,0.08l-9.65,11.15l-0.02-0.01l-13.74-4.83l0.1-0.03L43.63,9.1z M33.89,20.25l9.55-11.04
				L20.37,15.5L33.89,20.25z"/>
		</g>
		<g>
			<polygon class="st0" points="0,0.58 0.45,0.09 0.36,0.09 0,0.48 			"/>
			<polygon class="st0" points="0,1.57 3.47,0.09 3.3,0.09 0,1.5 			"/>
		</g>
		<g>
			<polygon class="st0" points="0,1.57 3.47,0.09 3.3,0.09 0,1.5 			"/>
			<polygon class="st0" points="0,3.18 20.24,15.53 20.27,15.55 27.19,0.09 27.12,0.09 20.24,15.45 0,3.1 			"/>
		</g>
	</g>
	<path class="st0" d="M8.14,80.34c0.08-0.14,0.26-0.18,0.39-0.09c0.13,0.08,0.18,0.26,0.09,0.4c-0.08,0.14-0.26,0.18-0.39,0.09
		C8.1,80.65,8.06,80.47,8.14,80.34z"/>
	<path class="st0" d="M8.14,80.33c0.08-0.14,0.26-0.18,0.4-0.1c0.14,0.09,0.18,0.27,0.09,0.41c-0.09,0.14-0.26,0.18-0.4,0.1
		C8.1,80.65,8.05,80.47,8.14,80.33z"/>
	<path class="st0" d="M7.95,80.21c0.15-0.25,0.47-0.32,0.71-0.17c0.24,0.15,0.32,0.48,0.17,0.72c-0.15,0.25-0.47,0.32-0.71,0.17
		C7.87,80.78,7.8,80.46,7.95,80.21z"/>
	<path class="st0" d="M14.69,70.95c0.1-0.17,0.32-0.22,0.49-0.12c0.17,0.11,0.22,0.33,0.12,0.5c-0.1,0.17-0.32,0.22-0.49,0.12
		C14.63,71.34,14.58,71.12,14.69,70.95z"/>
	<path class="st0" d="M14.62,70.91c0.13-0.21,0.39-0.27,0.59-0.14c0.2,0.13,0.27,0.4,0.14,0.6c-0.13,0.21-0.39,0.27-0.59,0.14
		C14.56,71.38,14.5,71.11,14.62,70.91z"/>
	<path class="st0" d="M14.68,70.95c0.1-0.17,0.33-0.22,0.5-0.12c0.17,0.11,0.22,0.33,0.12,0.5c-0.1,0.17-0.33,0.22-0.5,0.12
		C14.63,71.34,14.58,71.12,14.68,70.95z"/>
	<path class="st0" d="M8.01,80.25c0.13-0.21,0.4-0.28,0.61-0.15c0.21,0.13,0.27,0.41,0.14,0.62c-0.13,0.21-0.4,0.28-0.61,0.15
		C7.95,80.74,7.88,80.46,8.01,80.25z"/>
	<path class="st0" d="M8.06,80.29c0.11-0.18,0.34-0.24,0.52-0.12c0.18,0.11,0.23,0.35,0.12,0.53c-0.11,0.18-0.34,0.24-0.52,0.12
		C8.01,80.7,7.95,80.47,8.06,80.29z"/>
	<path class="st0" d="M8.02,80.26c0.13-0.2,0.39-0.27,0.59-0.14c0.2,0.13,0.26,0.4,0.14,0.6s-0.39,0.27-0.59,0.14
		C7.96,80.73,7.9,80.46,8.02,80.26z"/>
	<path class="st0" d="M8.28,80.42c0.04-0.06,0.11-0.08,0.17-0.04c0.06,0.04,0.08,0.12,0.04,0.18c-0.04,0.06-0.12,0.08-0.17,0.04
		C8.26,80.56,8.24,80.48,8.28,80.42z"/>
	<path class="st0" d="M8.21,80.38c0.06-0.1,0.19-0.13,0.29-0.07c0.1,0.06,0.13,0.19,0.07,0.29c-0.06,0.1-0.19,0.13-0.29,0.07
		C8.18,80.61,8.15,80.48,8.21,80.38z"/>
	<path class="st0" d="M35,78.66c0.08-0.13,0.24-0.17,0.37-0.09c0.12,0.08,0.16,0.25,0.09,0.37c-0.08,0.13-0.24,0.17-0.37,0.09
		C34.96,78.95,34.92,78.78,35,78.66z"/>
	<path class="st0" d="M14.85,71.05c0.05-0.08,0.15-0.1,0.23-0.06c0.08,0.05,0.1,0.15,0.05,0.23c-0.05,0.08-0.15,0.1-0.23,0.06
		C14.82,71.23,14.8,71.13,14.85,71.05z"/>
	<path class="st0" d="M19.64,71.9c0.05-0.09,0.16-0.11,0.25-0.06c0.08,0.05,0.11,0.17,0.06,0.25c-0.05,0.09-0.16,0.11-0.25,0.06
		C19.62,72.1,19.59,71.98,19.64,71.9z"/>
	<path class="st0" d="M34.95,78.62c0.09-0.16,0.3-0.2,0.45-0.11c0.15,0.1,0.2,0.3,0.11,0.46c-0.1,0.16-0.3,0.2-0.45,0.11
		C34.9,78.98,34.85,78.78,34.95,78.62z"/>
	<path class="st0" d="M14.5,70.83c0.17-0.27,0.52-0.36,0.79-0.19c0.27,0.17,0.35,0.53,0.18,0.8c-0.17,0.27-0.52,0.36-0.79,0.19
		C14.42,71.46,14.34,71.11,14.5,70.83z"/>
	<path class="st0" d="M14.25,70.67c0.25-0.41,0.79-0.54,1.19-0.29c0.41,0.26,0.53,0.8,0.28,1.21c-0.25,0.41-0.79,0.54-1.19,0.29
		C14.12,71.63,14,71.09,14.25,70.67z"/>
	<path class="st0" d="M34.98,78.65c0.08-0.14,0.26-0.18,0.39-0.09c0.13,0.08,0.17,0.26,0.09,0.4c-0.08,0.14-0.26,0.18-0.39,0.09
		C34.94,78.96,34.9,78.78,34.98,78.65z"/>
	<path class="st0" d="M14.77,71c0.08-0.13,0.24-0.16,0.36-0.09c0.12,0.08,0.16,0.24,0.08,0.37c-0.08,0.13-0.24,0.16-0.36,0.09
		C14.73,71.29,14.69,71.12,14.77,71z"/>
	<path class="st0" d="M28.32,58.04c0.07-0.11,0.21-0.14,0.32-0.08c0.11,0.07,0.14,0.21,0.07,0.32c-0.07,0.11-0.21,0.14-0.32,0.08
		C28.28,58.3,28.25,58.15,28.32,58.04z"/>
	<path class="st0" d="M19.39,71.74c0.14-0.23,0.44-0.3,0.66-0.16c0.23,0.14,0.3,0.44,0.16,0.67c-0.14,0.23-0.44,0.3-0.66,0.16
		C19.32,72.27,19.25,71.97,19.39,71.74z"/>
	<path class="st0" d="M14.84,71.05c0.05-0.08,0.16-0.11,0.24-0.06c0.08,0.05,0.11,0.16,0.06,0.24c-0.05,0.08-0.16,0.11-0.24,0.06
		C14.82,71.24,14.79,71.13,14.84,71.05z"/>
	<path class="st0" d="M19.52,71.82c0.09-0.16,0.3-0.2,0.45-0.11c0.15,0.1,0.2,0.3,0.11,0.46c-0.09,0.16-0.3,0.2-0.45,0.11
		C19.47,72.18,19.42,71.98,19.52,71.82z"/>
	<path class="st0" d="M17.89,49.95c0.05-0.09,0.17-0.12,0.25-0.06c0.09,0.05,0.11,0.17,0.06,0.26c-0.05,0.09-0.17,0.12-0.25,0.06
		C17.87,50.15,17.84,50.03,17.89,49.95z"/>
	<path class="st0" d="M28.25,58c0.09-0.14,0.27-0.19,0.42-0.1c0.14,0.09,0.19,0.28,0.1,0.42c-0.09,0.14-0.27,0.19-0.42,0.1
		S28.17,58.15,28.25,58z"/>
	<path class="st0" d="M27.99,57.84c0.18-0.29,0.55-0.38,0.84-0.2c0.29,0.18,0.38,0.56,0.2,0.85c-0.18,0.29-0.55,0.38-0.84,0.2
		C27.9,58.51,27.81,58.13,27.99,57.84z"/>
	<path class="st0" d="M17.57,49.75c0.16-0.27,0.51-0.35,0.77-0.18c0.26,0.17,0.34,0.52,0.18,0.78c-0.16,0.27-0.51,0.35-0.77,0.18
		C17.49,50.36,17.41,50.01,17.57,49.75z"/>
	<path class="st0" d="M17.83,49.9c0.08-0.13,0.24-0.16,0.36-0.09c0.12,0.08,0.16,0.24,0.08,0.37c-0.08,0.13-0.24,0.16-0.36,0.09
		C17.79,50.19,17.75,50.03,17.83,49.9z"/>
	<path class="st0" d="M81.14,71.75c0.17-0.28,0.54-0.37,0.82-0.2c0.28,0.17,0.36,0.55,0.19,0.83c-0.17,0.28-0.54,0.37-0.82,0.19
		C81.06,72.4,80.97,72.03,81.14,71.75z"/>
	<path class="st0" d="M72.33,69.18c0.07-0.11,0.21-0.15,0.32-0.08c0.11,0.07,0.14,0.21,0.08,0.33c-0.07,0.11-0.21,0.15-0.32,0.08
		C72.29,69.44,72.26,69.29,72.33,69.18z"/>
	<path class="st0" d="M81.01,71.66c0.22-0.36,0.68-0.47,1.04-0.25c0.35,0.22,0.46,0.69,0.24,1.05c-0.22,0.36-0.68,0.47-1.04,0.25
		C80.9,72.49,80.79,72.02,81.01,71.66z"/>
	<path class="st0" d="M81.44,71.94c0.07-0.11,0.22-0.15,0.33-0.08c0.11,0.07,0.15,0.22,0.08,0.33c-0.07,0.11-0.22,0.15-0.33,0.08
		C81.41,72.2,81.38,72.05,81.44,71.94z"/>
	<path class="st0" d="M64.72,84.41c0.07-0.12,0.22-0.15,0.33-0.08c0.11,0.07,0.15,0.22,0.08,0.34c-0.07,0.12-0.22,0.15-0.33,0.08
		C64.69,84.68,64.65,84.52,64.72,84.41z"/>
	<path class="st0" d="M72.19,69.1c0.11-0.19,0.36-0.25,0.54-0.13c0.18,0.12,0.24,0.36,0.13,0.55c-0.11,0.19-0.36,0.25-0.54,0.13
		C72.14,69.53,72.08,69.28,72.19,69.1z"/>
	<path class="st0" d="M72.08,69.02c0.15-0.25,0.48-0.33,0.73-0.17c0.25,0.16,0.33,0.49,0.17,0.74c-0.15,0.25-0.48,0.33-0.73,0.17
		C72,69.61,71.92,69.28,72.08,69.02z"/>
	<path class="st0" d="M59.81,64.38c0.11-0.17,0.33-0.23,0.5-0.12c0.17,0.11,0.22,0.34,0.12,0.51c-0.11,0.17-0.33,0.23-0.5,0.12
		C59.76,64.78,59.7,64.55,59.81,64.38z"/>
	<path class="st0" d="M64.66,84.98c0.01,0.01,0.02,0.01,0.03,0.02h0.48c0.08-0.04,0.15-0.1,0.2-0.19c0.15-0.25,0.07-0.57-0.17-0.72
		c-0.24-0.15-0.56-0.08-0.71,0.17C64.34,84.51,64.42,84.83,64.66,84.98z"/>
	<path class="st0" d="M34.97,78.64c0.09-0.15,0.28-0.19,0.42-0.1c0.14,0.09,0.19,0.28,0.1,0.43c-0.09,0.15-0.28,0.19-0.42,0.1
		C34.92,78.97,34.88,78.78,34.97,78.64z"/>
	<path class="st0" d="M30.82,44.69c0.09-0.14,0.27-0.19,0.41-0.1c0.14,0.09,0.18,0.28,0.1,0.42c-0.09,0.14-0.27,0.19-0.41,0.1
		C30.77,45.02,30.73,44.83,30.82,44.69z"/>
	<path class="st0" d="M59.96,64.47c0.06-0.09,0.17-0.12,0.26-0.06c0.09,0.06,0.12,0.18,0.06,0.27c-0.06,0.09-0.17,0.12-0.26,0.06
		C59.93,64.68,59.9,64.56,59.96,64.47z"/>
	<path class="st0" d="M34.95,78.63c0.09-0.16,0.29-0.2,0.45-0.11c0.15,0.1,0.2,0.3,0.11,0.45c-0.09,0.15-0.29,0.2-0.45,0.11
		C34.9,78.98,34.86,78.78,34.95,78.63z"/>
	<path class="st0" d="M34.73,78.49c0.17-0.28,0.53-0.36,0.8-0.19c0.27,0.17,0.36,0.54,0.19,0.82c-0.17,0.28-0.53,0.36-0.8,0.19
		C34.65,79.13,34.56,78.77,34.73,78.49z"/>
	<path class="st0" d="M59.85,64.4c0.09-0.15,0.29-0.2,0.44-0.11c0.15,0.1,0.2,0.3,0.1,0.45c-0.09,0.15-0.29,0.2-0.44,0.11
		C59.8,64.76,59.75,64.55,59.85,64.4z"/>
	<path class="st0" d="M34.83,78.55c0.13-0.22,0.42-0.29,0.64-0.15c0.22,0.14,0.29,0.43,0.15,0.65s-0.42,0.29-0.64,0.15
		C34.76,79.06,34.7,78.77,34.83,78.55z"/>
	<path class="st0" d="M19.5,71.81c0.1-0.17,0.32-0.22,0.48-0.12c0.17,0.1,0.22,0.32,0.11,0.49c-0.1,0.17-0.32,0.22-0.48,0.11
		C19.45,72.19,19.4,71.98,19.5,71.81z"/>
	<path class="st0" d="M15.2,45.69c0.12-0.19,0.36-0.25,0.55-0.13c0.19,0.12,0.24,0.37,0.13,0.55c-0.12,0.19-0.36,0.25-0.54,0.13
		C15.14,46.12,15.08,45.87,15.2,45.69z"/>
	<path class="st0" d="M30.78,44.66c0.1-0.16,0.31-0.22,0.48-0.11c0.16,0.1,0.21,0.32,0.11,0.48c-0.1,0.17-0.31,0.22-0.48,0.11
		C30.73,45.04,30.68,44.83,30.78,44.66z"/>
	<path class="st0" d="M19.54,71.84c0.09-0.14,0.27-0.19,0.41-0.1c0.14,0.09,0.18,0.27,0.1,0.42c-0.09,0.14-0.27,0.19-0.41,0.1
		C19.5,72.16,19.45,71.98,19.54,71.84z"/>
	<path class="st0" d="M19.46,71.78c0.11-0.19,0.36-0.25,0.54-0.13c0.19,0.12,0.24,0.36,0.13,0.55c-0.11,0.19-0.36,0.25-0.54,0.13
		C19.4,72.22,19.35,71.97,19.46,71.78z"/>
	<path class="st0" d="M35.05,78.69c0.06-0.1,0.19-0.13,0.29-0.07c0.1,0.06,0.13,0.19,0.07,0.29c-0.06,0.1-0.19,0.13-0.29,0.07
		C35.02,78.92,34.99,78.79,35.05,78.69z"/>
	<path class="st0" d="M30.8,44.68c0.09-0.15,0.29-0.2,0.44-0.1c0.15,0.09,0.2,0.29,0.1,0.45c-0.09,0.15-0.29,0.2-0.44,0.1
		C30.75,45.03,30.71,44.83,30.8,44.68z"/>
	<path class="st0" d="M19.52,71.82c0.09-0.16,0.3-0.2,0.45-0.11c0.15,0.1,0.2,0.3,0.11,0.46c-0.09,0.16-0.3,0.2-0.45,0.11
		C19.47,72.18,19.42,71.98,19.52,71.82z"/>
	<path class="st0" d="M28.21,57.98c0.1-0.17,0.33-0.22,0.49-0.12c0.17,0.11,0.22,0.33,0.12,0.5c-0.1,0.17-0.32,0.22-0.49,0.12
		C28.16,58.37,28.1,58.15,28.21,57.98z"/>
	<path class="st0" d="M3.8,36.19c0.15-0.24,0.46-0.31,0.69-0.17c0.24,0.15,0.31,0.46,0.16,0.7c-0.15,0.24-0.46,0.31-0.69,0.17
		C3.73,36.74,3.66,36.43,3.8,36.19z"/>
	<path class="st0" d="M15.41,45.82c0.04-0.07,0.14-0.09,0.21-0.05c0.07,0.04,0.09,0.14,0.05,0.21c-0.04,0.07-0.14,0.09-0.2,0.05
		C15.39,45.98,15.36,45.89,15.41,45.82z"/>
	<path class="st0" d="M28.37,58.08c0.05-0.08,0.15-0.1,0.22-0.05c0.08,0.05,0.1,0.15,0.05,0.23c-0.05,0.08-0.15,0.1-0.22,0.05
		C28.35,58.26,28.33,58.16,28.37,58.08z"/>
	<path class="st0" d="M28.45,58.13c0.02-0.04,0.07-0.05,0.1-0.02c0.04,0.02,0.05,0.07,0.02,0.11c-0.02,0.04-0.07,0.05-0.1,0.02
		C28.44,58.21,28.43,58.16,28.45,58.13z"/>
	<path class="st0" d="M19.43,71.77c0.13-0.21,0.39-0.27,0.59-0.14c0.2,0.13,0.26,0.4,0.14,0.6c-0.13,0.21-0.39,0.27-0.59,0.14
		C19.37,72.24,19.3,71.97,19.43,71.77z"/>
	<path class="st0" d="M15.32,45.76c0.07-0.12,0.23-0.16,0.35-0.08c0.12,0.07,0.16,0.23,0.08,0.35c-0.07,0.12-0.23,0.16-0.35,0.08
		C15.28,46.04,15.25,45.88,15.32,45.76z"/>
	<path class="st0" d="M28.3,58.03c0.07-0.12,0.22-0.15,0.34-0.08c0.12,0.07,0.15,0.23,0.08,0.34c-0.07,0.12-0.22,0.15-0.34,0.08
		C28.27,58.31,28.23,58.15,28.3,58.03z"/>
	<path class="st0" d="M17.83,49.91c0.07-0.12,0.23-0.16,0.35-0.08c0.12,0.08,0.16,0.24,0.08,0.36c-0.07,0.12-0.23,0.16-0.35,0.08
		C17.79,50.19,17.76,50.03,17.83,49.91z"/>
	<path class="st0" d="M1.54,32.76c0.08-0.13,0.25-0.17,0.38-0.09c0.13,0.08,0.17,0.25,0.09,0.39c-0.08,0.13-0.25,0.17-0.38,0.09
		C1.5,33.06,1.46,32.89,1.54,32.76z"/>
	<path class="st0" d="M4,36.31c0.08-0.13,0.25-0.17,0.37-0.09c0.13,0.08,0.17,0.25,0.09,0.38c-0.08,0.13-0.25,0.17-0.37,0.09
		C3.96,36.61,3.92,36.44,4,36.31z"/>
	<path class="st0" d="M17.72,49.84c0.11-0.18,0.35-0.24,0.53-0.13c0.18,0.11,0.24,0.35,0.12,0.54c-0.11,0.18-0.35,0.24-0.53,0.13
		C17.67,50.26,17.61,50.02,17.72,49.84z"/>
	<path class="st0" d="M17.84,49.92c0.07-0.11,0.22-0.15,0.33-0.08c0.11,0.07,0.15,0.22,0.08,0.34c-0.07,0.11-0.22,0.15-0.33,0.08
		C17.81,50.18,17.78,50.03,17.84,49.92z"/>
	<path class="st0" d="M28.08,57.9c0.15-0.24,0.46-0.32,0.7-0.17c0.24,0.15,0.31,0.47,0.16,0.71c-0.15,0.24-0.46,0.32-0.7,0.17
		C28.01,58.45,27.93,58.14,28.08,57.9z"/>
	<path class="st0" d="M3.93,36.27c0.1-0.17,0.33-0.22,0.49-0.12c0.17,0.11,0.22,0.33,0.12,0.5c-0.1,0.17-0.33,0.22-0.49,0.12
		C3.87,36.66,3.82,36.44,3.93,36.27z"/>
	<path class="st0" d="M17.82,49.9c0.08-0.13,0.24-0.17,0.36-0.09c0.12,0.08,0.16,0.24,0.08,0.37c-0.08,0.13-0.24,0.17-0.36,0.09
		C17.79,50.2,17.75,50.03,17.82,49.9z"/>
	<path class="st0" d="M1.54,32.76c0.08-0.13,0.26-0.18,0.39-0.09c0.13,0.08,0.17,0.26,0.09,0.4c-0.08,0.13-0.26,0.18-0.39,0.09
		C1.49,33.07,1.45,32.89,1.54,32.76z"/>
	<path class="st0" d="M17.7,49.82c0.12-0.2,0.38-0.26,0.57-0.14c0.2,0.12,0.26,0.38,0.13,0.58c-0.12,0.2-0.38,0.26-0.57,0.14
		C17.63,50.28,17.57,50.02,17.7,49.82z"/>
	<path class="st0" d="M1.51,32.74c0.09-0.15,0.28-0.19,0.43-0.1c0.15,0.09,0.19,0.29,0.1,0.43c-0.09,0.15-0.28,0.19-0.43,0.1
		C1.47,33.08,1.42,32.89,1.51,32.74z"/>
	<path class="st0" d="M81.49,71.96c0.05-0.09,0.17-0.12,0.26-0.06c0.09,0.06,0.12,0.17,0.06,0.26c-0.05,0.09-0.17,0.12-0.26,0.06
		C81.46,72.17,81.43,72.05,81.49,71.96z"/>
	<path class="st0" d="M90.82,65.11c0.1-0.16,0.3-0.21,0.45-0.11c0.15,0.1,0.2,0.3,0.11,0.46c-0.1,0.16-0.3,0.21-0.45,0.11
		C90.77,65.47,90.73,65.27,90.82,65.11z"/>
	<path class="st0" d="M118.4,79.15c0.18-0.3,0.57-0.39,0.86-0.21c0.29,0.18,0.38,0.57,0.2,0.87c-0.18,0.3-0.57,0.39-0.86,0.21
		C118.31,79.84,118.22,79.45,118.4,79.15z"/>
	<path class="st0" d="M81.38,71.9c0.09-0.15,0.28-0.19,0.43-0.1c0.15,0.09,0.19,0.28,0.1,0.43c-0.09,0.15-0.28,0.19-0.43,0.1
		C81.34,72.24,81.29,72.04,81.38,71.9z"/>
	<path class="st0" d="M72.37,69.21c0.05-0.09,0.17-0.11,0.25-0.06c0.09,0.05,0.11,0.17,0.06,0.25c-0.05,0.09-0.17,0.11-0.25,0.06
		C72.35,69.41,72.32,69.3,72.37,69.21z"/>
	<path class="st0" d="M81.66,75.23c0.08-0.14,0.26-0.18,0.39-0.09c0.13,0.08,0.18,0.26,0.09,0.4c-0.08,0.14-0.26,0.18-0.39,0.09
		C81.61,75.55,81.57,75.37,81.66,75.23z"/>
	<path class="st0" d="M90.96,65.2c0.05-0.08,0.15-0.1,0.23-0.06c0.08,0.05,0.1,0.15,0.05,0.23c-0.05,0.08-0.15,0.1-0.23,0.05
		C90.94,65.38,90.91,65.28,90.96,65.2z"/>
	<path class="st0" d="M72.12,69.05c0.14-0.23,0.44-0.3,0.66-0.16c0.23,0.14,0.3,0.44,0.16,0.67c-0.14,0.23-0.44,0.3-0.66,0.16
		C72.05,69.58,71.98,69.28,72.12,69.05z"/>
	<path class="st0" d="M72.34,69.19c0.07-0.11,0.2-0.14,0.31-0.07c0.11,0.07,0.14,0.21,0.07,0.31c-0.07,0.11-0.2,0.14-0.31,0.07
		C72.3,69.43,72.27,69.29,72.34,69.19z"/>
	<path class="st0" d="M81.49,71.96c0.05-0.09,0.17-0.11,0.25-0.06c0.09,0.05,0.11,0.17,0.06,0.26c-0.05,0.09-0.17,0.11-0.25,0.06
		C81.47,72.17,81.44,72.05,81.49,71.96z"/>
	<path class="st0" d="M90.62,64.99c0.16-0.27,0.51-0.35,0.77-0.19c0.26,0.17,0.35,0.52,0.18,0.79c-0.16,0.27-0.51,0.35-0.77,0.19
		C90.54,65.61,90.46,65.25,90.62,64.99z"/>
	<path class="st0" d="M72.27,69.15c0.09-0.14,0.27-0.19,0.41-0.1c0.14,0.09,0.18,0.28,0.1,0.42c-0.09,0.14-0.27,0.19-0.41,0.1
		C72.23,69.48,72.18,69.29,72.27,69.15z"/>
	<path class="st0" d="M52.78,60.99c0.04-0.07,0.13-0.09,0.19-0.05c0.07,0.04,0.09,0.13,0.05,0.2c-0.04,0.07-0.13,0.09-0.19,0.05
		C52.75,61.14,52.73,61.06,52.78,60.99z"/>
	<path class="st0" d="M81.77,75.3c0.04-0.07,0.14-0.1,0.21-0.05c0.07,0.05,0.09,0.14,0.05,0.22c-0.04,0.07-0.14,0.1-0.21,0.05
		C81.75,75.47,81.72,75.37,81.77,75.3z"/>
	<path class="st0" d="M72.34,69.19c0.06-0.11,0.2-0.14,0.31-0.07c0.1,0.07,0.14,0.2,0.07,0.31c-0.06,0.11-0.2,0.14-0.31,0.07
		C72.31,69.43,72.27,69.29,72.34,69.19z"/>
	<path class="st0" d="M81.66,75.23c0.08-0.13,0.25-0.17,0.39-0.09c0.13,0.08,0.17,0.26,0.09,0.39c-0.08,0.13-0.25,0.17-0.39,0.09
		C81.62,75.54,81.58,75.37,81.66,75.23z"/>
	<path class="st0" d="M65.97,84.5c0.07-0.12,0.22-0.15,0.34-0.08c0.12,0.07,0.15,0.23,0.08,0.34c-0.07,0.12-0.22,0.15-0.34,0.08
		C65.94,84.77,65.9,84.62,65.97,84.5z"/>
	<path class="st0" d="M60.02,64.51c0.04-0.06,0.11-0.08,0.17-0.04c0.06,0.04,0.08,0.11,0.04,0.17c-0.04,0.06-0.11,0.08-0.17,0.04
		C60,64.64,59.98,64.57,60.02,64.51z"/>
	<path class="st0" d="M60.98,52.5c0.17-0.27,0.52-0.36,0.79-0.19c0.27,0.17,0.35,0.53,0.19,0.8c-0.17,0.27-0.52,0.36-0.79,0.19
		C60.89,53.13,60.81,52.78,60.98,52.5z"/>
	<path class="st0" d="M52.55,60.85c0.12-0.19,0.37-0.25,0.56-0.13c0.19,0.12,0.25,0.37,0.13,0.56c-0.12,0.19-0.37,0.25-0.56,0.13
		C52.49,61.29,52.43,61.04,52.55,60.85z"/>
	<path class="st0" d="M59.65,64.28c0.16-0.26,0.5-0.34,0.75-0.18c0.26,0.16,0.34,0.5,0.18,0.77c-0.16,0.26-0.5,0.34-0.75,0.18
		C59.57,64.88,59.5,64.54,59.65,64.28z"/>
	<path class="st0" d="M59.95,64.47c0.06-0.09,0.18-0.12,0.27-0.06c0.09,0.06,0.12,0.18,0.06,0.27c-0.06,0.09-0.18,0.12-0.27,0.06
		C59.93,64.68,59.9,64.56,59.95,64.47z"/>
	<path class="st0" d="M52.58,60.87c0.11-0.18,0.34-0.23,0.51-0.12c0.17,0.11,0.23,0.34,0.12,0.52c-0.11,0.18-0.34,0.23-0.51,0.12
		C52.53,61.27,52.47,61.04,52.58,60.87z"/>
	<path class="st0" d="M59.74,64.33c0.13-0.21,0.41-0.28,0.62-0.15c0.21,0.13,0.28,0.41,0.15,0.63c-0.13,0.21-0.41,0.28-0.62,0.15
		C59.67,64.83,59.61,64.55,59.74,64.33z"/>
	<path class="st0" d="M30.8,44.68c0.09-0.15,0.29-0.2,0.44-0.1c0.15,0.09,0.2,0.29,0.1,0.44c-0.09,0.15-0.29,0.2-0.44,0.1
		C30.75,45.03,30.71,44.83,30.8,44.68z"/>
	<path class="st0" d="M32.08,45.18c0.06-0.1,0.2-0.14,0.3-0.07c0.1,0.06,0.13,0.2,0.07,0.3c-0.06,0.1-0.2,0.14-0.3,0.07
		C32.05,45.42,32.01,45.29,32.08,45.18z"/>
	<path class="st0" d="M60.8,52.39c0.23-0.37,0.71-0.49,1.08-0.26c0.37,0.23,0.48,0.72,0.25,1.1c-0.23,0.37-0.71,0.49-1.08,0.26
		C60.68,53.25,60.57,52.76,60.8,52.39z"/>
	<path class="st0" d="M30.9,44.74c0.06-0.1,0.18-0.13,0.28-0.07c0.09,0.06,0.12,0.19,0.07,0.28c-0.06,0.1-0.18,0.13-0.28,0.07
		C30.87,44.96,30.84,44.83,30.9,44.74z"/>
	<path class="st0" d="M30.63,44.57c0.15-0.25,0.47-0.32,0.71-0.17c0.24,0.15,0.32,0.48,0.17,0.72c-0.15,0.25-0.47,0.32-0.71,0.17
		C30.56,45.14,30.48,44.82,30.63,44.57z"/>
	<path class="st0" d="M59.89,64.43c0.08-0.13,0.24-0.17,0.37-0.09c0.13,0.08,0.16,0.25,0.09,0.37c-0.08,0.13-0.24,0.17-0.37,0.09
		C59.85,64.72,59.82,64.56,59.89,64.43z"/>
	<path class="st0" d="M61.22,52.65c0.08-0.14,0.26-0.18,0.4-0.09c0.13,0.08,0.18,0.27,0.09,0.4c-0.08,0.14-0.26,0.18-0.4,0.09
		C61.18,52.97,61.14,52.79,61.22,52.65z"/>
	<path class="st0" d="M30.86,44.71c0.07-0.12,0.23-0.16,0.34-0.08c0.12,0.07,0.15,0.23,0.08,0.35c-0.07,0.12-0.23,0.16-0.34,0.08
		C30.82,44.99,30.79,44.83,30.86,44.71z"/>
	<path class="st0" d="M15.2,45.69c0.11-0.19,0.35-0.24,0.54-0.13c0.18,0.12,0.24,0.36,0.13,0.54c-0.11,0.19-0.35,0.24-0.54,0.13
		C15.15,46.12,15.09,45.87,15.2,45.69z"/>
	<path class="st0" d="M17.58,31.95c0.08-0.13,0.25-0.17,0.39-0.09c0.13,0.08,0.17,0.26,0.09,0.39c-0.08,0.13-0.25,0.17-0.39,0.09
		C17.54,32.26,17.5,32.08,17.58,31.95z"/>
	<path class="st0" d="M31.92,45.09c0.12-0.19,0.36-0.25,0.55-0.13c0.19,0.12,0.24,0.37,0.13,0.56c-0.12,0.19-0.36,0.25-0.55,0.13
		C31.87,45.52,31.81,45.28,31.92,45.09z"/>
	<path class="st0" d="M15.25,45.72c0.1-0.16,0.3-0.21,0.46-0.11c0.16,0.1,0.2,0.31,0.11,0.46c-0.1,0.16-0.3,0.21-0.46,0.11
		C15.2,46.09,15.16,45.88,15.25,45.72z"/>
	<path class="st0" d="M15.3,45.75c0.08-0.13,0.25-0.17,0.38-0.09c0.13,0.08,0.17,0.25,0.09,0.38c-0.08,0.13-0.25,0.17-0.38,0.09
		C15.26,46.05,15.22,45.88,15.3,45.75z"/>
	<path class="st0" d="M30.96,44.78c0.04-0.06,0.11-0.08,0.17-0.04c0.06,0.04,0.08,0.11,0.04,0.17c-0.04,0.06-0.11,0.08-0.17,0.04
		C30.95,44.92,30.93,44.84,30.96,44.78z"/>
	<path class="st0" d="M31.99,45.13c0.09-0.15,0.29-0.2,0.44-0.11c0.15,0.09,0.2,0.3,0.1,0.45c-0.09,0.15-0.29,0.2-0.44,0.11
		C31.94,45.48,31.9,45.28,31.99,45.13z"/>
	<path class="st0" d="M15.05,45.6c0.16-0.27,0.51-0.35,0.78-0.19c0.26,0.17,0.35,0.52,0.18,0.79c-0.16,0.27-0.51,0.35-0.78,0.19
		C14.97,46.22,14.89,45.86,15.05,45.6z"/>
	<path class="st0" d="M3.94,36.27c0.1-0.17,0.32-0.22,0.48-0.12c0.16,0.1,0.21,0.32,0.11,0.49c-0.1,0.17-0.32,0.22-0.48,0.11
		C3.88,36.66,3.83,36.44,3.94,36.27z"/>
	<path class="st0" d="M31.6,22.39c0.12-0.19,0.37-0.25,0.56-0.13c0.19,0.12,0.25,0.38,0.13,0.57c-0.12,0.19-0.37,0.25-0.56,0.13
		C31.54,22.84,31.48,22.58,31.6,22.39z"/>
	<path class="st0" d="M17.58,31.95c0.08-0.13,0.26-0.18,0.39-0.09c0.13,0.08,0.17,0.26,0.09,0.4c-0.08,0.13-0.26,0.18-0.39,0.09
		C17.53,32.26,17.49,32.08,17.58,31.95z"/>
	<path class="st0" d="M4.07,36.36c0.06-0.09,0.17-0.12,0.26-0.06c0.09,0.06,0.12,0.18,0.06,0.27c-0.06,0.09-0.17,0.12-0.26,0.06
		C4.04,36.57,4.01,36.45,4.07,36.36z"/>
	<path class="st0" d="M4.06,36.35c0.06-0.1,0.19-0.13,0.28-0.07c0.1,0.06,0.13,0.19,0.07,0.29c-0.06,0.1-0.19,0.13-0.28,0.07
		C4.03,36.57,4,36.45,4.06,36.35z"/>
	<path class="st0" d="M15.35,45.78c0.06-0.1,0.2-0.14,0.3-0.07c0.1,0.06,0.13,0.2,0.07,0.3c-0.06,0.1-0.2,0.14-0.3,0.07
		C15.32,46.02,15.29,45.88,15.35,45.78z"/>
	<path class="st0" d="M17.4,31.84c0.14-0.23,0.44-0.3,0.67-0.16c0.23,0.14,0.3,0.45,0.16,0.68c-0.14,0.23-0.44,0.3-0.67,0.16
		C17.33,32.37,17.26,32.07,17.4,31.84z"/>
	<path class="st0" d="M3.8,36.19c0.15-0.24,0.46-0.32,0.7-0.17c0.24,0.15,0.31,0.47,0.16,0.71c-0.15,0.24-0.46,0.32-0.7,0.17
		C3.72,36.75,3.65,36.43,3.8,36.19z"/>
	<path class="st0" d="M1.42,32.68c0.12-0.2,0.38-0.26,0.58-0.14c0.2,0.12,0.26,0.39,0.14,0.59c-0.12,0.2-0.38,0.26-0.58,0.14
		C1.36,33.15,1.3,32.88,1.42,32.68z"/>
	<path class="st0" d="M10.45,15.02c0.04-0.06,0.12-0.08,0.18-0.04c0.06,0.04,0.08,0.12,0.04,0.18c-0.04,0.06-0.12,0.08-0.18,0.04
		C10.43,15.16,10.42,15.08,10.45,15.02z"/>
	<path class="st0" d="M31.79,22.51c0.05-0.09,0.17-0.12,0.26-0.06c0.09,0.05,0.11,0.17,0.06,0.26c-0.05,0.09-0.17,0.12-0.26,0.06
		C31.76,22.71,31.73,22.59,31.79,22.51z"/>
	<path class="st0" d="M1.49,32.73c0.1-0.16,0.3-0.21,0.46-0.11c0.16,0.1,0.21,0.31,0.11,0.47c-0.1,0.16-0.3,0.21-0.46,0.11
		C1.44,33.1,1.39,32.89,1.49,32.73z"/>
	<path class="st0" d="M1.55,32.77c0.08-0.13,0.24-0.17,0.36-0.09c0.12,0.08,0.16,0.24,0.09,0.37c-0.08,0.13-0.24,0.16-0.36,0.09
		C1.51,33.06,1.47,32.89,1.55,32.77z"/>
	<path class="st0" d="M4.08,36.36c0.05-0.09,0.17-0.11,0.25-0.06c0.09,0.05,0.11,0.17,0.06,0.26c-0.05,0.09-0.17,0.11-0.25,0.06
		C4.05,36.56,4.02,36.45,4.08,36.36z"/>
	<path class="st0" d="M31.74,22.48c0.07-0.11,0.22-0.15,0.33-0.08c0.11,0.07,0.15,0.22,0.08,0.34c-0.07,0.12-0.22,0.15-0.33,0.08
		C31.7,22.74,31.67,22.59,31.74,22.48z"/>
	<path class="st0" d="M1.4,32.67c0.13-0.21,0.4-0.27,0.6-0.14c0.21,0.13,0.27,0.4,0.14,0.61c-0.13,0.21-0.4,0.27-0.6,0.14
		C1.34,33.16,1.27,32.88,1.4,32.67z"/>
	<path class="st0" d="M10.18,14.84c0.13-0.22,0.41-0.28,0.63-0.15c0.21,0.13,0.28,0.42,0.15,0.63c-0.13,0.22-0.41,0.28-0.62,0.15
		C10.11,15.34,10.05,15.06,10.18,14.84z"/>
	<path class="st0" d="M1.6,32.8c0.06-0.1,0.18-0.13,0.28-0.07c0.1,0.06,0.12,0.19,0.07,0.29c-0.06,0.1-0.18,0.13-0.28,0.07
		C1.57,33.02,1.54,32.9,1.6,32.8z"/>
	<path class="st0" d="M10.42,14.99c0.05-0.08,0.16-0.11,0.24-0.06c0.08,0.05,0.11,0.16,0.06,0.24c-0.05,0.08-0.16,0.11-0.24,0.06
		C10.39,15.18,10.37,15.08,10.42,14.99z"/>
	<path class="st0" d="M118.66,79.31c0.09-0.15,0.29-0.2,0.45-0.11c0.15,0.1,0.2,0.3,0.1,0.45c-0.09,0.15-0.29,0.2-0.45,0.11
		C118.61,79.67,118.56,79.46,118.66,79.31z"/>
	<path class="st0" d="M108.94,60.91c0.06-0.1,0.19-0.13,0.28-0.07c0.1,0.06,0.13,0.19,0.07,0.29c-0.06,0.1-0.19,0.13-0.28,0.07
		C108.91,61.14,108.88,61.01,108.94,60.91z"/>
	<path class="st0" d="M109.37,62.6c0.23-0.38,0.71-0.49,1.08-0.26c0.37,0.23,0.48,0.72,0.25,1.1c-0.23,0.38-0.71,0.49-1.08,0.26
		C109.25,63.47,109.14,62.97,109.37,62.6z"/>
	<path class="st0" d="M118.71,79.34c0.08-0.12,0.23-0.16,0.36-0.08c0.12,0.08,0.16,0.24,0.08,0.36c-0.08,0.12-0.23,0.16-0.36,0.08
		C118.67,79.63,118.64,79.47,118.71,79.34z"/>
	<path class="st0" d="M90.73,65.06c0.13-0.21,0.39-0.27,0.6-0.14c0.2,0.13,0.27,0.4,0.14,0.6c-0.13,0.21-0.39,0.27-0.6,0.14
		C90.67,65.53,90.61,65.26,90.73,65.06z"/>
	<path class="st0" d="M101.19,54.32c0.13-0.21,0.4-0.27,0.6-0.14c0.21,0.13,0.27,0.4,0.14,0.61c-0.13,0.21-0.4,0.27-0.6,0.14
		C101.12,54.8,101.06,54.53,101.19,54.32z"/>
	<path class="st0" d="M108.76,60.8c0.12-0.19,0.37-0.25,0.56-0.13c0.19,0.12,0.25,0.38,0.13,0.57c-0.12,0.19-0.37,0.25-0.56,0.13
		C108.7,61.25,108.64,61,108.76,60.8z"/>
	<path class="st0" d="M90.81,65.1c0.1-0.16,0.31-0.21,0.47-0.11c0.16,0.1,0.21,0.32,0.11,0.48c-0.1,0.16-0.31,0.21-0.47,0.11
		C90.76,65.48,90.71,65.27,90.81,65.1z"/>
	<path class="st0" d="M90.93,65.18c0.06-0.1,0.19-0.13,0.29-0.07c0.1,0.06,0.13,0.19,0.07,0.29c-0.06,0.1-0.19,0.13-0.29,0.07
		C90.9,65.41,90.87,65.27,90.93,65.18z"/>
	<path class="st0" d="M118.71,79.34c0.08-0.13,0.24-0.17,0.36-0.09c0.12,0.08,0.16,0.24,0.09,0.37c-0.08,0.13-0.24,0.17-0.36,0.09
		C118.67,79.63,118.63,79.47,118.71,79.34z"/>
	<path class="st0" d="M108.93,60.9c0.06-0.1,0.2-0.13,0.3-0.07c0.1,0.06,0.13,0.2,0.07,0.3c-0.06,0.1-0.19,0.13-0.3,0.07
		C108.9,61.14,108.86,61.01,108.93,60.9z"/>
	<path class="st0" d="M90.83,65.11c0.09-0.15,0.29-0.2,0.45-0.11c0.15,0.1,0.2,0.3,0.11,0.45c-0.09,0.15-0.29,0.2-0.45,0.11
		C90.78,65.47,90.73,65.27,90.83,65.11z"/>
	<path class="st0" d="M81.7,75.26c0.07-0.11,0.21-0.14,0.32-0.08c0.11,0.07,0.14,0.21,0.08,0.32c-0.07,0.11-0.21,0.14-0.32,0.08
		C81.67,75.51,81.63,75.37,81.7,75.26z"/>
	<path class="st0" d="M73.41,33.22c0.06-0.1,0.19-0.13,0.29-0.07c0.1,0.06,0.13,0.19,0.07,0.29c-0.06,0.1-0.19,0.13-0.29,0.07
		C73.38,33.45,73.35,33.32,73.41,33.22z"/>
	<path class="st0" d="M101.35,54.42c0.07-0.12,0.23-0.16,0.35-0.08c0.12,0.07,0.16,0.23,0.08,0.35c-0.07,0.12-0.23,0.16-0.35,0.08
		C101.31,54.69,101.27,54.54,101.35,54.42z"/>
	<path class="st0" d="M81.67,75.24c0.08-0.13,0.24-0.17,0.37-0.09c0.13,0.08,0.16,0.25,0.09,0.37c-0.08,0.13-0.24,0.17-0.37,0.09
		C81.63,75.53,81.59,75.37,81.67,75.24z"/>
	<path class="st0" d="M81.74,75.29c0.05-0.09,0.16-0.11,0.25-0.06c0.08,0.05,0.11,0.17,0.06,0.25c-0.05,0.09-0.16,0.11-0.25,0.06
		C81.72,75.49,81.69,75.37,81.74,75.29z"/>
	<path class="st0" d="M90.89,65.16c0.07-0.12,0.22-0.15,0.34-0.08c0.12,0.07,0.15,0.23,0.08,0.34c-0.07,0.12-0.22,0.15-0.34,0.08
		C90.86,65.43,90.82,65.27,90.89,65.16z"/>
	<path class="st0" d="M101.3,54.39c0.09-0.15,0.28-0.19,0.42-0.1c0.14,0.09,0.19,0.28,0.1,0.43c-0.09,0.15-0.28,0.19-0.42,0.1
		C101.26,54.72,101.21,54.53,101.3,54.39z"/>
	<path class="st0" d="M81.76,75.3c0.05-0.07,0.14-0.1,0.22-0.05c0.07,0.05,0.1,0.14,0.05,0.22c-0.05,0.08-0.14,0.1-0.22,0.05
		C81.74,75.47,81.72,75.37,81.76,75.3z"/>
	<path class="st0" d="M52.73,60.96c0.06-0.09,0.18-0.12,0.27-0.06c0.09,0.06,0.12,0.18,0.06,0.27c-0.06,0.09-0.18,0.12-0.27,0.06
		C52.7,61.17,52.67,61.05,52.73,60.96z"/>
	<path class="st0" d="M60.04,46.64c0.08-0.13,0.24-0.16,0.36-0.09c0.12,0.08,0.16,0.24,0.09,0.37c-0.08,0.13-0.24,0.16-0.36,0.09
		C60,46.93,59.97,46.76,60.04,46.64z"/>
	<path class="st0" d="M73.37,33.19c0.08-0.13,0.24-0.16,0.36-0.09c0.12,0.08,0.16,0.24,0.09,0.37c-0.08,0.13-0.24,0.16-0.36,0.09
		C73.33,33.48,73.29,33.32,73.37,33.19z"/>
	<path class="st0" d="M52.54,60.84c0.12-0.2,0.38-0.26,0.57-0.14c0.19,0.12,0.25,0.38,0.13,0.58c-0.12,0.2-0.38,0.26-0.57,0.14
		C52.48,61.3,52.42,61.04,52.54,60.84z"/>
	<path class="st0" d="M52.56,60.85c0.12-0.19,0.36-0.25,0.54-0.13c0.19,0.12,0.24,0.36,0.13,0.55c-0.12,0.19-0.36,0.25-0.54,0.13
		C52.5,61.29,52.44,61.04,52.56,60.85z"/>
	<path class="st0" d="M81.75,75.29c0.05-0.09,0.16-0.11,0.25-0.06c0.08,0.05,0.11,0.17,0.06,0.25c-0.05,0.09-0.16,0.11-0.25,0.06
		C81.72,75.49,81.69,75.37,81.75,75.29z"/>
	<path class="st0" d="M73.21,33.1c0.13-0.21,0.4-0.28,0.61-0.15c0.21,0.13,0.27,0.41,0.14,0.62c-0.13,0.21-0.4,0.28-0.61,0.15
		C73.15,33.59,73.08,33.31,73.21,33.1z"/>
	<path class="st0" d="M52.73,60.96c0.05-0.09,0.17-0.12,0.26-0.06c0.09,0.06,0.12,0.17,0.06,0.26c-0.05,0.09-0.17,0.12-0.26,0.06
		C52.71,61.17,52.68,61.05,52.73,60.96z"/>
	<path class="st0" d="M61.27,52.69c0.07-0.11,0.2-0.14,0.31-0.07c0.11,0.07,0.14,0.21,0.07,0.31c-0.07,0.11-0.2,0.14-0.31,0.07
		C61.24,52.94,61.21,52.8,61.27,52.69z"/>
	<path class="st0" d="M44.13,23.5c0.08-0.13,0.25-0.18,0.39-0.09c0.13,0.08,0.17,0.26,0.09,0.39c-0.08,0.13-0.25,0.18-0.39,0.09
		C44.09,23.81,44.05,23.63,44.13,23.5z"/>
	<path class="st0" d="M60.15,46.7c0.04-0.06,0.12-0.08,0.19-0.04c0.06,0.04,0.08,0.12,0.04,0.19c-0.04,0.06-0.12,0.08-0.19,0.04
		C60.13,46.85,60.11,46.77,60.15,46.7z"/>
	<path class="st0" d="M60.77,52.37c0.24-0.39,0.74-0.51,1.13-0.27c0.39,0.24,0.5,0.75,0.27,1.15c-0.24,0.39-0.74,0.51-1.13,0.27
		C60.65,53.27,60.53,52.76,60.77,52.37z"/>
	<path class="st0" d="M61.24,52.67c0.07-0.12,0.23-0.16,0.35-0.08c0.12,0.08,0.16,0.24,0.08,0.36c-0.08,0.12-0.23,0.16-0.35,0.08
		C61.21,52.95,61.17,52.79,61.24,52.67z"/>
	<path class="st0" d="M52.69,60.94c0.07-0.12,0.22-0.15,0.33-0.08c0.11,0.07,0.15,0.22,0.08,0.34c-0.07,0.12-0.22,0.15-0.33,0.08
		C52.65,61.2,52.62,61.05,52.69,60.94z"/>
	<path class="st0" d="M59.98,46.59c0.1-0.16,0.31-0.21,0.47-0.11c0.16,0.1,0.21,0.31,0.11,0.48c-0.1,0.16-0.31,0.21-0.47,0.11
		C59.93,46.97,59.88,46.76,59.98,46.59z"/>
	<path class="st0" d="M61.27,52.69c0.07-0.11,0.21-0.14,0.31-0.07c0.11,0.07,0.14,0.21,0.07,0.32c-0.07,0.11-0.21,0.14-0.31,0.07
		C61.24,52.94,61.21,52.79,61.27,52.69z"/>
	<path class="st0" d="M31.96,45.11c0.1-0.17,0.32-0.22,0.49-0.12c0.17,0.11,0.22,0.33,0.12,0.5c-0.1,0.17-0.32,0.22-0.49,0.12
		C31.91,45.5,31.86,45.28,31.96,45.11z"/>
	<path class="st0" d="M22.39,25.01c0.07-0.11,0.21-0.14,0.32-0.08c0.11,0.07,0.14,0.21,0.07,0.32c-0.07,0.11-0.21,0.14-0.32,0.08
		C22.36,25.26,22.33,25.12,22.39,25.01z"/>
	<path class="st0" d="M44.15,23.51c0.08-0.12,0.23-0.16,0.35-0.09c0.12,0.08,0.16,0.24,0.08,0.36c-0.07,0.12-0.23,0.16-0.35,0.08
		C44.12,23.8,44.08,23.63,44.15,23.51z"/>
	<path class="st0" d="M31.73,44.96c0.18-0.3,0.57-0.39,0.87-0.21c0.3,0.19,0.39,0.58,0.2,0.88c-0.18,0.3-0.57,0.39-0.87,0.21
		C31.63,45.66,31.54,45.26,31.73,44.96z"/>
	<path class="st0" d="M31.81,45.01c0.16-0.26,0.49-0.33,0.74-0.18c0.25,0.16,0.33,0.49,0.17,0.75c-0.16,0.25-0.49,0.33-0.74,0.18
		C31.73,45.6,31.65,45.27,31.81,45.01z"/>
	<path class="st0" d="M61.26,52.68c0.07-0.11,0.22-0.15,0.33-0.08c0.11,0.07,0.15,0.22,0.08,0.33c-0.07,0.11-0.22,0.15-0.33,0.08
		C61.23,52.94,61.19,52.79,61.26,52.68z"/>
	<path class="st0" d="M44.07,23.46c0.1-0.17,0.33-0.22,0.49-0.12c0.17,0.11,0.22,0.33,0.12,0.5c-0.1,0.17-0.33,0.22-0.49,0.12
		C44.01,23.85,43.96,23.63,44.07,23.46z"/>
	<path class="st0" d="M32.14,45.22c0.04-0.07,0.13-0.09,0.2-0.05c0.07,0.04,0.09,0.13,0.05,0.2c-0.04,0.07-0.13,0.09-0.2,0.05
		C32.12,45.38,32.1,45.29,32.14,45.22z"/>
	<path class="st0" d="M17.57,31.95c0.08-0.14,0.26-0.18,0.4-0.1c0.14,0.09,0.18,0.27,0.09,0.4c-0.08,0.14-0.26,0.18-0.4,0.09
		C17.53,32.26,17.49,32.08,17.57,31.95z"/>
	<path class="st0" d="M33.56,20.08c0.12-0.19,0.36-0.25,0.55-0.13c0.19,0.12,0.25,0.37,0.13,0.56c-0.12,0.19-0.36,0.25-0.55,0.13
		C33.5,20.52,33.44,20.27,33.56,20.08z"/>
	<path class="st0" d="M22.21,24.9c0.13-0.21,0.4-0.28,0.61-0.15c0.21,0.13,0.27,0.41,0.14,0.62c-0.13,0.21-0.4,0.27-0.61,0.14
		C22.15,25.38,22.09,25.1,22.21,24.9z"/>
	<path class="st0" d="M17.55,31.93c0.09-0.15,0.28-0.19,0.43-0.1c0.15,0.09,0.19,0.29,0.1,0.44c-0.09,0.15-0.28,0.2-0.43,0.1
		C17.5,32.28,17.46,32.08,17.55,31.93z"/>
	<path class="st0" d="M17.52,31.91c0.1-0.17,0.32-0.22,0.48-0.12c0.16,0.1,0.21,0.32,0.11,0.49c-0.1,0.17-0.32,0.22-0.48,0.11
		C17.47,32.3,17.42,32.08,17.52,31.91z"/>
	<path class="st0" d="M31.99,45.13c0.09-0.15,0.29-0.2,0.44-0.11c0.15,0.1,0.2,0.3,0.1,0.45c-0.09,0.15-0.29,0.2-0.44,0.11
		C31.94,45.48,31.9,45.28,31.99,45.13z"/>
	<path class="st0" d="M22.4,25.01c0.06-0.1,0.2-0.14,0.3-0.07c0.1,0.06,0.13,0.2,0.07,0.31c-0.06,0.1-0.2,0.14-0.3,0.07
		C22.37,25.25,22.34,25.12,22.4,25.01z"/>
	<path class="st0" d="M17.61,31.97c0.07-0.11,0.21-0.15,0.33-0.08c0.11,0.07,0.15,0.22,0.08,0.33c-0.07,0.11-0.22,0.15-0.33,0.08
		C17.58,32.23,17.54,32.09,17.61,31.97z"/>
	<path class="st0" d="M31.46,22.3c0.17-0.27,0.52-0.36,0.79-0.19c0.27,0.17,0.35,0.53,0.18,0.8c-0.17,0.27-0.52,0.36-0.79,0.19
		C31.37,22.93,31.29,22.57,31.46,22.3z"/>
	<path class="st0" d="M20.14,15.43c0.04-0.06,0.12-0.08,0.18-0.04c0.06,0.04,0.08,0.12,0.04,0.19c-0.04,0.06-0.12,0.08-0.18,0.04
		C20.12,15.57,20.1,15.49,20.14,15.43z"/>
	<path class="st0" d="M33.44,20.01c0.16-0.25,0.48-0.33,0.74-0.18c0.25,0.16,0.33,0.49,0.17,0.75c-0.16,0.25-0.48,0.33-0.74,0.18
		C33.37,20.59,33.29,20.26,33.44,20.01z"/>
	<path class="st0" d="M31.71,22.46c0.08-0.13,0.24-0.17,0.37-0.09c0.13,0.08,0.17,0.25,0.09,0.38c-0.08,0.13-0.25,0.17-0.37,0.09
		C31.67,22.76,31.63,22.59,31.71,22.46z"/>
	<path class="st0" d="M31.63,22.41c0.11-0.18,0.34-0.23,0.51-0.12c0.17,0.11,0.23,0.34,0.12,0.52c-0.11,0.18-0.34,0.23-0.51,0.12
		C31.57,22.82,31.52,22.58,31.63,22.41z"/>
	<path class="st0" d="M17.38,31.83c0.15-0.25,0.47-0.32,0.71-0.17c0.24,0.15,0.32,0.47,0.17,0.72c-0.15,0.25-0.47,0.32-0.71,0.17
		C17.3,32.39,17.23,32.07,17.38,31.83z"/>
	<path class="st0" d="M33.76,20.2c0.05-0.08,0.15-0.1,0.23-0.06c0.08,0.05,0.1,0.15,0.05,0.23c-0.05,0.08-0.15,0.1-0.23,0.05
		C33.73,20.39,33.71,20.28,33.76,20.2z"/>
	<path class="st0" d="M31.49,22.32c0.16-0.26,0.49-0.33,0.74-0.18c0.25,0.16,0.33,0.49,0.17,0.75c-0.16,0.26-0.49,0.33-0.74,0.18
		C31.41,22.91,31.33,22.57,31.49,22.32z"/>
	<path class="st0" d="M10.32,14.93c0.08-0.14,0.26-0.18,0.39-0.09c0.13,0.08,0.18,0.26,0.09,0.4c-0.08,0.14-0.26,0.18-0.39,0.09
		C10.28,15.25,10.24,15.07,10.32,14.93z"/>
	<path class="st0" d="M19.93,15.3c0.11-0.18,0.34-0.24,0.52-0.13c0.18,0.11,0.23,0.35,0.12,0.53c-0.11,0.18-0.34,0.24-0.52,0.13
		C19.88,15.71,19.82,15.48,19.93,15.3z"/>
	<path class="st0" d="M10.44,15.01c0.04-0.07,0.13-0.09,0.2-0.05c0.07,0.04,0.09,0.13,0.05,0.2c-0.04,0.07-0.13,0.09-0.2,0.05
		C10.42,15.17,10.4,15.08,10.44,15.01z"/>
	<path class="st0" d="M10.21,14.86c0.12-0.2,0.38-0.26,0.57-0.14c0.2,0.12,0.26,0.38,0.13,0.58c-0.12,0.2-0.38,0.26-0.57,0.14
		C10.15,15.32,10.09,15.06,10.21,14.86z"/>
	<path class="st0" d="M31.47,22.31c0.16-0.27,0.5-0.35,0.77-0.18c0.26,0.16,0.34,0.51,0.18,0.78c-0.16,0.27-0.5,0.35-0.77,0.18
		C31.39,22.92,31.31,22.57,31.47,22.31z"/>
	<path class="st0" d="M19.91,15.28c0.12-0.2,0.37-0.25,0.56-0.13c0.19,0.12,0.25,0.38,0.13,0.57c-0.12,0.2-0.37,0.25-0.56,0.13
		C19.85,15.73,19.79,15.48,19.91,15.28z"/>
	<path class="st0" d="M10.32,14.93c0.08-0.14,0.26-0.18,0.39-0.09c0.13,0.09,0.18,0.26,0.09,0.4c-0.08,0.14-0.26,0.18-0.39,0.09
		C10.28,15.25,10.24,15.07,10.32,14.93z"/>
	<path class="st0" d="M10.46,15.02c0.03-0.06,0.11-0.07,0.16-0.04c0.06,0.04,0.07,0.11,0.04,0.17c-0.04,0.06-0.11,0.07-0.16,0.04
		C10.45,15.15,10.43,15.08,10.46,15.02z"/>
	<path class="st0" d="M108.51,60.64c0.2-0.34,0.64-0.44,0.97-0.23c0.33,0.21,0.43,0.65,0.23,0.98c-0.2,0.34-0.64,0.44-0.97,0.23
		C108.41,61.42,108.31,60.98,108.51,60.64z"/>
	<path class="st0" d="M110.37,62.06c0.14-0.23,0.45-0.31,0.68-0.16c0.23,0.15,0.3,0.45,0.16,0.69c-0.14,0.23-0.45,0.31-0.68,0.16
		C110.29,62.6,110.22,62.29,110.37,62.06z"/>
	<path class="st0" d="M119.65,63.71c0.11,0.07,0.24,0.07,0.35,0.01v-0.65c-0.16-0.08-0.37-0.03-0.47,0.13
		C119.43,63.38,119.48,63.6,119.65,63.71z"/>
	<path class="st0" d="M108.83,60.85c0.09-0.15,0.29-0.2,0.44-0.11c0.15,0.1,0.2,0.3,0.1,0.45c-0.09,0.15-0.29,0.2-0.45,0.11
		C108.79,61.2,108.74,61,108.83,60.85z"/>
	<path class="st0" d="M101.26,54.36c0.1-0.17,0.32-0.22,0.48-0.12c0.17,0.1,0.22,0.32,0.11,0.49c-0.1,0.17-0.32,0.22-0.48,0.12
		C101.21,54.75,101.16,54.53,101.26,54.36z"/>
	<path class="st0" d="M95.31,50.64c0.08-0.14,0.27-0.18,0.4-0.1c0.14,0.09,0.18,0.27,0.09,0.41c-0.09,0.14-0.27,0.18-0.4,0.1
		C95.27,50.96,95.22,50.78,95.31,50.64z"/>
	<path class="st0" d="M110.58,62.19c0.07-0.11,0.22-0.15,0.33-0.08c0.11,0.07,0.15,0.22,0.08,0.33c-0.07,0.11-0.22,0.15-0.33,0.08
		C110.55,62.46,110.51,62.31,110.58,62.19z"/>
	<path class="st0" d="M101.3,54.39c0.09-0.15,0.28-0.19,0.42-0.1c0.14,0.09,0.19,0.28,0.1,0.43c-0.09,0.15-0.28,0.19-0.42,0.1
		C101.26,54.73,101.21,54.53,101.3,54.39z"/>
	<path class="st0" d="M101.32,54.4c0.08-0.14,0.26-0.18,0.39-0.09c0.13,0.08,0.18,0.26,0.09,0.4c-0.08,0.14-0.26,0.18-0.39,0.09
		C101.28,54.71,101.23,54.53,101.32,54.4z"/>
	<path class="st0" d="M108.87,60.87c0.08-0.14,0.26-0.18,0.39-0.09c0.13,0.08,0.18,0.26,0.09,0.4c-0.08,0.14-0.26,0.18-0.39,0.09
		C108.82,61.18,108.78,61,108.87,60.87z"/>
	<path class="st0" d="M110.52,62.16c0.09-0.15,0.28-0.19,0.42-0.1c0.14,0.09,0.19,0.28,0.1,0.43c-0.09,0.15-0.28,0.19-0.42,0.1
		C110.48,62.5,110.44,62.3,110.52,62.16z"/>
	<path class="st0" d="M101.33,54.4c0.08-0.13,0.25-0.17,0.38-0.09c0.13,0.08,0.17,0.26,0.09,0.39c-0.08,0.13-0.25,0.17-0.38,0.09
		C101.28,54.71,101.24,54.53,101.33,54.4z"/>
	<path class="st0" d="M73.3,33.15c0.1-0.17,0.31-0.22,0.48-0.11c0.16,0.1,0.21,0.32,0.11,0.48c-0.1,0.17-0.31,0.22-0.48,0.11
		C73.25,33.53,73.2,33.31,73.3,33.15z"/>
	<path class="st0" d="M78.65,22.08c0.12-0.2,0.39-0.27,0.59-0.14c0.2,0.13,0.26,0.39,0.14,0.6c-0.12,0.2-0.39,0.27-0.59,0.14
		C78.59,22.56,78.53,22.29,78.65,22.08z"/>
	<path class="st0" d="M95.07,50.49c0.16-0.27,0.51-0.35,0.78-0.19c0.27,0.17,0.35,0.52,0.18,0.79c-0.16,0.27-0.51,0.35-0.78,0.19
		C94.99,51.12,94.91,50.76,95.07,50.49z"/>
	<path class="st0" d="M73.3,33.15c0.1-0.16,0.31-0.22,0.48-0.11c0.16,0.1,0.21,0.32,0.11,0.48c-0.1,0.17-0.31,0.22-0.48,0.11
		C73.25,33.53,73.2,33.31,73.3,33.15z"/>
	<path class="st0" d="M73.2,33.09c0.14-0.22,0.42-0.29,0.64-0.15c0.22,0.14,0.29,0.43,0.15,0.65c-0.14,0.22-0.42,0.29-0.64,0.15
		C73.13,33.6,73.06,33.31,73.2,33.09z"/>
	<path class="st0" d="M101.34,54.41c0.08-0.13,0.24-0.16,0.36-0.09c0.12,0.08,0.16,0.24,0.09,0.37c-0.08,0.13-0.24,0.17-0.36,0.09
		C101.3,54.7,101.26,54.54,101.34,54.41z"/>
	<path class="st0" d="M95.39,50.69c0.06-0.09,0.18-0.12,0.27-0.06c0.09,0.06,0.12,0.18,0.06,0.28c-0.06,0.09-0.18,0.12-0.27,0.06
		C95.36,50.91,95.33,50.78,95.39,50.69z"/>
	<path class="st0" d="M73.43,33.23c0.06-0.09,0.18-0.12,0.27-0.06c0.09,0.06,0.12,0.18,0.06,0.27c-0.06,0.09-0.18,0.12-0.27,0.06
		C73.4,33.44,73.37,33.32,73.43,33.23z"/>
	<path class="st0" d="M59.79,46.48c0.16-0.27,0.5-0.35,0.77-0.18c0.26,0.16,0.34,0.51,0.18,0.78c-0.16,0.27-0.5,0.35-0.77,0.18
		C59.71,47.09,59.63,46.74,59.79,46.48z"/>
	<path class="st0" d="M79.12,18.27c0.04-0.07,0.14-0.09,0.21-0.05c0.07,0.04,0.09,0.14,0.05,0.21c-0.04,0.07-0.14,0.09-0.21,0.05
		C79.09,18.44,79.07,18.34,79.12,18.27z"/>
	<path class="st0" d="M78.84,22.2c0.06-0.1,0.19-0.13,0.28-0.07c0.1,0.06,0.13,0.19,0.07,0.29c-0.06,0.1-0.19,0.13-0.28,0.07
		C78.81,22.43,78.78,22.3,78.84,22.2z"/>
	<path class="st0" d="M60.07,46.65c0.07-0.11,0.21-0.14,0.31-0.08c0.11,0.07,0.14,0.21,0.07,0.32c-0.07,0.11-0.21,0.14-0.31,0.08
		C60.04,46.91,60.01,46.76,60.07,46.65z"/>
	<path class="st0" d="M59.9,46.55c0.12-0.2,0.39-0.27,0.59-0.14c0.2,0.13,0.26,0.39,0.14,0.6c-0.12,0.2-0.39,0.27-0.59,0.14
		C59.84,47.02,59.78,46.75,59.9,46.55z"/>
	<path class="st0" d="M73.27,33.13c0.11-0.18,0.35-0.24,0.53-0.13c0.18,0.11,0.23,0.35,0.12,0.54c-0.11,0.18-0.35,0.24-0.53,0.13
		C73.21,33.55,73.16,33.31,73.27,33.13z"/>
	<path class="st0" d="M78.58,22.04c0.15-0.25,0.47-0.32,0.71-0.17c0.24,0.15,0.32,0.48,0.17,0.73c-0.15,0.25-0.47,0.32-0.71,0.17
		C78.5,22.61,78.43,22.28,78.58,22.04z"/>
	<path class="st0" d="M59.86,46.52c0.14-0.23,0.44-0.3,0.66-0.16c0.23,0.14,0.29,0.44,0.16,0.67c-0.14,0.23-0.44,0.3-0.66,0.16
		C59.79,47.05,59.72,46.75,59.86,46.52z"/>
	<path class="st0" d="M44.02,23.43c0.12-0.2,0.37-0.26,0.57-0.13c0.19,0.12,0.25,0.38,0.13,0.57c-0.12,0.2-0.37,0.26-0.57,0.14
		C43.96,23.88,43.9,23.63,44.02,23.43z"/>
	<path class="st0" d="M53.15,19.67c0.06-0.1,0.2-0.14,0.3-0.07c0.1,0.06,0.13,0.2,0.07,0.31c-0.06,0.1-0.2,0.14-0.3,0.07
		C53.12,19.92,53.09,19.78,53.15,19.67z"/>
	<path class="st0" d="M79.07,18.24c0.06-0.1,0.19-0.13,0.28-0.07c0.1,0.06,0.13,0.19,0.07,0.29c-0.06,0.1-0.19,0.13-0.28,0.07
		C79.04,18.47,79.01,18.34,79.07,18.24z"/>
	<path class="st0" d="M44.27,23.59c0.03-0.06,0.11-0.07,0.16-0.04c0.05,0.03,0.07,0.11,0.04,0.16c-0.03,0.06-0.11,0.07-0.16,0.04
		C44.26,23.71,44.24,23.64,44.27,23.59z"/>
	<path class="st0" d="M44.21,23.55c0.05-0.09,0.17-0.12,0.25-0.06c0.09,0.05,0.11,0.17,0.06,0.26c-0.05,0.09-0.17,0.12-0.25,0.06
		C44.19,23.75,44.16,23.64,44.21,23.55z"/>
	<path class="st0" d="M59.81,46.49c0.16-0.26,0.49-0.33,0.74-0.18c0.25,0.16,0.33,0.49,0.17,0.75c-0.16,0.26-0.49,0.33-0.74,0.18
		C59.73,47.08,59.66,46.75,59.81,46.49z"/>
	<path class="st0" d="M78.77,18.06c0.16-0.26,0.5-0.35,0.76-0.18c0.26,0.16,0.34,0.51,0.18,0.77c-0.16,0.26-0.5,0.35-0.76,0.18
		C78.69,18.67,78.61,18.32,78.77,18.06z"/>
	<path class="st0" d="M44.17,23.52c0.07-0.11,0.21-0.15,0.33-0.08c0.11,0.07,0.15,0.22,0.08,0.33c-0.07,0.11-0.21,0.15-0.33,0.08
		C44.14,23.78,44.1,23.64,44.17,23.52z"/>
	<path class="st0" d="M22.46,25.05c0.04-0.07,0.13-0.09,0.2-0.05c0.07,0.04,0.09,0.14,0.05,0.21c-0.04,0.07-0.13,0.09-0.2,0.05
		C22.44,25.21,22.42,25.12,22.46,25.05z"/>
	<path class="st0" d="M41.73,5.2c0.11-0.18,0.34-0.23,0.51-0.12c0.17,0.11,0.23,0.34,0.12,0.52c-0.11,0.18-0.33,0.23-0.51,0.12
		C41.68,5.61,41.62,5.38,41.73,5.2z"/>
	<path class="st0" d="M53.04,19.6c0.1-0.17,0.32-0.22,0.49-0.12c0.17,0.11,0.22,0.33,0.12,0.5c-0.1,0.17-0.32,0.22-0.49,0.12
		C52.98,19.99,52.93,19.77,53.04,19.6z"/>
	<path class="st0" d="M22.25,24.92c0.11-0.19,0.35-0.24,0.54-0.13c0.18,0.12,0.24,0.36,0.13,0.55c-0.11,0.19-0.35,0.24-0.54,0.13
		C22.2,25.35,22.14,25.11,22.25,24.92z"/>
	<path class="st0" d="M22.42,25.02c0.06-0.09,0.18-0.12,0.27-0.07c0.09,0.06,0.12,0.18,0.06,0.28c-0.06,0.09-0.18,0.12-0.27,0.07
		C22.39,25.24,22.36,25.12,22.42,25.02z"/>
	<path class="st0" d="M44.06,23.45c0.11-0.17,0.33-0.23,0.5-0.12c0.17,0.11,0.22,0.34,0.12,0.51c-0.11,0.17-0.33,0.23-0.5,0.12
		C44.01,23.86,43.95,23.63,44.06,23.45z"/>
	<path class="st0" d="M53.17,19.68c0.06-0.1,0.18-0.13,0.28-0.07c0.09,0.06,0.12,0.19,0.07,0.28c-0.06,0.1-0.18,0.13-0.28,0.07
		C53.14,19.91,53.11,19.78,53.17,19.68z"/>
	<path class="st0" d="M22.44,25.04c0.05-0.08,0.16-0.11,0.24-0.06c0.08,0.05,0.11,0.16,0.06,0.24c-0.05,0.08-0.16,0.11-0.24,0.06
		C22.42,25.23,22.39,25.12,22.44,25.04z"/>
	<path class="st0" d="M33.79,20.22c0.04-0.06,0.12-0.08,0.18-0.04c0.06,0.04,0.08,0.12,0.04,0.18c-0.04,0.06-0.12,0.08-0.18,0.04
		C33.77,20.37,33.75,20.28,33.79,20.22z"/>
	<path class="st0" d="M42.97,8.8c0.19-0.32,0.6-0.41,0.91-0.22c0.31,0.2,0.41,0.61,0.21,0.93c-0.19,0.32-0.6,0.41-0.91,0.22
		C42.87,9.53,42.78,9.12,42.97,8.8z"/>
	<path class="st0" d="M41.51,5.06c0.18-0.3,0.57-0.39,0.87-0.21c0.3,0.19,0.39,0.58,0.21,0.88c-0.18,0.3-0.57,0.4-0.87,0.21
		C41.42,5.76,41.32,5.36,41.51,5.06z"/>
	<path class="st0" d="M33.72,20.18c0.06-0.1,0.19-0.13,0.28-0.07c0.1,0.06,0.13,0.19,0.07,0.29c-0.06,0.1-0.19,0.13-0.28,0.07
		C33.69,20.41,33.66,20.28,33.72,20.18z"/>
	<path class="st0" d="M33.54,20.07c0.12-0.2,0.38-0.26,0.58-0.14c0.2,0.12,0.26,0.39,0.14,0.59c-0.12,0.2-0.38,0.26-0.58,0.14
		C33.48,20.53,33.42,20.27,33.54,20.07z"/>
	<path class="st0" d="M22.39,25c0.07-0.11,0.21-0.15,0.32-0.08c0.11,0.07,0.14,0.22,0.08,0.33c-0.07,0.11-0.21,0.15-0.32,0.08
		C22.35,25.26,22.32,25.12,22.39,25z"/>
	<path class="st0" d="M41.82,5.25c0.08-0.13,0.25-0.17,0.37-0.09c0.13,0.08,0.17,0.25,0.09,0.38c-0.08,0.13-0.25,0.17-0.37,0.09
		C41.78,5.55,41.74,5.38,41.82,5.25z"/>
	<path class="st0" d="M33.58,20.09c0.11-0.18,0.34-0.23,0.52-0.12c0.18,0.11,0.23,0.35,0.12,0.52c-0.11,0.18-0.34,0.23-0.52,0.12
		C33.53,20.5,33.47,20.27,33.58,20.09z"/>
	<path class="st0" d="M20.11,15.41c0.05-0.08,0.15-0.11,0.23-0.06c0.08,0.05,0.1,0.16,0.05,0.24c-0.05,0.08-0.15,0.11-0.23,0.06
		C20.09,15.59,20.06,15.49,20.11,15.41z"/>
	<path class="st0" d="M43.42,9.08c0.04-0.07,0.13-0.09,0.19-0.05c0.06,0.04,0.08,0.13,0.04,0.19c-0.04,0.07-0.13,0.09-0.19,0.05
		C43.39,9.24,43.38,9.15,43.42,9.08z"/>
	<path class="st0" d="M19.99,15.33c0.09-0.15,0.28-0.2,0.43-0.1c0.15,0.09,0.19,0.29,0.1,0.44c-0.09,0.15-0.28,0.2-0.43,0.1
		C19.94,15.68,19.9,15.48,19.99,15.33z"/>
	<path class="st0" d="M19.98,15.33c0.09-0.15,0.29-0.2,0.44-0.1c0.15,0.09,0.2,0.29,0.1,0.44c-0.09,0.15-0.29,0.2-0.44,0.1
		C19.94,15.68,19.89,15.48,19.98,15.33z"/>
	<path class="st0" d="M33.67,20.15c0.08-0.13,0.24-0.17,0.36-0.09c0.12,0.08,0.16,0.24,0.09,0.37c-0.08,0.13-0.24,0.17-0.36,0.09
		C33.64,20.44,33.6,20.28,33.67,20.15z"/>
	<path class="st0" d="M43.11,8.89c0.15-0.24,0.46-0.31,0.69-0.17c0.24,0.15,0.31,0.46,0.16,0.7c-0.15,0.24-0.46,0.31-0.69,0.17
		C43.03,9.44,42.96,9.13,43.11,8.89z"/>
	<path class="st0" d="M19.89,15.27c0.13-0.21,0.39-0.27,0.59-0.14c0.2,0.13,0.26,0.39,0.14,0.6c-0.13,0.2-0.39,0.27-0.59,0.14
		C19.83,15.74,19.77,15.47,19.89,15.27z"/>
	<path class="st0" d="M20.06,15.38c0.07-0.11,0.21-0.14,0.31-0.08c0.11,0.07,0.14,0.21,0.07,0.32c-0.07,0.11-0.21,0.14-0.31,0.08
		C20.03,15.63,19.99,15.49,20.06,15.38z"/>
</g>
</svg>
